<?xml version="1.0" encoding="UTF-8"?> <svg xmlns="http://www.w3.org/2000/svg" width="551" height="409" viewBox="0 0 551 409" fill="none"> <path d="M530.488 145.584L304.242 15.1285C286.397 4.87254 264.449 4.87254 246.604 15.1285L20.5631 145.584C9.89693 151.738 9.89693 167.327 20.5631 173.48L61.3817 197.069L250.296 88.1507C265.885 79.1255 284.961 79.1255 300.55 88.1507L489.465 197.069L530.283 173.48C541.154 167.327 541.154 151.738 530.488 145.584Z" fill="#AFB5D4"></path> <path d="M250.296 88.1517L53.382 201.788C43.9466 207.121 43.9466 220.658 53.382 225.992L250.296 339.627C265.885 348.653 284.961 348.653 300.55 339.627L497.464 225.992C506.9 220.658 506.9 207.121 497.464 201.788L300.55 88.1517C284.961 79.1265 265.885 79.1265 250.296 88.1517Z" fill="#9292B7"></path> <path d="M219.938 195.018C219.938 195.018 217.887 196.864 217.887 199.735C217.887 202.607 221.169 202.812 222.605 203.838C224.041 204.863 228.348 207.53 231.835 207.12C235.322 206.709 235.117 202.607 235.117 202.607L229.374 197.479L219.938 195.018Z" fill="#6C1412"></path> <path d="M225.272 174.506C225.272 174.506 224.451 191.121 225.682 192.762C226.707 194.403 231.425 198.505 231.425 198.505C231.425 198.505 229.784 201.172 223.22 198.3C223.22 198.3 219.323 197.069 219.323 195.839C219.118 194.813 219.938 192.762 219.733 191.326C219.528 189.89 217.477 182.916 216.862 176.968C216.041 170.404 225.272 174.506 225.272 174.506Z" fill="#E5B883"></path> <path d="M200.863 207.325C200.863 207.325 198.812 209.787 198.812 213.069C198.812 216.35 201.888 216.145 203.529 217.376C205.375 218.607 210.298 221.478 214.401 221.068C218.503 220.658 218.298 215.735 218.298 215.735L211.734 209.787L200.863 207.325Z" fill="#6C1412"></path> <path d="M200.452 155.839C200.452 155.839 205.99 162.608 210.708 161.993C215.426 161.377 224.246 155.019 224.246 155.019L224.656 133.686L206.606 125.481L200.657 142.301C200.452 142.506 200.862 152.147 200.452 155.839Z" fill="#E5B883"></path> <path d="M359.214 99.2244C359.214 99.2244 355.521 128.967 359.214 140.248C359.214 140.248 348.342 128.146 339.317 128.556C339.317 128.556 348.547 107.839 347.112 95.3271L359.214 99.2244Z" fill="#B5E2DA"></path> <path d="M332.138 159.532L331.318 211.632C331.318 212.658 332.138 213.273 332.959 213.273C333.779 213.273 334.6 212.453 334.6 211.632L335.625 159.327H332.138V159.532Z" fill="#D3E1E2"></path> <path d="M345.061 159.532L345.471 182.3C345.471 183.121 346.086 183.736 346.907 183.736C347.727 183.736 348.137 183.121 348.137 182.3L347.932 159.327L345.061 159.532Z" fill="#9CDCDE"></path> <path d="M353.265 154.199L361.88 207.53C362.085 208.556 362.906 209.171 363.932 208.966C364.752 208.761 365.367 207.94 365.367 206.915L356.958 153.584L353.265 154.199Z" fill="#D3E1E2"></path> <path d="M362.906 142.919V151.329C362.906 151.329 357.368 161.79 337.061 161.79C318.19 161.79 311.216 153.585 311.216 153.585V145.175L362.906 142.919Z" fill="#7ECCE2"></path> <path d="M337.061 156.457C351.335 156.457 362.906 150.212 362.906 142.509C362.906 134.805 351.335 128.561 337.061 128.561C322.787 128.561 311.216 134.805 311.216 142.509C311.216 150.212 322.787 156.457 337.061 156.457Z" fill="#BFF2EB"></path> <path d="M337.061 153.582C348.276 153.582 357.368 148.622 357.368 142.505C357.368 136.388 348.276 131.429 337.061 131.429C325.846 131.429 316.754 136.388 316.754 142.505C316.754 148.622 325.846 153.582 337.061 153.582Z" fill="#00A9BF"></path> <path d="M338.087 80.9711C338.087 80.9711 349.983 79.5352 357.778 84.0478C365.572 88.5604 369.06 95.9447 369.06 95.9447L365.983 115.636C365.983 115.636 356.752 101.688 350.394 99.0215C344.035 96.355 337.881 96.355 337.881 96.355V80.9711H338.087Z" fill="#00A9BF"></path> <path d="M285.987 197.27C290.294 196.86 298.089 199.116 289.474 208.142C289.474 208.142 286.192 214.705 280.654 214.705C275.321 214.91 271.834 214.5 272.039 213.064C272.244 211.834 283.32 197.27 285.987 197.27Z" fill="#0CB9E2"></path> <path d="M312.857 201.99C312.857 201.99 317.78 195.426 322.088 204.451C322.088 204.451 322.908 208.553 321.062 210.194C321.062 210.194 321.062 216.348 317.37 219.835C313.268 223.527 308.55 224.142 308.14 222.707C307.524 220.245 309.165 207.733 312.857 201.99Z" fill="#0CB9E2"></path> <path d="M281.064 148.251C281.064 148.251 278.397 152.969 278.397 154.815C278.397 156.661 285.371 180.25 283.936 188.865C282.5 197.48 282.09 199.736 282.09 199.736L275.526 208.146C275.526 208.146 278.808 212.249 285.166 207.121C291.525 201.787 291.73 197.685 291.73 197.685C291.73 197.685 297.884 170.199 294.192 156.661L285.577 145.79L281.064 148.251Z" fill="#E5B883"></path> <path d="M292.756 157.687C290.09 161.174 299.115 182.916 304.858 193.377C310.601 203.838 309.576 210.402 309.576 210.402C309.576 210.402 307.73 218.812 308.14 219.017C308.55 219.222 314.294 219.017 316.345 210.607C318.396 202.197 316.345 199.531 316.345 199.531C316.345 199.531 313.473 197.685 313.268 190.3C313.063 182.916 313.063 176.968 312.037 173.276C311.012 169.583 314.704 166.096 314.704 166.096C314.704 166.096 314.088 153.789 307.32 151.533C300.551 149.277 295.423 152.969 295.423 152.969L292.756 157.687Z" fill="#E5B883"></path> <path d="M295.217 101.073L285.167 119.124C285.167 119.124 265.885 113.381 264.244 113.586C264.244 113.586 265.68 117.688 260.347 119.124C260.347 119.124 275.936 130.2 286.192 130.405C296.448 130.816 299.115 120.97 299.115 120.97C299.115 120.97 307.319 107.842 304.037 103.945C300.55 99.8427 295.217 101.073 295.217 101.073Z" fill="#77D7E5"></path> <path d="M295.422 99.0216C295.422 99.0216 295.012 117.277 297.268 121.995C299.525 126.713 304.858 132.456 304.037 133.892C303.217 135.328 287.628 137.994 281.679 147.84L294.191 159.326C294.191 159.326 304.242 151.737 309.575 156.865C314.908 161.993 313.267 168.762 313.267 168.762C313.267 168.762 343.215 157.07 348.753 145.789C354.291 134.507 347.522 96.9704 313.473 88.7656L295.422 99.0216Z" fill="#BBE6EC"></path> <path d="M300.14 113.378C300.14 113.378 317.575 101.482 317.986 98.6099C318.396 95.7382 320.652 91.4307 311.627 87.7386C302.602 84.0464 296.038 93.8921 296.038 93.8921C296.038 93.8921 293.166 103.328 300.14 113.378Z" fill="#00A7CD"></path> <path d="M300.14 90.8181V111.125C300.14 111.125 313.678 95.741 313.473 92.8693C313.268 89.9976 312.242 82.2031 312.242 82.2031L300.14 90.8181Z" fill="#E5B883"></path> <path d="M310.396 161.582C310.396 161.582 303.627 156.249 304.858 151.531C304.858 151.531 309.986 150.916 311.216 153.377C312.447 155.839 311.626 158.916 311.626 158.916L310.396 161.582Z" fill="#677A7A"></path> <path d="M327.831 95.3271C332.959 94.9169 338.292 100.66 335.42 113.583C332.549 126.3 332.754 134.505 330.292 137.787C327.831 140.863 310.191 161.991 310.191 161.991C310.191 161.991 313.267 153.171 304.652 151.94C304.652 151.94 313.678 139.633 315.524 130.813C317.37 121.377 316.549 95.9425 327.831 95.3271Z" fill="#EAF8F9"></path> <path d="M264.039 118.095C265.885 116.249 264.655 111.326 257.475 108.044C250.296 104.762 250.501 111.326 250.501 111.326C250.501 111.326 255.834 117.479 259.937 118.915C264.039 120.351 264.039 118.095 264.039 118.095Z" fill="#FCCC8A"></path> <path d="M305.473 152.761C305.473 152.761 297.063 153.171 293.371 155.222C289.679 157.273 295.833 156.453 295.833 156.453C295.833 156.453 299.32 156.658 298.91 157.889C298.294 159.119 292.961 160.145 291.32 159.325C289.679 158.504 290.089 160.965 290.089 160.965L292.346 161.991C295.217 163.222 298.294 163.632 301.371 162.812C302.807 162.401 304.243 161.991 304.448 161.991C305.678 161.376 309.576 155.838 309.576 155.838C309.576 155.838 309.576 153.581 305.473 152.761Z" fill="#FCCC8A"></path> <path d="M251.113 115.082C252.545 114.736 253.252 112.581 252.694 110.269C252.135 107.956 250.522 106.362 249.09 106.708C247.659 107.054 246.951 109.209 247.51 111.521C248.069 113.833 249.682 115.427 251.113 115.082Z" stroke="#234249" stroke-width="1.5" stroke-miterlimit="10"></path> <path d="M294.807 92.6641C294.807 92.6641 294.807 97.1767 295.627 99.0227C296.448 100.869 298.909 106.817 298.909 106.817" stroke="#234249" stroke-width="1.5" stroke-miterlimit="10"></path> <path d="M308.139 84.2522L313.473 86.3034C313.473 86.3034 320.652 78.3038 318.806 67.8427C317.37 60.2533 308.55 59.0226 303.217 59.4328C301.165 59.638 298.704 61.6891 296.858 62.7147C291.935 65.3813 289.269 72.1502 289.063 73.3809C288.858 74.8167 295.422 80.7652 295.422 80.7652L308.139 84.2522Z" fill="#B59AA3"></path> <path d="M306.704 80.5611C306.704 80.5611 306.498 73.7921 300.345 71.3307C294.191 68.8693 291.73 70.7154 290.704 76.0484C289.679 81.3815 289.679 83.2276 289.679 83.2276C289.679 83.2276 290.294 93.4835 293.166 94.0989C296.037 94.7143 302.396 94.304 306.498 90.6119C310.396 86.9197 314.703 81.7918 312.857 80.5611C311.011 79.3303 309.165 79.9457 308.755 80.7662C308.345 81.7918 306.704 80.5611 306.704 80.5611Z" fill="#FCCC8A"></path> <path d="M311.217 83.0195C311.217 83.0195 310.601 90.4038 309.986 91.6345C309.371 92.8652 298.704 106.608 298.704 106.608C298.704 106.608 292.141 126.3 280.449 124.864C268.757 123.428 259.116 112.557 252.142 109.89" stroke="#234249" stroke-width="1.5" stroke-miterlimit="10"></path> <path d="M202.504 118.917C202.504 118.917 193.068 123.84 191.632 128.558C190.196 133.276 195.735 140.66 195.735 140.66C195.735 140.66 198.401 137.583 200.452 138.198L200.042 151.941C200.042 151.941 210.503 152.147 219.323 135.327C219.323 135.327 222.81 136.352 224.656 137.993C226.502 139.634 226.913 126.096 224.656 122.815C222.4 119.533 219.939 117.276 218.913 117.276C217.477 117.687 202.504 118.917 202.504 118.917Z" fill="#E86464"></path> <path d="M196.35 142.302C196.35 142.302 202.504 146.815 204.145 147.02C205.786 147.225 211.734 135.533 211.734 135.533C211.734 135.533 215.016 139.225 217.067 138.815C219.118 138.405 221.58 135.533 221.58 135.533C221.58 135.533 215.836 128.559 213.375 128.97C210.913 129.38 203.529 139.02 203.529 139.02C203.529 139.02 200.658 134.918 197.171 137.995C194.504 140.456 196.35 142.302 196.35 142.302Z" fill="#FCCC8A"></path> <path d="M206.811 113.996L205.17 118.919C205.17 118.919 211.529 126.303 215.426 125.688C219.528 125.073 218.913 122.611 217.272 120.97L216.041 119.534L217.477 114.611L206.811 113.996Z" fill="#E5B883"></path> <path d="M210.093 114.405C210.093 114.405 204.349 114.405 201.888 113.175C199.427 111.944 193.273 108.047 195.119 98.8163C196.965 89.5859 207.016 85.8938 208.452 86.304C209.888 86.7143 223.015 88.5603 222.605 95.1241C222.195 101.688 222.605 101.073 222.605 101.073L210.093 114.405Z" fill="#981E43"></path> <path d="M221.99 100.455L222.4 104.763L224.246 107.019C224.656 107.429 224.656 108.044 224.041 108.455C223.631 108.66 223.22 109.07 222.81 109.07L223.22 113.172C223.22 113.993 222.81 114.813 221.99 115.019C220.144 115.839 216.246 116.865 210.913 116.865C210.913 116.865 209.067 115.634 208.452 115.429C207.837 115.224 204.35 113.378 206.401 110.711C208.042 108.66 210.093 111.737 210.093 111.737L210.503 108.865C210.503 108.044 210.503 107.429 210.503 106.609C210.298 104.763 210.913 103.327 212.759 102.917C212.759 102.917 215.836 102.301 221.169 100.045C221.99 99.2244 221.785 99.8397 221.99 100.455Z" fill="#FCCC8A"></path> <path d="M220.349 131.839C220.349 131.839 221.58 127.532 223.631 127.327C225.682 127.122 227.528 131.839 226.708 134.711C225.887 137.583 222.4 135.737 222.4 135.737L220.349 131.839Z" fill="#FCCC8A"></path> <path d="M202.093 177.787C202.093 177.787 200.042 197.684 200.657 200.76C201.068 203.837 201.478 208.555 201.478 208.555C201.478 208.555 209.067 214.914 211.939 213.888C214.811 212.862 213.17 211.016 213.17 211.016C213.17 211.016 207.221 207.324 207.016 204.042C206.811 200.76 210.913 184.966 210.913 182.71C210.708 180.454 202.093 177.787 202.093 177.787Z" fill="#E5B883"></path> <path d="M200.247 152.148C200.247 152.148 198.401 156.251 197.786 159.328C197.171 162.404 197.786 178.404 197.786 178.404C197.786 178.404 204.965 184.762 208.452 183.737C211.939 182.711 216.247 177.993 216.247 177.993C216.247 177.993 218.503 178.814 222.605 176.558C226.708 174.301 225.682 173.276 225.682 173.276C225.682 173.276 225.477 161.379 224.246 152.354C224.246 152.354 218.913 157.892 209.683 157.071C200.452 156.251 200.247 152.148 200.247 152.148Z" fill="#005765"></path> <path d="M268.552 284.038L313.063 258.193V271.936L268.552 297.781V284.038Z" fill="#916A5A"></path> <path d="M170.915 236.449L170.71 300.241L192.043 312.548V262.704L236.143 288.139L235.938 337.983L276.141 361.161V297.369L170.915 236.449Z" fill="#7C5E50"></path> <path d="M276.141 297.369V311.318L170.71 250.397L170.915 236.449L276.141 297.369Z" fill="#896658"></path> <path d="M276.141 297.366L320.652 271.521V335.313L276.141 361.158V297.366Z" fill="#896754"></path> <path d="M170.916 236.448L215.426 210.604L320.652 271.524L276.141 297.369L170.916 236.448Z" fill="#96735C"></path> <path d="M192.042 262.704V315.625L236.143 288.139L192.042 262.704Z" fill="#5E4840"></path> <path d="M207.837 241.579L225.887 231.733L238.605 239.323L221.17 249.374L207.837 241.579Z" fill="#F2F2F2"></path> <path d="M208.247 240.757L226.297 231.116L239.015 238.5L221.58 248.551L208.247 240.757Z" fill="white"></path> <path d="M224.041 251.012L242.092 241.371L254.809 248.755L237.374 258.806L224.041 251.012Z" fill="#F2F2F2"></path> <path d="M224.451 250.396L242.707 240.551L255.424 247.935L237.989 257.986L224.451 250.396Z" fill="white"></path> <path d="M294.602 276.448C300.946 276.448 306.089 273.142 306.089 269.064C306.089 264.986 300.946 261.68 294.602 261.68C288.258 261.68 283.115 264.986 283.115 269.064C283.115 273.142 288.258 276.448 294.602 276.448Z" fill="#B2CBD1"></path> <path d="M294.192 271.319C291.525 271.319 289.474 269.268 289.474 266.602V260.653H299.525V266.192C299.525 269.063 297.269 271.319 294.192 271.319Z" fill="#8BAFB7"></path> <path d="M319.216 278.705L337.472 231.527L331.318 230.912L313.268 278.089L319.216 278.705Z" fill="#BECBCF"></path> <path d="M313.268 278.088L331.319 230.911L287.628 207.322L269.373 254.294L313.268 278.088Z" fill="#353939"></path> <path d="M287.628 207.322L331.318 230.911L337.472 231.526L293.576 207.938L287.628 207.322Z" fill="#A7B3BA"></path> <path d="M311.627 273.986L327.832 232.347L289.064 211.425L273.065 253.064L311.627 273.986Z" fill="#007891"></path> <path d="M542.59 144.968L305.678 8.15347C287.012 -2.71782 264.039 -2.71782 245.373 8.15347L8.46115 144.968C-2.82038 151.531 -2.82038 167.736 8.46115 174.095L245.373 310.909C264.039 321.78 287.012 321.78 305.678 310.909L542.59 174.095C553.667 167.736 553.667 151.531 542.59 144.968ZM530.488 173.479L304.447 303.935C286.602 314.191 264.654 314.191 246.809 303.935L20.5632 173.479C9.89698 167.326 9.89698 151.737 20.5632 145.583L246.604 15.1275C264.449 4.87157 286.397 4.87157 304.242 15.1275L530.283 145.583C541.154 151.737 541.154 167.326 530.488 173.479Z" fill="white"></path> <path d="M8.46089 263.939L245.373 400.753C264.039 411.624 287.012 411.624 305.678 400.753L542.59 263.939C548.128 260.657 551 255.119 551 249.375V159.533C551 165.277 548.128 170.815 542.59 174.097L305.678 310.911C287.012 321.782 264.039 321.782 245.373 310.911L8.46089 174.097C6.20459 172.866 4.35852 171.02 3.12781 169.174L0.0510254 161.79V249.58C0.0510254 255.119 2.92269 260.862 8.46089 263.939Z" fill="url(#paint0_linear)"></path> <path d="M163.121 300.244L22.4091 219.017L22.204 235.631L163.121 317.268V300.244Z" fill="#D6C5CB"></path> <path d="M217.477 325.472L189.376 309.268V337.984L217.477 354.189V325.472Z" fill="#F97479"></path> <path d="M220.144 326.908V355.83L248.245 372.034V343.113L220.144 326.908Z" fill="#2C9AE5"></path> <defs> <linearGradient id="paint0_linear" x1="0.0511389" y1="284.198" x2="550.931" y2="284.198" gradientUnits="userSpaceOnUse"> <stop offset="0.245" stop-color="#FEF0F2"></stop> <stop offset="0.3397" stop-color="#FEEBED"></stop> <stop offset="0.4566" stop-color="#FFDCE0"></stop> <stop offset="0.5" stop-color="#FFD4DA"></stop> <stop offset="0.52" stop-color="#FFD0D5"></stop> <stop offset="0.596" stop-color="#FFC6CA"></stop> <stop offset="0.7029" stop-color="#FFC1C3"></stop> <stop offset="1" stop-color="#FFBFC1"></stop> </linearGradient> </defs> </svg> 