<?xml version="1.0" encoding="UTF-8"?> <svg xmlns="http://www.w3.org/2000/svg" width="551" height="434" viewBox="0 0 551 434" fill="none"> <path d="M530.488 170.659L304.242 39.9986C286.397 29.7427 264.449 29.7427 246.604 39.9986L20.5631 170.659C9.89693 176.813 9.89693 192.402 20.5631 198.555L61.3817 222.144L250.296 113.021C265.885 103.996 284.961 103.996 300.55 113.021L489.464 222.144L530.283 198.555C541.154 192.197 541.154 176.813 530.488 170.659Z" fill="#AFB5D4"></path> <path d="M250.296 113.02L53.382 226.656C43.9466 231.989 43.9466 245.527 53.382 250.86L250.296 364.495C265.885 373.521 284.961 373.521 300.55 364.495L497.464 250.86C506.899 245.527 506.899 231.989 497.464 226.656L300.55 113.02C284.961 103.995 265.885 103.995 250.296 113.02Z" fill="#9292B7"></path> <path d="M332.959 143.377H303.011V203.887H332.959V143.377Z" fill="#0983A0"></path> <path d="M312.447 101.534C313.472 96.4063 310.806 87.381 303.011 92.7141C303.011 92.7141 300.14 104.406 299.114 110.559C298.088 116.713 291.73 148.301 291.73 148.301L301.986 152.404C301.986 152.404 311.421 106.662 312.447 101.534Z" fill="#0D809C"></path> <path d="M322.497 92.9186C322.497 92.9186 330.292 95.9954 332.753 97.6363C335.215 99.0721 337.881 153.223 337.881 153.223C337.881 153.223 333.984 159.172 322.497 158.762C311.011 158.557 301.78 143.788 301.78 143.788L304.242 91.893C304.037 91.893 308.549 89.6367 322.497 92.9186Z" fill="#008BA9"></path> <path d="M298.909 73.0207C298.909 73.0207 298.909 76.9179 300.55 80.4049C300.55 80.4049 301.165 85.3278 302.806 87.7892C304.447 90.4557 307.114 92.0967 309.575 90.6609C309.575 90.6609 310.601 91.2762 310.19 95.1735C309.78 99.0707 310.601 105.019 310.601 105.019L322.292 92.7121L317.985 85.5329C317.985 85.5329 320.857 81.6357 321.267 76.7128C321.677 71.79 319.011 62.3545 313.472 62.3545C308.139 62.5596 298.909 65.8415 298.909 73.0207Z" fill="#FCCC8A"></path> <path d="M298.499 72.4064C298.499 72.4064 303.216 70.9706 305.268 73.8422C307.319 76.7139 313.062 76.5088 316.549 73.432C316.549 73.432 320.036 78.9702 318.19 85.534C318.19 85.534 321.677 84.3033 321.472 72.8166C321.267 61.33 311.421 55.1764 297.883 66.2528C297.883 66.458 295.012 69.1245 298.499 72.4064Z" fill="#3F3F3D"></path> <path d="M315.319 86.7646C313.062 89.8414 309.78 90.867 309.78 90.867C309.78 90.867 310.806 91.4824 310.396 95.3796C309.985 99.2769 310.806 105.225 310.806 105.225C310.806 105.225 311.831 95.3796 312.857 93.3284C313.883 91.2773 315.319 86.7646 315.319 86.7646Z" fill="#EDAC78"></path> <path d="M314.498 73.6372C314.498 73.6372 314.908 77.9447 314.908 78.9703C314.908 78.9703 315.319 76.3037 316.96 77.1242C318.601 77.9447 318.19 81.4317 315.934 81.8419L318.395 85.534L320.036 79.9958V74.4576L318.19 71.3809L314.498 73.6372Z" fill="#3F3F3D"></path> <path d="M325.164 106.865L330.497 157.53C335.625 155.889 337.676 153.017 337.676 153.017C337.676 153.017 337.061 140.094 336.036 126.762C335.215 123.685 334.395 121.224 334.189 121.018C333.779 120.403 325.164 106.865 325.164 106.865Z" fill="#0D809C"></path> <path d="M325.574 108.713C324.549 103.585 325.369 93.1242 333.164 98.4573C333.164 98.4573 337.881 111.585 338.907 117.738C339.933 123.892 347.522 167.992 347.522 167.992L337.266 172.095C337.266 172.095 326.395 113.841 325.574 108.713Z" fill="#008BA9"></path> <path d="M305.678 147.686L305.883 176.812L102.406 294.345L102.2 265.219L305.678 147.686Z" fill="#A1ACAD"></path> <path d="M102.406 294.345L41.8955 259.064L41.6904 229.938L102.2 265.218L102.406 294.345Z" fill="#BECBCF"></path> <path d="M102.2 265.218L41.6903 229.937L245.168 112.404L305.678 147.685L102.2 265.218Z" fill="#B7BEBF"></path> <path d="M255.014 37.5356C264.859 31.7923 272.859 36.51 272.859 47.5864L273.269 166.965L127.02 251.474L126.609 132.095C126.609 120.814 134.404 107.071 144.25 101.533L255.014 37.5356Z" fill="#EEF8FB"></path> <path d="M257.065 36.5111C257.68 36.306 258.09 36.1009 258.501 35.8958C258.911 35.6906 259.321 35.6906 259.731 35.4855C259.937 35.4855 260.142 35.2804 260.552 35.2804C260.962 35.2804 261.167 35.0753 261.578 35.0753C261.783 35.0753 261.988 35.0753 262.193 35.0753C262.603 35.0753 263.013 35.0753 263.424 35.0753H263.629C264.039 35.0753 264.449 35.0753 264.859 35.2804C265.065 35.2804 265.065 35.2804 265.27 35.2804C265.68 35.2804 265.885 35.4855 266.295 35.4855C266.295 35.4855 266.5 35.4855 266.5 35.6906C266.911 35.8958 267.321 36.1009 267.731 36.306L207.016 1.23071C206.811 1.02559 206.401 1.02559 206.195 0.820475H205.99C205.99 0.820475 205.785 0.820475 205.785 0.615356C205.58 0.615356 205.58 0.410237 205.375 0.410237C205.17 0.410237 204.965 0.410237 204.76 0.205119C204.555 0.205119 204.555 0.205119 204.349 0.205119H204.144C203.734 0.205119 203.529 0.205119 203.119 0H202.914C202.708 0 202.298 0 202.093 0H201.888C201.683 0 201.478 0 201.273 0C201.068 0 200.862 0 200.862 0C200.657 0 200.657 0 200.452 0C200.247 0 200.042 0 199.632 0.205119C199.427 0.205119 199.427 0.205119 199.221 0.205119C199.016 0.205119 198.606 0.410237 198.401 0.410237C197.991 0.615356 197.581 0.615356 197.375 0.820475C197.17 0.820475 197.17 1.02559 196.965 1.02559C196.76 1.02559 196.76 1.23071 196.555 1.23071C195.529 1.84607 194.914 2.05119 194.299 2.46142L83.5345 66.4585C82.9192 66.8687 82.3038 67.0738 81.8936 67.484C81.6885 67.6892 81.4833 67.6892 81.2782 67.8943C80.868 68.0994 80.4578 68.5096 80.2526 68.7148C80.0475 68.9199 79.8424 69.125 79.6373 69.125C79.227 69.3301 79.0219 69.7403 78.6117 69.9455C78.4066 70.1506 78.2014 70.3557 77.9963 70.5608C77.7912 70.7659 77.7912 70.7659 77.5861 70.9711C77.381 71.1762 77.381 71.1762 77.1759 71.3813C76.7656 71.7915 76.3554 72.2018 75.9451 72.612C75.74 72.8171 75.74 72.8171 75.5349 73.0222C75.3298 73.2274 75.3298 73.2274 75.3298 73.4325C75.1247 73.6376 74.9196 74.0478 74.7144 74.253C74.5093 74.4581 74.5093 74.6632 74.3042 74.8683C74.0991 75.0734 74.0991 75.2785 73.894 75.2785C73.6888 75.4837 73.4837 75.6888 73.4837 75.8939C73.2786 76.099 73.2786 76.099 73.0735 76.3041C72.8684 76.5093 72.6632 76.9195 72.4581 77.1246C72.253 77.3297 72.253 77.5349 72.0479 77.5349C72.0479 77.5349 72.0479 77.74 71.8428 77.74C71.4325 78.1502 71.2274 78.7656 71.0223 79.1758C71.0223 79.1758 71.0223 79.1758 71.0223 79.3809C71.0223 79.586 70.8172 79.586 70.8172 79.7912C70.6121 80.2014 70.4069 80.4065 70.2018 80.8168C70.2018 81.0219 69.9967 81.227 69.9967 81.4321C69.9967 81.6372 69.7916 81.8423 69.7916 82.0475C69.7916 82.2526 69.5865 82.2526 69.5865 82.4577C69.3814 82.8679 69.1762 83.2782 68.9711 83.6884V83.8935C68.766 84.5089 68.5609 84.9191 68.3558 85.5345C68.3558 85.5345 68.3558 85.7396 68.1506 85.7396C68.1506 85.9447 67.9455 86.1498 67.9455 86.3549C67.9455 86.5601 67.7404 86.9703 67.7404 87.1754C67.7404 87.3805 67.5353 87.5857 67.5353 87.7908C67.5353 87.9959 67.3302 88.201 67.3302 88.6113C67.3302 88.8164 67.3302 88.8164 67.125 89.0215C67.125 89.2266 66.9199 89.6368 66.9199 89.842C66.9199 90.0471 66.7148 90.4573 66.7148 90.6624C66.7148 90.8676 66.7148 90.8676 66.7148 91.0727C66.7148 91.2778 66.7148 91.4829 66.5097 91.688C66.5097 92.0983 66.3046 92.7136 66.3046 93.1239C66.3046 93.329 66.3046 93.329 66.3046 93.5341C66.3046 93.7392 66.3046 94.1495 66.3046 94.3546C66.3046 94.5597 66.3046 94.7648 66.3046 94.9699C66.3046 95.5853 66.3046 96.2006 66.3046 97.0211L66.7148 216.4L127.225 251.681L126.815 132.302C126.815 131.686 126.815 131.071 126.815 130.25C126.815 130.045 126.815 129.84 126.815 129.635C126.815 129.225 126.815 128.815 127.02 128.404C127.02 127.994 127.225 127.379 127.225 126.968C127.225 126.558 127.43 126.353 127.43 125.943C127.43 125.738 127.635 125.327 127.635 125.122C127.84 124.712 127.84 124.302 128.045 123.892C128.045 123.687 128.25 123.481 128.25 123.071C128.456 122.661 128.456 122.046 128.661 121.635C128.661 121.43 128.866 121.225 128.866 121.02C129.071 120.405 129.276 119.789 129.686 118.969V118.764C129.891 118.148 130.302 117.533 130.507 117.123C130.507 116.918 130.712 116.713 130.712 116.507C130.917 115.892 131.327 115.482 131.532 114.866C131.532 114.661 131.737 114.661 131.737 114.456C132.148 113.841 132.558 113.226 132.763 112.61C132.968 112.405 132.968 112.2 133.173 112.2C133.378 111.79 133.789 111.379 133.994 110.969C134.199 110.764 134.404 110.559 134.404 110.354C134.609 109.944 135.019 109.738 135.224 109.328C135.43 109.123 135.635 108.713 135.84 108.508C136.045 108.303 136.25 108.098 136.455 107.687C136.865 107.277 137.276 106.867 137.686 106.457C137.891 106.251 138.096 106.046 138.506 105.636C138.711 105.431 138.917 105.226 139.122 105.021C139.532 104.816 139.737 104.405 140.147 104.2C140.352 103.995 140.558 103.79 140.763 103.79C141.173 103.585 141.583 103.175 141.788 102.97C141.993 102.764 142.198 102.764 142.404 102.559C143.019 102.149 143.429 101.739 144.045 101.534L254.809 37.5367C255.424 37.1265 255.834 36.9214 256.45 36.7162C256.655 36.7162 256.86 36.7162 257.065 36.5111Z" fill="#D5DEDF"></path> <path d="M72.0479 100.713C72.0479 100.098 72.0479 99.4825 72.0479 98.6621C72.0479 98.457 72.0479 98.2518 72.0479 98.0467C72.0479 97.8416 72.0479 97.4314 72.0479 97.2262C72.0479 97.0211 72.0479 97.0211 72.0479 96.816C72.0479 96.4058 72.253 95.7904 72.253 95.3802C72.253 95.1751 72.253 94.9699 72.4581 94.7648C72.4581 94.5597 72.4581 94.5597 72.4581 94.3546C72.4581 94.1495 72.6632 93.7392 72.6632 93.5341C72.6632 93.329 72.8684 92.9188 72.8684 92.7136C72.8684 92.5085 72.8684 92.5085 73.0735 92.3034C73.0735 92.0983 73.2786 91.8932 73.2786 91.4829C73.2786 91.2778 73.4837 91.0727 73.4837 90.8676C73.4837 90.6624 73.6888 90.2522 73.6888 90.0471C73.6888 89.842 73.894 89.6368 73.894 89.4317C73.894 89.4317 73.894 89.2266 74.0991 89.2266C74.3042 88.6113 74.5093 88.201 74.7144 87.5857V87.3805C74.9196 86.9703 75.1247 86.5601 75.3298 86.1498C75.3298 85.9447 75.5349 85.9447 75.5349 85.7396C75.5349 85.5345 75.74 85.3294 75.74 85.1242C75.74 84.9191 75.9451 84.714 75.9451 84.5089C76.1503 84.0986 76.3554 83.6884 76.5605 83.4833C76.5605 83.2782 76.7656 83.2782 76.7656 83.0731C76.7656 83.0731 76.7656 83.0731 76.7656 82.8679C76.9707 82.4577 77.381 81.8423 77.5861 81.4321C77.5861 81.4321 77.5861 81.227 77.7912 81.227C77.9963 81.0219 77.9963 80.8168 78.2014 80.8168C78.4066 80.6116 78.6117 80.2014 78.8168 79.9963C79.0219 79.7912 79.0219 79.7912 79.227 79.586C79.4322 79.3809 79.6373 79.1758 79.6373 78.9707C79.8424 78.7656 79.8424 78.5604 80.0475 78.5604C80.2526 78.3553 80.2526 78.1502 80.4578 77.9451C80.6629 77.74 80.868 77.3297 81.0731 77.1246C81.0731 76.9195 81.2782 76.9195 81.2782 76.7144C81.4833 76.5093 81.4833 76.5093 81.6885 76.3041C82.0987 75.8939 82.5089 75.4837 82.9192 75.0734C83.1243 74.8683 83.1243 74.8683 83.3294 74.6632C83.5345 74.4581 83.5345 74.4581 83.7397 74.253C83.9448 74.0478 84.1499 73.8427 84.355 73.6376C84.7652 73.4325 84.9704 73.0222 85.3806 72.8171C85.5857 72.612 85.7908 72.4069 85.996 72.4069C86.4062 72.2018 86.8164 71.7915 87.0216 71.5864C87.2267 71.3813 87.4318 71.3813 87.6369 71.1762C88.2523 70.7659 88.6625 70.3557 89.2779 70.1506L200.657 6.15356C201.273 5.74332 201.683 5.5382 202.298 5.33309C202.503 5.33309 202.503 5.12797 202.708 5.12797C202.914 5.12797 202.914 4.92285 203.119 4.92285C203.529 4.71773 203.939 4.71773 204.144 4.51261C204.349 4.51261 204.76 4.30749 204.965 4.30749C205.17 4.30749 205.17 4.30749 205.375 4.30749C205.58 4.30749 205.785 4.10237 206.195 4.10237C206.401 4.10237 206.401 4.10237 206.606 4.10237C206.811 4.10237 207.016 4.10237 207.016 4.10237C207.221 4.10237 207.426 4.10237 207.631 4.10237H207.836C208.042 4.10237 208.452 4.10237 208.657 4.10237H208.862C209.272 4.10237 209.683 4.10237 209.888 4.30749H210.093C210.298 4.30749 210.298 4.30749 210.503 4.30749C210.708 4.30749 210.913 4.30749 211.118 4.51261C211.323 4.51261 211.529 4.71773 211.529 4.71773C211.529 4.71773 211.734 4.71773 211.734 4.92285H211.939C212.144 5.12797 212.554 5.12797 212.759 5.33309L266.911 36.7162C267.116 36.7162 267.116 36.7162 267.321 36.9214L207.016 1.23071C206.811 1.02559 206.401 1.02559 206.195 0.820475H205.99C205.99 0.820475 205.785 0.820475 205.785 0.615356C205.58 0.615356 205.58 0.410237 205.375 0.410237C205.17 0.410237 204.965 0.410237 204.76 0.205119C204.555 0.205119 204.555 0.205119 204.349 0.205119H204.144C203.734 0.205119 203.529 0.205119 203.119 0H202.914C202.708 0 202.298 0 202.093 0H201.888C201.683 0 201.478 0 201.273 0C201.068 0 200.862 0 200.862 0C200.657 0 200.657 0 200.452 0C200.247 0 200.042 0 199.632 0.205119C199.427 0.205119 199.427 0.205119 199.221 0.205119C199.016 0.205119 198.606 0.410237 198.401 0.410237C197.991 0.615356 197.581 0.615356 197.375 0.820475C197.17 0.820475 197.17 1.02559 196.965 1.02559C196.76 1.02559 196.76 1.23071 196.555 1.23071C195.529 1.84607 194.914 2.05119 194.299 2.46142L83.5345 66.4585C82.9192 66.8687 82.3038 67.0738 81.8936 67.484C81.6885 67.6892 81.4833 67.6892 81.2782 67.8943C80.868 68.0994 80.4578 68.5096 80.2526 68.7148C80.0475 68.9199 79.8424 69.125 79.6373 69.125C79.227 69.3301 79.0219 69.7403 78.6117 69.9455C78.4066 70.1506 78.2014 70.3557 77.9963 70.5608C77.7912 70.7659 77.7912 70.7659 77.5861 70.9711C77.381 71.1762 77.381 71.1762 77.1759 71.3813C76.7656 71.7915 76.3554 72.2018 75.9451 72.612C75.74 72.8171 75.74 72.8171 75.5349 73.0222C75.3298 73.2274 75.3298 73.2274 75.3298 73.4325C75.1247 73.6376 74.9196 74.0478 74.7144 74.253C74.5093 74.4581 74.5093 74.6632 74.3042 74.8683C74.0991 75.0734 74.0991 75.2785 73.894 75.2785C73.6888 75.4837 73.4837 75.6888 73.4837 75.8939C73.2786 76.099 73.2786 76.099 73.0735 76.3041C72.8684 76.5093 72.6632 76.9195 72.4581 77.1246C72.253 77.3297 72.253 77.5349 72.0479 77.5349C72.0479 77.5349 72.0479 77.74 71.8428 77.74C71.4325 78.1502 71.2274 78.7656 71.0223 79.1758C71.0223 79.1758 71.0223 79.1758 71.0223 79.3809C71.0223 79.586 70.8172 79.586 70.8172 79.7912C70.6121 80.2014 70.4069 80.4065 70.2018 80.8168C70.2018 81.0219 69.9967 81.227 69.9967 81.4321C69.9967 81.6372 69.7916 81.8423 69.7916 82.0475C69.7916 82.2526 69.5865 82.2526 69.5865 82.4577C69.3814 82.8679 69.1762 83.2782 68.9711 83.6884V83.8935C68.766 84.5089 68.5609 84.9191 68.3558 85.5345C68.3558 85.5345 68.3558 85.7396 68.1506 85.7396C68.1506 85.9447 67.9455 86.1498 67.9455 86.3549C67.9455 86.5601 67.7404 86.9703 67.7404 87.1754C67.7404 87.3805 67.5353 87.5857 67.5353 87.7908C67.5353 87.9959 67.3302 88.201 67.3302 88.6113C67.3302 88.8164 67.3302 88.8164 67.125 89.0215C67.125 89.2266 66.9199 89.6368 66.9199 89.842C66.9199 90.0471 66.7148 90.4573 66.7148 90.6624C66.7148 90.8676 66.7148 90.8676 66.7148 91.0727C66.7148 91.2778 66.7148 91.4829 66.5097 91.688C66.5097 92.0983 66.3046 92.7136 66.3046 93.1239C66.3046 93.329 66.3046 93.329 66.3046 93.5341C66.3046 93.7392 66.3046 94.1495 66.3046 94.3546C66.3046 94.5597 66.3046 94.7648 66.3046 94.9699C66.3046 95.5853 66.3046 96.2006 66.3046 97.0211L66.7148 216.4L72.8684 220.092L72.0479 100.713Z" fill="#B7BEBF"></path> <path d="M250.912 27.0763C250.706 27.0763 250.706 27.0763 250.912 27.0763C250.501 27.2814 250.091 27.2814 249.681 27.4865C249.476 27.4865 249.476 27.6916 249.271 27.6916C249.065 27.6916 249.065 27.8967 248.86 27.8967C248.245 28.1018 247.835 28.5121 247.219 28.7172L136.455 92.7142C135.84 93.1245 135.225 93.3296 134.814 93.7398C134.609 93.9449 134.404 93.9449 134.199 94.1501C133.789 94.3552 133.379 94.7654 133.173 94.9705C132.968 95.1756 132.763 95.3808 132.558 95.3808C132.148 95.5859 131.943 95.9961 131.532 96.2012C131.327 96.4064 131.122 96.6115 130.917 96.8166C130.712 97.0217 130.712 97.0217 130.507 97.2268C130.302 97.432 130.302 97.4319 130.097 97.6371C129.686 98.0473 129.276 98.4576 128.866 98.8678C128.661 99.0729 128.661 99.0729 128.456 99.278C128.251 99.4831 128.251 99.4831 128.251 99.6883C128.045 99.8934 127.84 100.304 127.635 100.509C127.43 100.714 127.43 100.919 127.225 101.124C127.02 101.329 127.02 101.534 126.815 101.534C126.61 101.739 126.404 101.945 126.404 102.15C126.199 102.355 126.199 102.355 125.994 102.56C125.789 102.765 125.584 103.175 125.379 103.38C125.174 103.586 125.174 103.791 124.969 103.791C124.969 103.791 124.969 103.996 124.764 103.996C124.353 104.406 124.148 105.021 123.943 105.432C123.943 105.432 123.943 105.432 123.943 105.637C123.943 105.842 123.738 105.842 123.738 106.047C123.533 106.457 123.328 106.662 123.123 107.073C123.123 107.278 122.917 107.483 122.917 107.688C122.917 107.893 122.712 108.098 122.712 108.303C122.712 108.508 122.507 108.508 122.507 108.713C122.302 109.124 122.097 109.534 121.892 109.944V110.149C121.687 110.765 121.482 111.175 121.277 111.79C121.277 111.79 121.277 111.995 121.071 111.995C121.071 112.2 120.866 112.406 120.866 112.611C120.866 112.816 120.661 113.226 120.661 113.431C120.661 113.636 120.456 113.841 120.456 114.047C120.456 114.252 120.251 114.457 120.251 114.867C120.251 115.072 120.251 115.072 120.046 115.277C120.046 115.482 119.841 115.893 119.841 116.098C119.841 116.303 119.636 116.713 119.636 116.918C119.636 117.123 119.636 117.123 119.636 117.328C119.636 117.534 119.636 117.739 119.43 117.944C119.43 118.354 119.225 118.969 119.225 119.38C119.225 119.585 119.225 119.585 119.225 119.79C119.225 119.995 119.225 120.405 119.225 120.61C119.225 120.815 119.225 121.021 119.225 121.226C119.225 121.841 119.225 122.456 119.225 123.277L119.636 247.169L127.43 251.681L127.02 132.097C127.02 131.482 127.02 130.866 127.02 130.046C127.02 129.841 127.02 129.636 127.02 129.43C127.02 129.02 127.02 128.61 127.225 128.2C127.225 127.79 127.43 127.174 127.43 126.764C127.43 126.354 127.635 126.149 127.635 125.738C127.635 125.533 127.84 125.123 127.84 124.918C128.045 124.508 128.045 124.097 128.251 123.687C128.251 123.482 128.456 123.277 128.456 122.867C128.661 122.456 128.661 121.841 128.866 121.431C128.866 121.226 129.071 121.021 129.071 120.815C129.276 120.2 129.481 119.585 129.892 118.764V118.559C130.097 117.944 130.507 117.328 130.712 116.918C130.712 116.713 130.917 116.508 130.917 116.303C131.122 115.688 131.532 115.277 131.738 114.662C131.738 114.457 131.943 114.457 131.943 114.252C132.353 113.636 132.763 113.021 132.968 112.406C133.173 112.2 133.173 111.995 133.379 111.995C133.584 111.585 133.994 111.175 134.199 110.765C134.404 110.56 134.609 110.354 134.609 110.149C134.814 109.739 135.225 109.534 135.43 109.124C135.635 108.919 135.84 108.508 136.045 108.303C136.25 108.098 136.455 107.893 136.66 107.483C137.071 107.073 137.481 106.662 137.891 106.252C138.096 106.047 138.301 105.842 138.712 105.432C138.917 105.226 139.122 105.021 139.327 104.816C139.737 104.611 139.942 104.201 140.353 103.996C140.558 103.791 140.763 103.586 140.968 103.586C141.378 103.38 141.788 102.97 141.994 102.765C142.199 102.56 142.404 102.56 142.609 102.355C143.224 101.945 143.634 101.534 144.25 101.329L255.014 37.3322C255.629 36.922 256.04 36.7168 256.655 36.5117C256.86 36.5117 256.86 36.3066 257.065 36.3066C257.68 36.1015 258.091 35.8964 258.501 35.6912C258.911 35.4861 259.321 35.4861 259.732 35.281C259.937 35.281 260.142 35.0759 260.552 35.0759C260.962 35.0759 261.167 34.8708 261.578 34.8708C261.783 34.8708 261.988 34.8708 262.193 34.8708C262.603 34.8708 263.014 34.8708 263.424 34.8708H263.629C264.039 34.8708 264.449 34.8708 264.86 35.0759C265.065 35.0759 265.065 35.0759 265.27 35.0759C265.68 35.0759 265.885 35.281 266.295 35.281C266.295 35.281 266.501 35.281 266.501 35.4861C266.911 35.6912 267.321 35.8964 267.731 36.1015L251.527 26.666C251.117 27.0763 251.117 27.0763 250.912 27.0763Z" fill="#B7BEBF"></path> <path d="M79.6373 69.1251C79.2271 69.3302 79.022 69.7404 78.6117 69.9456C78.4066 70.1507 78.2015 70.3558 77.9964 70.5609C77.7913 70.766 77.7913 70.766 77.5862 70.9711C77.381 71.1763 77.381 71.1763 77.1759 71.3814C76.7657 71.7916 76.3554 72.2019 75.9452 72.6121C75.7401 72.8172 75.7401 72.8172 75.535 73.0223C75.3298 73.2275 75.3299 73.2275 75.3299 73.4326C75.1247 73.6377 74.9196 74.0479 74.7145 74.253C74.5094 74.4582 74.5094 74.6633 74.3043 74.8684C74.0991 75.0735 74.0991 75.2786 73.894 75.2786C73.6889 75.4838 73.4838 75.6889 73.4838 75.894C73.2787 76.0991 73.2787 76.0991 73.0735 76.3042C72.8684 76.5094 72.6633 76.9196 72.4582 77.1247C72.2531 77.3298 72.2531 77.5349 72.0479 77.5349C72.0479 77.5349 72.048 77.7401 71.8428 77.7401C71.4326 78.1503 71.2275 78.7657 71.0224 79.1759C71.0224 79.1759 71.0224 79.1759 71.0224 79.381C71.0224 79.5861 70.8172 79.5861 70.8172 79.7913C70.6121 80.2015 70.407 80.4066 70.2019 80.8168C70.2019 81.022 69.9968 81.2271 69.9968 81.4322C69.9968 81.6373 69.7916 81.8424 69.7916 82.0476C69.7916 82.2527 69.5865 82.2527 69.5865 82.4578C69.3814 82.868 69.1763 83.2783 68.9712 83.6885V83.8936C68.766 84.509 68.5609 84.9192 68.3558 85.5346C68.3558 85.5346 68.3558 85.7397 68.1507 85.7397C68.1507 85.9448 67.9456 86.1499 67.9456 86.355C67.9456 86.5602 67.7405 86.9704 67.7405 87.1755C67.7405 87.3806 67.5353 87.5858 67.5353 87.7909C67.5353 87.996 67.3302 88.2011 67.3302 88.6114C67.3302 88.8165 67.3302 88.8165 67.1251 89.0216C67.1251 89.2267 66.92 89.6369 66.92 89.8421C66.92 90.0472 66.7149 90.4574 66.7149 90.6625C66.7149 90.8677 66.7149 90.8677 66.7149 91.0728C66.7149 91.2779 66.7149 91.483 66.5097 91.6881C66.5097 92.0984 66.3046 92.7137 66.3046 93.124C66.3046 93.3291 66.3046 93.3291 66.3046 93.5342C66.3046 93.7393 66.3046 94.1496 66.3046 94.3547C66.3046 94.5598 66.3046 94.7649 66.3046 94.97C66.3046 95.5854 66.3046 96.2007 66.3046 97.0212V100.508L126.815 132.302C126.815 131.686 126.815 131.071 126.815 130.25C126.815 130.045 126.815 129.84 126.815 129.635C126.815 129.225 126.815 128.815 127.02 128.404C127.02 127.994 127.225 127.379 127.225 126.969C127.225 126.558 127.43 126.353 127.43 125.943C127.43 125.738 127.635 125.328 127.635 125.122C127.84 124.712 127.84 124.302 128.045 123.892C128.045 123.687 128.25 123.482 128.25 123.071C128.456 122.661 128.456 122.046 128.661 121.635C128.661 121.43 128.866 121.225 128.866 121.02C129.071 120.405 129.276 119.789 129.686 118.969V118.764C129.891 118.148 130.302 117.533 130.507 117.123C130.507 116.918 130.712 116.713 130.712 116.507C130.917 115.892 131.327 115.482 131.532 114.867C131.532 114.661 131.737 114.661 131.737 114.456C132.148 113.841 132.558 113.226 132.763 112.61C132.968 112.405 132.968 112.2 133.173 112.2C133.378 111.79 133.789 111.38 133.994 110.969C134.199 110.764 134.404 110.559 134.404 110.354C134.609 109.944 135.019 109.739 135.225 109.328C135.43 109.123 135.635 108.713 135.84 108.508C136.045 108.303 136.25 108.098 136.455 107.687C136.865 107.277 137.276 106.867 137.686 106.457C137.891 106.252 138.096 106.046 138.506 105.636C138.712 105.431 138.917 105.226 139.122 105.021C139.532 104.816 139.737 104.405 140.147 104.2C140.352 103.995 140.558 103.79 140.763 103.79C141.173 103.585 141.583 103.175 141.788 102.97C141.993 102.765 142.199 102.765 142.404 102.559L80.2527 68.7148C80.0476 68.92 79.8425 68.92 79.6373 69.1251Z" fill="#B7BEBF"></path> <path d="M262.193 129.02C262.398 128.405 262.398 127.789 262.398 126.969C262.398 126.559 262.398 126.353 262.603 125.943V125.738C262.808 124.302 263.013 122.866 263.013 121.636C263.013 121.431 263.013 121.02 263.013 120.815C263.013 119.379 263.219 117.944 263.219 116.508C263.219 101.124 257.68 90.2526 248.86 85.1246L235.322 77.3301C244.143 82.458 249.476 93.3293 249.681 108.713C249.681 110.149 249.681 111.585 249.476 113.021C249.476 113.226 249.476 113.636 249.476 113.841C249.476 115.277 249.271 116.713 249.065 117.944C249.065 118.354 248.86 118.764 248.86 119.174C248.86 119.79 248.655 120.405 248.655 121.225C248.655 121.636 248.45 122.046 248.45 122.456C248.245 123.072 248.245 123.687 248.04 124.302C247.835 124.712 247.835 125.328 247.63 125.738C247.63 126.148 247.424 126.559 247.424 126.969C247.219 127.584 247.219 127.994 247.014 128.61C246.809 129.02 246.809 129.43 246.604 129.84C246.604 130.251 246.399 130.456 246.399 130.866C245.989 132.302 245.578 133.738 245.168 134.968C245.168 135.174 245.168 135.174 244.963 135.379C244.553 136.814 243.937 138.045 243.527 139.481C243.322 139.891 243.322 140.096 243.117 140.507C242.707 141.737 242.297 142.763 241.681 143.994C241.681 144.199 241.476 144.404 241.476 144.609C240.861 145.84 240.45 147.07 239.835 148.301C239.63 148.711 239.425 148.916 239.425 149.327C239.015 150.352 238.399 151.378 237.989 152.198C237.784 152.403 237.579 152.814 237.579 153.019C236.963 154.25 236.348 155.48 235.528 156.711C235.322 156.916 235.322 157.121 235.117 157.326C234.502 158.352 233.887 159.378 233.271 160.403C233.066 160.608 232.861 161.018 232.656 161.224C231.835 162.454 231.015 163.685 230.194 164.916C229.989 165.121 229.989 165.326 229.784 165.531C228.964 166.762 227.938 167.993 227.118 169.223C226.913 169.428 226.913 169.633 226.707 169.633C225.477 171.069 224.246 172.505 223.015 173.941C222.81 174.146 222.605 174.351 222.605 174.556C221.785 175.377 220.964 176.402 220.144 177.223C219.323 178.043 218.503 178.864 217.682 179.684C217.067 180.095 216.657 180.71 216.041 181.12C215.836 181.325 215.631 181.53 215.631 181.53C215.016 182.146 214.195 182.761 213.58 183.376C213.375 183.582 213.17 183.787 212.965 183.787C212.349 184.197 211.939 184.812 211.324 185.222C211.118 185.428 210.708 185.633 210.503 185.838C210.093 186.248 209.478 186.658 209.067 187.069C208.862 187.274 208.452 187.479 208.247 187.684C207.837 188.094 207.221 188.299 206.811 188.71C206.606 188.915 206.196 189.12 205.99 189.325C205.375 189.735 204.965 189.94 204.35 190.35C204.144 190.556 203.939 190.761 203.529 190.761C202.709 191.171 201.888 191.786 201.273 192.197C200.247 192.812 199.222 193.427 198.196 193.837C197.991 194.043 197.581 194.043 197.376 194.248C196.555 194.658 195.735 195.068 195.119 195.273C194.914 195.478 194.504 195.478 194.299 195.684C193.683 195.889 192.863 196.299 192.248 196.504C192.042 196.504 191.837 196.709 191.632 196.709C190.812 196.914 189.786 197.324 188.966 197.53C188.35 197.735 187.94 197.735 187.325 197.94C186.914 198.965 186.709 198.965 186.504 198.965C185.684 199.171 185.068 199.171 184.248 199.376H184.043C183.427 199.376 182.812 199.581 182.197 199.581C181.992 199.581 181.786 199.581 181.581 199.581C181.171 199.581 180.761 199.581 180.351 199.581C179.325 199.581 178.505 199.581 177.479 199.581C177.274 199.581 177.069 199.581 177.069 199.581C176.248 199.581 175.633 199.376 174.812 199.376C174.607 199.376 174.402 199.376 174.197 199.171C173.377 198.965 172.556 198.76 171.736 198.555C170.915 198.35 170.3 198.145 169.479 197.735C169.274 197.735 169.069 197.53 168.864 197.53C168.249 197.324 167.633 196.914 167.018 196.709C166.813 196.504 166.608 196.504 166.403 196.299L179.94 204.093L180.146 204.299C180.146 204.299 180.351 204.299 180.556 204.504C181.171 204.914 181.786 205.119 182.402 205.324C182.607 205.324 182.607 205.529 182.812 205.529H183.017C183.838 205.734 184.453 206.145 185.274 206.35C186.094 206.555 186.914 206.76 187.735 206.965H187.94C188.145 206.965 188.145 206.965 188.35 206.965C189.171 207.17 189.786 207.17 190.607 207.17C190.812 207.17 190.812 207.17 191.017 207.17C191.017 207.17 191.017 207.17 191.222 207.17C192.248 207.17 193.068 207.17 194.094 207.17H194.299C194.504 207.17 194.914 207.17 195.119 207.17C195.324 207.17 195.529 207.17 195.735 207.17C196.35 207.17 196.965 206.965 197.581 206.965H197.786C198.606 206.76 199.222 206.76 200.042 206.555C200.247 206.555 200.452 206.35 200.657 206.35C201.068 206.145 201.683 206.145 202.093 205.939C202.093 205.939 202.093 205.939 202.298 205.939C203.119 205.734 204.144 205.529 204.965 205.119C205.17 205.119 205.375 204.914 205.58 204.914C206.196 204.709 207.016 204.299 207.631 204.093C207.631 204.093 207.837 204.093 207.837 203.888C208.042 203.888 208.247 203.683 208.452 203.683C209.272 203.273 209.888 203.068 210.708 202.658C210.913 202.452 211.324 202.452 211.529 202.247C212.554 201.632 213.58 201.222 214.605 200.606C215.426 200.196 216.246 199.581 216.862 199.171C217.067 198.965 217.272 198.76 217.682 198.76C218.298 198.35 218.708 198.145 219.323 197.735C219.528 197.53 219.939 197.324 220.144 197.119C220.554 196.709 221.169 196.504 221.58 196.094C221.785 195.889 222.195 195.684 222.4 195.478C222.81 195.068 223.426 194.658 223.836 194.248C224.041 194.043 224.451 193.837 224.656 193.632C225.272 193.222 225.682 192.812 226.297 192.197C226.502 191.991 226.707 191.786 226.913 191.786C227.733 191.171 228.348 190.556 228.964 189.94C229.169 189.735 229.374 189.53 229.374 189.53C229.784 189.12 230.194 188.71 230.81 188.299L231.015 188.094C231.835 187.274 232.656 186.453 233.476 185.633C234.297 184.812 235.117 183.787 235.938 182.966L236.143 182.761C236.143 182.556 236.348 182.556 236.348 182.351C237.579 180.915 238.809 179.479 240.04 178.043C240.04 178.043 240.04 178.043 240.04 177.838C240.04 177.633 240.245 177.633 240.245 177.428C241.271 176.197 242.091 174.967 242.912 173.736C242.912 173.531 243.117 173.531 243.117 173.326C243.117 173.326 243.117 173.12 243.322 173.12C244.143 171.89 244.963 170.659 245.784 169.428C245.784 169.223 245.989 169.223 245.989 169.018C246.194 168.813 246.194 168.608 246.399 168.403C247.014 167.377 247.63 166.352 248.245 165.326C248.245 165.121 248.45 164.916 248.45 164.916C248.45 164.916 248.45 164.711 248.655 164.711C249.271 163.48 250.091 162.249 250.706 161.018L250.911 160.813C251.117 160.608 251.117 160.403 251.322 160.198C251.732 159.172 252.347 158.147 252.758 157.326C252.758 157.121 252.963 156.916 253.168 156.711C253.168 156.506 253.373 156.506 253.373 156.301C253.988 155.07 254.604 153.839 255.014 152.609C255.014 152.609 255.014 152.609 255.014 152.404C255.014 152.198 255.219 152.198 255.219 151.993C255.629 150.763 256.245 149.737 256.655 148.506C256.655 148.301 256.86 148.096 256.86 147.891C256.86 147.686 257.065 147.686 257.065 147.481C257.68 146.045 258.091 144.814 258.501 143.378V143.173C258.911 141.737 259.321 140.302 259.732 139.071C259.732 138.866 259.937 138.661 259.937 138.455C259.937 138.25 259.937 138.045 260.142 138.045C260.347 137.635 260.347 137.225 260.552 136.814C260.757 136.199 260.757 135.584 260.962 135.174C260.962 134.763 261.167 134.353 261.167 133.943C261.167 133.738 261.373 133.327 261.373 133.122C261.373 132.917 261.373 132.712 261.578 132.507C261.783 131.892 261.783 131.276 261.988 130.661C262.193 129.84 262.193 129.43 262.193 129.02Z" fill="#DAEAF1"></path> <path d="M211.529 187.887C232.246 175.785 249.271 146.658 249.065 122.865C249.065 99.0708 232.041 89.2251 211.324 101.327C190.607 113.429 173.582 142.556 173.787 166.35C173.787 190.144 190.812 199.784 211.529 187.887Z" fill="url(#paint0_linear)"></path> <path d="M246.604 132.302C246.604 131.892 246.809 131.276 246.809 130.866C246.809 130.661 246.809 130.456 247.014 130.046V129.84C247.219 128.815 247.219 127.584 247.424 126.558C247.424 126.353 247.424 126.148 247.424 125.943C247.424 124.918 247.629 123.687 247.629 122.661C247.629 110.764 243.322 102.354 236.553 98.4572L226.092 92.5088C232.861 96.406 237.168 104.816 237.168 116.713C237.168 117.738 237.168 118.969 236.963 119.995C236.963 120.2 236.963 120.405 236.963 120.61C236.963 121.636 236.758 122.661 236.553 123.892C236.553 124.097 236.553 124.507 236.348 124.712C236.348 125.123 236.143 125.738 236.143 126.148C236.143 126.558 235.938 126.764 235.938 127.174C235.938 127.584 235.732 128.199 235.732 128.61C235.732 129.02 235.527 129.43 235.527 129.84C235.527 130.251 235.322 130.456 235.322 130.866C235.117 131.276 235.117 131.686 234.912 132.097C234.912 132.507 234.707 132.712 234.707 133.122C234.707 133.327 234.502 133.533 234.502 133.943C234.297 134.968 233.886 135.994 233.476 137.225V137.43C233.066 138.455 232.656 139.481 232.451 140.507C232.451 140.712 232.245 141.122 232.245 141.327C231.835 142.148 231.63 143.173 231.22 143.994C231.22 144.199 231.015 144.199 231.015 144.404C230.604 145.429 230.194 146.25 229.784 147.275C229.579 147.481 229.579 147.686 229.374 148.096C228.964 148.916 228.553 149.532 228.143 150.352C227.938 150.557 227.938 150.762 227.733 150.968C227.323 151.993 226.707 152.814 226.092 153.839C226.092 154.044 225.887 154.25 225.682 154.455C225.271 155.275 224.656 156.096 224.246 156.916C224.041 157.121 224.041 157.326 223.836 157.531C223.22 158.557 222.605 159.377 221.989 160.403C221.989 160.608 221.784 160.608 221.784 160.813C221.169 161.839 220.349 162.659 219.733 163.685C219.733 163.89 219.528 163.89 219.528 164.095C218.708 165.326 217.682 166.352 216.656 167.582C216.451 167.787 216.451 167.787 216.246 167.992C215.631 168.608 215.015 169.428 214.4 170.044C213.785 170.659 213.169 171.274 212.554 172.095C212.144 172.505 211.734 172.915 211.323 173.326C211.118 173.531 211.118 173.531 210.913 173.736C210.298 174.146 209.887 174.761 209.272 175.172C209.067 175.377 209.067 175.377 208.862 175.582C208.452 175.992 208.041 176.197 207.631 176.607C207.426 176.813 207.221 177.018 207.016 177.018C206.606 177.223 206.195 177.633 205.99 177.838C205.785 178.043 205.58 178.248 205.375 178.248C204.965 178.454 204.554 178.864 204.349 179.069C204.144 179.274 203.939 179.479 203.734 179.479C203.324 179.684 202.913 180.094 202.503 180.3C202.298 180.505 202.093 180.505 201.888 180.71C201.272 181.12 200.657 181.53 200.042 181.735C199.221 182.146 198.401 182.556 197.58 182.966C197.375 183.171 197.17 183.171 196.965 183.376C196.35 183.581 195.734 183.992 195.119 184.197C194.914 184.197 194.709 184.402 194.504 184.402C193.888 184.607 193.478 184.812 192.863 185.017C192.657 185.017 192.658 185.222 192.452 185.222C191.837 185.428 191.017 185.633 190.401 185.838C189.991 186.043 189.581 186.043 189.17 186.043C188.965 186.043 188.76 186.043 188.76 186.248C188.145 186.453 187.53 186.453 187.119 186.658C187.119 186.658 187.119 186.658 186.914 186.658C186.504 186.658 185.889 186.863 185.478 186.863C185.273 186.863 185.068 186.863 184.863 186.863C184.658 186.863 184.248 186.863 184.043 186.863C183.222 186.863 182.607 186.863 181.786 186.863C181.581 186.863 181.581 186.863 181.376 186.863C180.761 186.863 180.145 186.658 179.735 186.658C179.53 186.658 179.325 186.658 179.12 186.658C178.504 186.453 177.889 186.453 177.274 186.248C176.658 186.043 176.043 185.838 175.633 185.633C175.428 185.633 175.222 185.428 175.222 185.428C174.812 185.222 174.197 185.017 173.787 184.812C173.581 184.812 173.581 184.607 173.376 184.607L183.837 190.556C183.837 190.556 184.043 190.556 184.043 190.761C184.043 190.761 184.248 190.761 184.248 190.966C184.658 191.171 185.068 191.376 185.683 191.581C185.683 191.581 185.889 191.581 185.889 191.786H186.094C186.709 191.991 187.324 192.196 187.735 192.402C188.35 192.607 188.965 192.812 189.581 192.812H189.786H189.991C190.606 192.812 191.222 193.017 191.632 193.017H191.837C192.452 193.017 193.273 193.017 194.093 193.017H194.298C194.504 193.017 194.709 193.017 194.914 193.017C195.119 193.017 195.324 193.017 195.529 193.017C195.939 193.017 196.555 193.017 196.965 192.812C196.965 192.812 196.965 192.812 197.17 192.812C197.785 192.812 198.196 192.607 198.811 192.402C199.016 192.402 199.221 192.402 199.221 192.196C199.632 192.196 200.042 191.991 200.247 191.991C200.862 191.786 201.683 191.581 202.298 191.376C202.503 191.376 202.503 191.171 202.708 191.171C203.324 190.966 203.734 190.761 204.349 190.556H204.554C204.759 190.556 204.76 190.35 204.965 190.35C205.58 190.145 206.195 189.735 206.811 189.53C207.016 189.325 207.221 189.325 207.426 189.12C208.247 188.709 209.067 188.299 209.887 187.889C210.503 187.479 211.118 187.274 211.734 186.863C211.939 186.658 212.144 186.658 212.349 186.453C212.759 186.248 213.169 185.838 213.58 185.633C213.785 185.428 213.99 185.222 214.195 185.222C214.605 185.017 215.015 184.607 215.221 184.402C215.426 184.197 215.631 183.992 215.836 183.992C216.246 183.787 216.656 183.376 216.861 183.171C217.067 182.966 217.272 182.761 217.477 182.761C217.887 182.351 218.297 182.146 218.708 181.735C218.913 181.53 218.913 181.53 219.118 181.325C219.733 180.915 220.143 180.3 220.759 179.889C220.964 179.684 220.964 179.684 221.169 179.479C221.579 179.069 221.784 178.864 222.195 178.454L222.4 178.248C223.015 177.633 223.63 177.018 224.246 176.197C224.861 175.582 225.476 174.761 226.092 174.146L226.297 173.941L226.502 173.736C227.528 172.71 228.348 171.479 229.374 170.249L229.579 170.044C230.399 169.018 231.015 168.198 231.63 167.172L231.835 166.967C231.835 166.967 231.835 166.967 231.835 166.762C232.451 165.736 233.066 164.916 233.681 163.89L233.886 163.685C233.886 163.48 234.091 163.48 234.091 163.275C234.502 162.454 235.117 161.634 235.527 160.813C235.527 160.608 235.732 160.608 235.732 160.403C235.732 160.403 235.732 160.403 235.732 160.198C236.348 159.172 236.758 158.352 237.373 157.326C237.373 157.326 237.373 157.121 237.578 157.121C237.578 156.916 237.784 156.711 237.784 156.711C238.194 155.89 238.604 155.275 239.014 154.455C239.014 154.25 239.219 154.044 239.219 154.044C239.219 154.044 239.219 153.839 239.425 153.839C239.835 152.814 240.245 151.993 240.655 150.968C240.655 150.762 240.655 150.762 240.86 150.557C241.271 149.737 241.681 148.711 241.886 147.891C241.886 147.686 242.091 147.686 242.091 147.481C242.091 147.275 242.091 147.275 242.296 147.07C242.706 146.045 243.117 145.019 243.322 143.994V143.788C243.732 142.763 243.937 141.737 244.347 140.507C244.347 140.301 244.347 140.301 244.553 140.096C244.553 139.891 244.553 139.891 244.553 139.686C244.553 139.276 244.758 139.071 244.758 138.66C244.963 138.25 244.963 137.84 245.168 137.43C245.168 137.02 245.373 136.814 245.373 136.404C245.373 136.199 245.578 135.994 245.578 135.789C245.578 135.584 245.578 135.379 245.578 135.379C245.578 134.968 245.783 134.353 245.783 133.943C246.604 133.122 246.604 132.712 246.604 132.302Z" fill="#88A5B2"></path> <path d="M212.349 89.637C212.964 89.2267 213.58 89.0216 214.195 88.6114H214.4C215.016 88.4062 215.631 87.996 216.246 87.7909C216.862 87.5858 217.682 87.1755 218.298 86.9704C218.503 86.9704 218.708 86.7653 218.913 86.7653C219.733 86.5602 220.554 86.1499 221.374 85.9448C221.785 85.7397 222.4 85.7397 222.81 85.5346C223.015 85.5346 223.22 85.3295 223.426 85.3295C224.041 85.1243 224.861 85.1243 225.477 84.9192H225.682C226.297 84.9192 226.913 84.7141 227.528 84.7141C227.733 84.7141 227.938 84.7141 228.143 84.7141C228.553 84.7141 228.964 84.7141 229.374 84.7141C229.579 84.7141 229.784 84.7141 229.989 84.7141C230.4 84.7141 231.015 84.7141 231.425 84.7141C231.63 84.7141 231.63 84.7141 231.835 84.7141C232.451 84.7141 233.066 84.7141 233.476 84.9192C233.681 84.9192 233.681 84.9192 233.887 84.9192C234.297 84.9192 234.707 85.1243 235.117 85.1243C235.938 85.3295 236.758 85.5346 237.374 85.7397C238.194 85.9448 238.809 86.1499 239.425 86.5602C239.63 86.5602 239.835 86.7653 240.04 86.7653C240.655 86.9704 241.271 87.3807 241.681 87.5858C241.886 87.5858 242.091 87.7909 242.296 87.7909L231.835 81.8425C231.835 81.8425 231.63 81.8424 231.63 81.6373C231.63 81.6373 231.425 81.6373 231.425 81.4322C230.81 81.2271 230.194 80.8169 229.784 80.6117C229.579 80.6117 229.579 80.4066 229.374 80.4066H229.169C228.553 80.2015 227.733 79.7913 227.118 79.5861C226.297 79.381 225.682 79.1759 224.861 78.9708H224.656C224.451 78.9708 224.041 78.9708 223.836 78.7657C223.631 78.7657 223.631 78.7657 223.426 78.7657C222.81 78.7657 222.4 78.5605 221.785 78.5605H221.579C221.374 78.5605 221.374 78.5605 221.169 78.5605C220.759 78.5605 220.349 78.5605 219.733 78.5605C219.528 78.5605 219.323 78.5605 219.118 78.5605C218.913 78.5605 218.708 78.5605 218.708 78.5605C218.503 78.5605 218.092 78.5605 217.887 78.5605C217.682 78.5605 217.477 78.5605 217.272 78.5605C216.657 78.5605 216.041 78.7657 215.426 78.7657H215.221C214.605 78.9708 213.785 78.9708 213.17 79.1759C212.964 79.1759 212.759 79.1759 212.554 79.381C212.144 79.5861 211.734 79.5861 211.118 79.7913C211.118 79.7913 211.118 79.7913 210.913 79.7913C210.093 79.9964 209.272 80.2015 208.452 80.6117C208.247 80.6117 208.042 80.8169 207.837 80.8169C207.221 81.022 206.606 81.2271 205.785 81.6373C205.785 81.6373 205.58 81.6373 205.58 81.8425C204.965 82.0476 204.555 82.2527 203.939 82.6629H203.734C203.119 82.868 202.503 83.2783 201.888 83.6885C201.683 83.6885 201.478 83.8936 201.273 83.8936C200.657 84.3039 199.837 84.7141 199.222 85.1243C198.401 85.5346 197.786 85.9448 196.965 86.5602C196.76 86.7653 196.555 86.9704 196.35 86.9704C195.94 87.3807 195.324 87.5858 194.914 87.996C194.709 88.2011 194.299 88.4062 194.094 88.6114C193.683 89.0216 193.273 89.2267 192.658 89.637C192.453 89.8421 192.042 90.0472 191.837 90.2523C191.427 90.6625 191.017 90.8677 190.401 91.2779C190.196 91.483 189.991 91.6881 189.581 91.8933C188.966 92.3035 188.555 92.7137 187.94 93.124C187.735 93.3291 187.53 93.3291 187.325 93.5342C186.709 94.1496 185.889 94.7649 185.273 95.3803C185.068 95.5854 185.068 95.5854 184.863 95.7905C184.453 96.2008 184.043 96.611 183.633 97.0212L183.427 97.2263C182.607 98.0468 181.786 98.8673 180.966 99.6878C180.145 100.508 179.325 101.329 178.71 102.149L178.505 102.354C178.299 102.765 177.889 102.97 177.684 103.38C177.479 103.79 177.069 103.995 176.864 104.406C176.453 104.816 176.248 105.226 175.838 105.636C175.633 106.046 175.223 106.252 175.018 106.662C175.018 106.662 175.018 106.867 174.812 106.867C174.812 107.072 174.607 107.072 174.607 107.277C173.787 108.508 172.761 109.533 171.941 110.764C171.941 110.969 171.736 110.969 171.736 111.174C171.736 111.174 171.736 111.38 171.531 111.38C170.71 112.61 169.89 113.636 169.274 114.867C169.274 115.072 169.069 115.072 169.069 115.277C168.864 115.482 168.864 115.687 168.659 115.892C168.043 116.918 167.428 117.943 166.813 118.764C166.813 118.969 166.608 118.969 166.608 119.174V119.379C165.992 120.61 165.377 121.635 164.762 122.866L164.556 123.071C164.556 123.276 164.351 123.482 164.351 123.687C163.941 124.712 163.326 125.533 162.916 126.558C162.916 126.763 162.71 126.969 162.71 127.174C162.71 127.379 162.505 127.379 162.505 127.584C161.89 128.815 161.48 130.045 160.864 131.071C160.864 131.071 160.864 131.071 160.864 131.276C160.864 131.481 160.659 131.481 160.659 131.686C160.249 132.712 159.839 133.943 159.428 134.968C159.428 135.173 159.223 135.378 159.223 135.584C159.223 135.789 159.223 135.789 159.018 135.994C158.608 137.224 157.993 138.66 157.582 139.891V140.096C157.172 141.327 156.762 142.763 156.352 143.993C156.352 144.199 156.147 144.404 156.147 144.404C156.147 144.609 156.147 144.609 155.941 144.814C155.736 145.224 155.736 145.634 155.531 146.045C155.326 146.66 155.326 147.07 155.121 147.686C155.121 148.096 154.916 148.506 154.916 148.916C154.916 149.121 154.711 149.532 154.711 149.737C154.711 149.942 154.711 150.147 154.506 150.352C154.301 150.967 154.301 151.583 154.095 152.198C154.095 152.608 153.89 153.019 153.89 153.429C153.685 154.044 153.685 154.66 153.685 155.275C153.685 155.48 153.685 155.89 153.48 156.095C153.48 156.301 153.48 156.301 153.48 156.506C153.48 156.711 153.48 157.121 153.48 157.326C153.48 157.941 153.275 158.557 153.275 159.172C153.275 159.377 153.275 159.788 153.275 159.993C153.275 160.608 153.275 161.223 153.07 161.839C153.07 162.044 153.07 162.454 153.07 162.659C153.07 163.48 153.07 164.3 153.07 165.121C153.07 179.684 158.198 189.94 166.608 194.863L177.069 200.811C168.659 195.888 163.531 185.632 163.531 171.069C163.531 170.249 163.531 169.428 163.531 168.608C163.531 168.403 163.531 167.992 163.531 167.787C163.531 167.172 163.531 166.556 163.736 165.941C163.736 165.736 163.736 165.326 163.736 165.121C163.736 164.505 163.941 163.89 163.941 163.275C163.941 163.069 163.941 162.659 163.941 162.454C163.941 162.044 164.146 161.634 164.146 161.223C164.146 160.608 164.351 159.993 164.351 159.377C164.351 158.967 164.556 158.557 164.556 158.147C164.762 157.531 164.762 156.916 164.967 156.301C164.967 155.89 165.172 155.275 165.377 154.865C165.377 154.454 165.582 154.044 165.582 153.634C165.787 153.019 165.787 152.608 165.992 151.993C166.197 151.583 166.197 151.173 166.403 150.762C166.403 150.352 166.608 150.147 166.608 149.737C167.018 148.506 167.428 147.07 167.838 145.839C167.838 145.634 167.838 145.634 168.043 145.429C168.454 144.199 168.864 142.763 169.479 141.532C169.684 141.122 169.684 140.917 169.89 140.506C170.3 139.481 170.71 138.25 171.12 137.224C171.12 137.019 171.325 136.814 171.325 136.609C171.941 135.378 172.351 134.148 172.966 133.122C173.171 132.712 173.171 132.507 173.377 132.302C173.787 131.276 174.402 130.456 174.812 129.43C175.018 129.225 175.018 128.815 175.223 128.61C175.838 127.379 176.453 126.353 177.069 125.122C177.274 124.917 177.274 124.712 177.479 124.507C178.094 123.482 178.71 122.456 179.325 121.635C179.53 121.43 179.735 121.02 179.94 120.815C180.761 119.584 181.581 118.354 182.197 117.328C182.402 117.123 182.402 116.918 182.607 116.713C183.427 115.482 184.248 114.251 185.273 113.226C185.479 113.02 185.479 112.815 185.684 112.815C185.889 112.405 186.299 112.2 186.504 111.79C186.914 111.38 187.12 110.969 187.53 110.559C187.735 110.149 188.145 109.944 188.35 109.533C188.76 109.123 188.966 108.713 189.376 108.303C190.196 107.482 190.812 106.662 191.632 105.841C192.453 105.021 193.273 104.2 194.094 103.38C194.504 102.97 195.119 102.354 195.529 101.944C195.735 101.739 195.94 101.739 195.94 101.534C196.555 100.918 197.375 100.303 197.991 99.6878C198.196 99.4826 198.401 99.4827 198.606 99.2775C199.222 98.8673 199.632 98.4571 200.247 98.0468C200.452 97.8417 200.657 97.6366 201.068 97.4315C201.478 97.0212 201.888 96.611 202.503 96.4059C202.709 96.2008 203.119 95.9956 203.324 95.7905C203.734 95.3803 204.144 95.1752 204.76 94.7649C204.965 94.5598 205.375 94.3547 205.58 94.1496C205.99 93.7393 206.606 93.5342 207.016 93.124C207.221 92.9189 207.426 92.7137 207.631 92.7137C208.452 92.3035 209.067 91.8933 209.888 91.2779C210.503 90.8677 211.324 90.4574 211.939 90.0472C211.939 89.8421 212.144 89.8421 212.349 89.637Z" fill="#0A7E99"></path> <path d="M209.683 91.0728C235.322 76.3043 256.244 88.2012 256.244 117.533C256.244 146.865 235.528 182.966 209.888 197.735C184.248 212.503 163.326 200.606 163.326 171.274C163.326 141.942 184.043 106.046 209.683 91.0728ZM209.888 187.889C230.605 175.787 247.63 146.66 247.424 122.866C247.424 99.0725 230.4 89.2268 209.683 101.329C188.76 113.226 171.941 142.352 171.941 166.351C172.146 190.145 189.171 199.786 209.888 187.889Z" fill="#B0D6E7"></path> <path d="M213.58 80.8169C214.4 80.4067 215.015 79.9965 215.836 79.7913C215.836 79.7913 216.041 79.7913 216.041 79.5862C216.862 79.176 217.477 78.9709 218.297 78.5606C219.118 78.1504 219.938 77.9453 220.554 77.7402C220.759 77.7402 220.964 77.535 221.169 77.535C222.195 77.1248 223.22 76.9197 224.041 76.7146C224.656 76.5094 225.271 76.5094 225.887 76.3043C226.092 76.3043 226.297 76.0992 226.502 76.0992C227.323 75.8941 228.143 75.689 228.964 75.689H229.169C229.784 75.4838 230.604 75.4838 231.22 75.4838C231.425 75.4838 231.63 75.4838 232.04 75.4838C232.656 75.4838 233.066 75.4838 233.681 75.4838C233.886 75.4838 234.091 75.4838 234.297 75.4838C234.912 75.4838 235.322 75.4838 235.938 75.4838C236.143 75.4838 236.348 75.4838 236.553 75.4838C237.168 75.4838 237.989 75.4838 238.604 75.689C238.809 75.689 238.809 75.689 239.014 75.689C239.425 75.689 239.835 75.8941 240.45 75.8941C241.476 76.0992 242.296 76.3043 243.117 76.5094C243.937 76.7146 244.758 77.1248 245.578 77.3299C245.783 77.3299 245.988 77.535 246.193 77.535C246.809 77.7401 247.629 78.1504 248.245 78.5606C248.45 78.7657 248.655 78.7657 248.86 78.9709L236.758 71.9968L236.553 71.7917C236.348 71.7917 236.348 71.5866 236.143 71.5866C235.527 71.1764 234.912 70.9712 234.091 70.561C233.886 70.561 233.886 70.3559 233.681 70.3559C233.476 70.3559 233.476 70.3559 233.271 70.1508C232.451 69.7405 231.63 69.5354 230.81 69.3303C229.989 69.1252 228.964 68.92 228.143 68.7149C227.938 68.7149 227.938 68.7149 227.733 68.7149C227.323 68.7149 227.117 68.7149 226.707 68.5098C226.502 68.5098 226.502 68.5098 226.297 68.5098C225.682 68.5098 225.066 68.3047 224.451 68.3047H224.246C224.041 68.3047 223.836 68.3047 223.63 68.3047C223.015 68.3047 222.605 68.3047 221.989 68.3047C221.784 68.3047 221.579 68.3047 221.374 68.3047C221.169 68.3047 220.964 68.3047 220.759 68.3047C220.349 68.3047 220.143 68.3047 219.733 68.3047C219.528 68.3047 219.323 68.3047 218.913 68.3047C218.297 68.3047 217.477 68.5098 216.862 68.5098H216.656C215.836 68.7149 215.015 68.7149 214.195 68.92C213.99 68.92 213.785 69.1252 213.374 69.1252C212.759 69.3303 212.349 69.3303 211.734 69.5354C211.734 69.5354 211.734 69.5354 211.528 69.5354C210.503 69.7405 209.682 70.1508 208.657 70.3559C208.452 70.3559 208.247 70.561 208.041 70.561C207.221 70.7661 206.4 71.1763 205.785 71.3815C205.58 71.3815 205.58 71.3815 205.375 71.5866C204.76 71.7917 204.144 72.2019 203.529 72.4071C203.529 72.4071 203.324 72.4071 203.324 72.6122C202.503 73.0224 201.888 73.2275 201.067 73.6378C201.272 73.8429 201.067 73.8429 200.862 74.048C200.042 74.4582 199.221 74.8685 198.401 75.4838C197.58 75.8941 196.76 76.5094 195.734 77.1248C195.529 77.3299 195.119 77.535 194.914 77.7402C194.298 78.1504 193.683 78.5606 193.068 78.9709C192.658 79.176 192.452 79.3811 192.042 79.5862C191.427 79.9965 191.017 80.4067 190.401 80.8169C189.991 81.022 189.786 81.2272 189.376 81.6374C188.76 82.0476 188.35 82.4579 187.735 82.8681C187.53 83.0732 187.119 83.2784 186.914 83.4835C186.299 83.8937 185.683 84.5091 185.068 85.1244C184.863 85.3295 184.658 85.5347 184.453 85.7398C183.632 86.3551 182.812 87.1756 181.991 87.9961C181.786 88.2012 181.581 88.4063 181.376 88.6114C180.966 89.0217 180.35 89.637 179.94 90.0473L179.735 90.2524C178.709 91.278 177.889 92.0985 176.863 93.1241C176.043 94.1496 175.017 95.1752 174.197 96.2008L173.992 96.4059C173.581 96.8162 173.376 97.2264 172.966 97.6367C172.556 98.0469 172.351 98.4571 171.941 98.8674C171.53 99.2776 171.12 99.893 170.71 100.508C170.3 100.919 170.094 101.329 169.684 101.739L169.479 101.944C169.479 102.149 169.274 102.149 169.274 102.354C168.248 103.79 167.223 105.021 166.197 106.457C166.197 106.662 165.992 106.662 165.992 106.867C165.992 106.867 165.992 107.072 165.787 107.072C164.761 108.508 163.941 109.739 163.12 111.174C163.12 111.38 162.915 111.38 162.915 111.585C162.71 111.79 162.71 111.995 162.505 112.2C161.685 113.431 161.069 114.456 160.454 115.687C160.249 115.892 160.249 116.097 160.044 116.302C160.044 116.302 160.044 116.508 159.839 116.508C159.018 117.943 158.403 119.174 157.582 120.61C157.582 120.815 157.377 120.815 157.377 121.02C157.172 121.225 157.172 121.43 156.967 121.636C156.352 122.661 155.941 123.892 155.326 124.917C155.121 125.123 155.121 125.328 154.916 125.533C154.916 125.738 154.711 125.738 154.711 125.943C154.095 127.379 153.48 128.815 152.864 130.045C152.864 130.045 152.864 130.045 152.864 130.251C152.864 130.456 152.659 130.661 152.659 130.661C152.044 131.891 151.634 133.122 151.018 134.558C151.018 134.763 150.813 134.968 150.813 135.173C150.813 135.378 150.608 135.584 150.608 135.584C149.993 137.019 149.583 138.66 148.967 140.096C148.967 140.096 148.967 140.096 148.967 140.301C148.967 140.506 148.967 140.506 148.967 140.712C148.557 142.353 147.942 143.788 147.531 145.429C147.531 145.634 147.326 145.84 147.326 146.045C147.326 146.25 147.326 146.455 147.121 146.66C146.916 147.07 146.916 147.686 146.711 148.096C146.506 148.711 146.301 149.327 146.301 149.942C146.096 150.352 146.096 150.968 145.89 151.378C145.89 151.788 145.685 151.993 145.685 152.403C145.685 152.608 145.685 152.814 145.48 153.019C145.275 153.634 145.275 154.455 145.07 155.07C145.07 155.48 144.865 156.095 144.865 156.506C144.66 157.326 144.66 157.942 144.455 158.762C144.455 159.172 144.25 159.377 144.25 159.788C144.25 159.993 144.25 159.993 144.25 160.198C144.25 160.608 144.25 160.813 144.044 161.223C144.044 161.839 143.839 162.659 143.839 163.275C143.839 163.685 143.839 163.89 143.839 164.3C143.839 164.916 143.839 165.736 143.634 166.351C143.634 166.762 143.634 166.967 143.634 167.377C143.634 168.403 143.634 169.428 143.634 170.454C143.634 187.684 149.788 199.581 159.428 205.324L171.53 212.298C161.685 206.555 155.736 194.453 155.736 177.428C155.736 176.402 155.736 175.377 155.736 174.351C155.736 173.941 155.736 173.736 155.736 173.325C155.736 172.71 155.736 171.89 155.941 171.274C155.941 170.864 155.941 170.659 155.941 170.249C155.941 169.633 156.146 168.813 156.146 168.197C156.146 167.787 156.146 167.582 156.352 167.172C156.352 166.762 156.557 166.146 156.557 165.736C156.762 164.916 156.762 164.3 156.967 163.48C156.967 163.07 157.172 162.454 157.172 162.044C157.377 161.429 157.377 160.608 157.582 159.993C157.787 159.377 157.787 158.762 157.992 158.352C158.198 157.942 158.198 157.326 158.403 156.916C158.608 156.301 158.608 155.685 158.813 155.07C159.018 154.66 159.018 154.044 159.223 153.634C159.223 153.224 159.428 152.814 159.633 152.608C160.044 150.968 160.454 149.532 161.069 147.891C161.069 147.686 161.069 147.686 161.274 147.48C161.685 146.045 162.3 144.404 162.915 142.968C163.12 142.558 163.12 142.147 163.326 141.737C163.736 140.506 164.351 139.276 164.966 137.84C164.966 137.635 165.172 137.43 165.172 137.225C165.787 135.789 166.402 134.353 167.018 133.122C167.223 132.712 167.428 132.302 167.633 132.097C168.248 131.071 168.659 129.84 169.274 128.815C169.479 128.404 169.684 128.199 169.889 127.789C170.71 126.353 171.325 125.123 172.146 123.687C172.351 123.482 172.351 123.276 172.556 122.866C173.171 121.636 173.992 120.61 174.607 119.379C174.812 118.969 175.017 118.764 175.222 118.354C176.043 116.918 177.068 115.687 177.889 114.251C178.094 114.046 178.094 113.841 178.299 113.636C179.325 112.2 180.35 110.764 181.376 109.534C181.581 109.328 181.581 109.123 181.786 108.918C182.196 108.508 182.402 108.098 182.812 107.687C183.222 107.072 183.632 106.662 184.043 106.047C184.453 105.636 184.658 105.226 185.068 104.816C185.478 104.406 185.889 103.79 186.299 103.38C187.119 102.354 188.145 101.329 188.965 100.508C189.786 99.4827 190.811 98.6622 191.837 97.6367C192.452 97.0213 193.068 96.4059 193.683 95.9957C193.888 95.7906 194.093 95.5855 194.298 95.3804C195.119 94.5599 195.939 93.9445 196.76 93.1241C196.965 92.9189 197.17 92.7138 197.375 92.5087C197.991 91.8933 198.606 91.4831 199.221 91.0729C199.426 90.8677 199.837 90.6626 200.042 90.2524C200.657 89.8421 201.067 89.4319 201.683 89.0217C202.093 88.8166 202.298 88.6114 202.708 88.2012C203.324 87.791 203.734 87.3807 204.349 86.9705C204.76 86.7654 204.965 86.5602 205.375 86.3551C205.99 85.9449 206.606 85.5347 207.221 85.1244C207.426 84.9193 207.836 84.7142 208.041 84.5091C208.862 83.8937 209.682 83.4835 210.708 82.8681C211.528 82.4579 212.349 81.8425 213.169 81.4323C213.169 81.022 213.374 80.8169 213.58 80.8169Z" fill="#DAEAF1"></path> <path d="M210.503 82.4583C240.45 65.2283 265.065 79.1764 265.065 113.636C265.065 148.096 240.861 190.351 210.913 207.581C180.966 224.811 156.352 210.863 156.352 176.403C156.147 141.943 180.351 99.8933 210.503 82.4583ZM210.708 195.889C235.117 181.736 254.809 147.481 254.809 119.585C254.809 91.4835 234.912 80.202 210.503 94.3551C186.094 108.508 166.403 142.763 166.403 170.659C166.403 198.555 186.299 209.837 210.708 195.889Z" fill="white"></path> <path d="M343.83 277.526L343.625 348.497L185.273 257.014L185.478 186.043L343.83 277.526Z" fill="#BECBCF"></path> <path d="M343.83 277.526L343.625 298.243L185.273 206.965L185.478 186.043L343.83 277.526Z" fill="url(#paint1_linear)"></path> <path d="M343.83 277.525L410.699 238.553L410.494 309.524L343.625 348.496L343.83 277.525Z" fill="#C5D8DE"></path> <path d="M343.83 277.525L410.699 238.553L410.494 259.065L343.625 298.037L343.83 277.525Z" fill="url(#paint2_linear)"></path> <path d="M185.479 186.043L252.347 147.275L410.699 238.553L343.83 277.526L185.479 186.043Z" fill="#A7B4B7"></path> <path d="M376.444 265.016L376.239 292.912L178.094 178.456V150.354L376.444 265.016Z" fill="#BECBCF"></path> <path d="M376.444 265.015L443.313 226.042V254.143L376.239 292.911L376.444 265.015Z" fill="#C5D8DE"></path> <path d="M178.094 150.353L244.963 111.586L443.313 226.042L376.444 265.015L178.094 150.353Z" fill="#EEF8FB"></path> <path d="M362.291 246.143L362.085 250.246L200.452 156.917L200.657 152.814L362.291 246.143Z" fill="#0A7E99"></path> <path d="M362.291 246.143L416.852 214.35L416.647 218.657L362.086 250.245L362.291 246.143Z" fill="#0B7088"></path> <path d="M200.657 152.814L255.014 121.021L416.852 214.349L362.291 246.143L200.657 152.814Z" fill="#008BA9"></path> <path d="M273.269 133.329C275.32 134.56 275.32 136.406 273.269 137.637L242.707 155.277C240.655 156.508 237.374 156.508 235.322 155.277L218.503 145.636C216.451 144.406 216.451 142.56 218.503 141.329L249.065 123.689C251.116 122.458 254.398 122.458 256.45 123.689L273.269 133.329Z" fill="white"></path> <path d="M274.705 135.997C274.705 136.202 274.5 136.407 274.5 136.612C274.295 136.817 274.295 137.022 274.09 137.022C274.09 137.022 273.885 137.227 273.679 137.227C273.474 137.227 273.474 137.432 273.269 137.432L242.707 155.073C242.296 155.278 242.091 155.483 241.681 155.483C241.476 155.483 241.476 155.483 241.271 155.688C241.066 155.688 240.86 155.688 240.655 155.893C240.45 155.893 240.245 155.893 240.04 156.098C240.04 156.098 240.04 156.098 239.835 156.098C239.63 156.098 239.22 156.098 239.014 156.098C239.014 156.098 239.014 156.098 238.809 156.098C238.604 156.098 238.194 156.098 237.989 156.098C237.989 156.098 237.989 156.098 237.784 156.098C237.579 156.098 237.168 156.098 236.963 155.893C236.963 155.893 236.963 155.893 236.758 155.893C236.553 155.893 236.348 155.688 236.143 155.688C236.143 155.688 236.143 155.688 235.938 155.688C235.732 155.483 235.322 155.483 235.117 155.278L218.297 145.637C217.272 145.022 216.862 144.201 216.862 143.586V155.483C216.862 156.303 217.272 157.124 218.297 157.534L235.117 167.175C235.322 167.38 235.527 167.38 235.938 167.585C235.938 167.585 235.938 167.585 236.143 167.585C236.348 167.585 236.348 167.79 236.553 167.79H236.758C236.758 167.79 236.758 167.79 236.963 167.79C236.963 167.79 236.963 167.79 237.168 167.79C237.373 167.79 237.579 167.79 237.784 167.79H237.989C237.989 167.79 237.989 167.79 238.194 167.79H238.399C238.604 167.79 238.809 167.79 238.809 167.79C238.809 167.79 238.809 167.79 239.014 167.79C239.014 167.79 239.014 167.79 239.22 167.79H239.425C239.63 167.79 239.835 167.79 240.04 167.79C240.04 167.79 240.04 167.79 240.245 167.79C240.45 167.79 240.45 167.79 240.655 167.79H240.86C241.066 167.79 241.271 167.79 241.476 167.585H241.681C241.681 167.585 241.681 167.585 241.886 167.585C242.296 167.38 242.501 167.38 242.912 167.175L273.474 149.534L273.679 149.329C273.885 149.329 273.885 149.124 274.09 149.124C274.295 148.919 274.295 148.919 274.5 148.714C274.5 148.714 274.5 148.714 274.5 148.509C274.5 148.509 274.5 148.304 274.705 148.304V148.099V147.893V135.997C274.705 135.791 274.91 135.586 274.705 135.997Z" fill="#DAEAF1"></path> <path d="M280.243 136.201C280.243 136.201 274.5 134.355 272.859 141.124C271.423 147.892 274.5 152.2 278.192 154.046C281.679 155.892 288.448 159.379 293.576 161.225C293.576 161.225 296.037 163.481 298.293 164.917C300.55 166.353 322.908 172.917 322.908 172.917C322.908 172.917 341.573 180.096 344.445 177.43C347.112 174.763 333.984 169.43 333.984 169.43C333.984 169.43 337.266 168.815 335.83 167.379C334.394 166.148 331.318 165.533 328.651 164.712C325.984 163.892 322.908 165.533 318.19 164.712C313.472 163.892 309.575 157.123 301.37 156.097C301.37 155.892 290.089 141.534 280.243 136.201Z" fill="#F1BC83"></path> <path d="M266.295 139.687C266.295 139.687 271.013 135.379 277.166 135.789C283.32 136.2 290.294 139.481 295.627 145.84C300.96 152.199 305.678 159.788 311.216 162.25C311.216 162.25 299.319 168.813 296.448 175.993C293.576 183.172 292.755 188.915 292.755 188.915L264.859 172.506L250.911 158.557C250.911 158.557 245.373 149.942 255.014 146.25L266.295 139.687Z" fill="#EEF8FB"></path> <path d="M311.216 162.251C311.216 162.251 325.78 166.148 332.549 170.456C339.112 174.763 377.264 208.608 392.033 213.12L387.315 222.761C387.315 222.761 382.598 224.402 383.213 232.607C383.213 232.607 369.47 228.094 362.291 227.068C355.112 226.043 349.573 220.505 341.779 213.941C333.779 207.582 292.756 188.506 292.756 188.506C292.756 188.506 292.55 170.251 311.216 162.251Z" fill="#228985"></path> <path d="M386.29 222.145C386.29 222.145 389.777 216.812 391.007 212.504C392.238 208.197 397.571 205.735 399.007 208.812C400.648 211.889 399.212 215.991 397.161 221.735C395.11 227.478 394.494 231.58 394.084 234.657C393.879 237.734 386.085 240.4 382.187 232.196C382.187 231.991 380.341 226.247 386.29 222.145Z" fill="#FCCC8A"></path> <path d="M255.424 150.558C255.424 150.558 249.68 147.891 247.219 154.66C244.757 161.429 247.424 166.557 250.911 168.813C254.398 171.275 260.757 175.787 265.885 178.454C265.885 178.454 268.141 181.121 270.397 182.967C272.654 184.813 295.011 194.864 295.011 194.864C295.011 194.864 313.472 204.914 316.754 202.658C320.036 200.402 306.908 192.812 306.908 192.812C306.908 192.812 310.395 192.607 309.165 190.966C307.934 189.325 304.857 188.3 302.191 187.069C299.524 185.838 296.037 187.274 291.319 185.633C286.396 183.992 283.525 176.608 275.115 174.352C274.705 173.941 265.064 157.532 255.424 150.558Z" fill="#FCCC8A"></path> <path d="M386.289 222.146C386.289 222.146 368.239 213.941 360.855 207.993C353.47 202.044 341.163 190.557 336.651 188.301C331.933 186.045 319.011 178.866 319.011 178.866L313.062 180.917C313.062 180.917 317.37 179.276 318.805 177.02C320.241 174.763 320.446 171.481 320.446 171.481C320.446 171.481 321.267 174.558 320.036 177.02C320.036 177.02 320.036 178.045 321.472 178.866C322.908 179.686 334.805 186.25 336.651 187.276C338.292 188.301 343.009 191.583 345.881 194.044C348.958 196.506 358.804 205.326 360.65 206.557C362.496 207.582 370.29 214.967 387.11 221.325L386.289 222.146Z" fill="#1D6D6A"></path> <path d="M393.469 213.736C393.469 213.736 396.956 208.403 398.186 204.095C399.417 199.788 404.75 197.326 406.186 200.403C407.827 203.48 406.391 207.582 404.34 213.326C402.289 219.069 401.673 223.171 401.263 226.248C401.058 229.325 393.263 231.991 389.366 223.787C389.161 223.581 387.52 217.838 393.469 213.736Z" fill="#FCCC8A"></path> <path d="M406.186 200.198C405.161 198.147 402.494 198.557 400.443 200.403C398.187 205.121 395.315 212.505 395.11 218.454C394.905 224.402 395.52 227.274 397.571 229.12C399.622 228.71 401.058 227.479 401.263 226.248C401.468 223.171 402.289 219.069 404.34 213.326C406.186 207.172 407.622 203.275 406.186 200.198Z" fill="#FFE19F"></path> <path d="M399.007 208.606C397.981 206.555 395.315 206.965 393.264 208.811C391.007 213.529 388.136 220.913 387.931 226.862C387.726 232.81 388.341 235.682 390.392 237.528C392.443 237.118 393.879 235.887 394.084 234.656C394.289 231.58 395.11 227.477 397.161 221.734C399.212 215.785 400.648 211.683 399.007 208.606Z" fill="#FFE19F"></path> <path d="M252.552 121.637C252.552 121.637 261.577 129.226 263.629 131.892C263.629 131.892 264.039 134.764 261.372 135.585C261.372 135.585 263.013 138.867 266.295 139.892C266.295 139.892 267.936 142.148 266.295 144.2C264.654 146.251 259.731 148.097 254.808 146.661C254.808 146.661 248.86 141.738 245.783 140.302C242.706 138.867 234.502 133.123 237.578 127.38C240.45 121.226 245.168 116.714 252.552 121.637Z" fill="#FCCC8A"></path> <path d="M251.321 120.816C251.321 120.816 245.578 121.227 243.117 125.739C243.117 125.739 242.706 127.585 245.168 128.406C245.168 128.406 246.398 129.842 245.783 132.303C245.783 132.303 246.193 133.944 248.039 133.739L247.834 135.38C247.834 135.38 245.373 133.123 243.732 134.559C241.886 135.995 243.527 138.046 245.988 138.046L248.45 139.072C248.45 139.072 246.604 140.303 242.706 138.251C238.809 136.2 237.578 133.123 236.758 129.431C235.937 125.739 238.194 123.278 240.45 120.611C242.501 118.355 246.193 117.124 251.321 120.816Z" fill="#AA6C55"></path> <path d="M254.193 29.1279C252.758 29.5382 251.527 30.1535 250.091 30.7689C251.527 30.1535 252.963 29.5382 254.193 29.1279Z" fill="white"></path> <path d="M245.373 33.229C246.809 32.4085 248.245 31.588 249.681 30.9727C248.245 31.588 246.809 32.4085 245.373 33.229Z" fill="white"></path> <path d="M250.501 38.1525C250.707 37.9473 251.117 37.9473 251.322 37.7422C251.322 37.7422 251.527 37.7422 251.527 37.5371C249.886 38.3576 248.245 39.1781 246.604 39.9985C247.835 39.3832 249.066 38.7678 250.501 38.1525Z" fill="white"></path> <path d="M255.014 36.1016C254.808 36.1016 254.603 36.3067 254.398 36.3067C254.603 36.3067 254.808 36.1016 255.014 36.1016Z" fill="white"></path> <path d="M257.065 35.4864C257.475 35.2813 258.09 35.0762 258.501 35.0762C258.706 35.0762 258.706 35.0762 258.911 34.8711C258.296 35.0762 257.68 35.2813 257.065 35.4864Z" fill="white"></path> <path d="M542.59 170.043L305.678 33.2292C290.089 24.204 271.218 22.7682 254.604 28.9217L263.013 33.8446C276.961 30.7678 291.73 32.819 304.242 40.2032L530.283 170.659C540.949 176.812 540.949 192.401 530.283 198.555L304.242 329.01C286.397 339.266 264.449 339.266 246.604 329.01L20.5631 198.555C9.89697 192.401 9.89697 176.812 20.5631 170.659L66.0995 144.404V136.814L245.373 33.2292L8.46114 170.043C-2.82038 176.607 -2.82038 192.812 8.46114 199.17L245.373 335.984C264.039 346.856 287.012 346.856 305.678 335.984L542.59 199.17C553.667 192.606 553.667 176.402 542.59 170.043Z" fill="white"></path> <path d="M8.46095 289.013L245.373 425.827C264.039 436.698 287.012 436.698 305.678 425.827L542.59 289.013C548.128 285.731 551 280.193 551 274.449V184.607C551 190.351 548.128 195.889 542.59 199.171L305.678 335.78C287.012 346.651 264.039 346.651 245.373 335.78L8.46095 199.171C6.20465 197.94 4.35858 196.094 3.12787 194.248L0.0510864 186.659V274.449C0.0510864 279.988 2.92275 285.731 8.46095 289.013Z" fill="url(#paint3_linear)"></path> <path d="M163.121 325.319L22.4091 243.887L22.204 260.501L163.121 342.344V325.319Z" fill="#D6C5CB"></path> <path d="M217.477 350.343L189.376 334.139V363.06L217.477 379.265V350.343Z" fill="#F97479"></path> <path d="M220.143 351.984V380.701L248.245 397.11V368.189L220.143 351.984Z" fill="#2C9AE5"></path> <defs> <linearGradient id="paint0_linear" x1="146.773" y1="144.518" x2="256.797" y2="144.518" gradientUnits="userSpaceOnUse"> <stop stop-color="#515E63"></stop> <stop offset="0.0479429" stop-color="#5A686E"></stop> <stop offset="0.2677" stop-color="#7F929B"></stop> <stop offset="0.4789" stop-color="#9DB4BE"></stop> <stop offset="0.6767" stop-color="#B2CCD7"></stop> <stop offset="0.8559" stop-color="#BFDAE7"></stop> <stop offset="1" stop-color="#C3DFEC"></stop> </linearGradient> <linearGradient id="paint1_linear" x1="185.358" y1="242.218" x2="343.731" y2="242.218" gradientUnits="userSpaceOnUse"> <stop stop-color="#BECBCF"></stop> <stop offset="1" stop-color="white"></stop> </linearGradient> <linearGradient id="paint2_linear" x1="380.134" y1="272.805" x2="373.109" y2="262.39" gradientUnits="userSpaceOnUse"> <stop stop-color="white"></stop> <stop offset="1" stop-color="#BECBCF"></stop> </linearGradient> <linearGradient id="paint3_linear" x1="0.051183" y1="309.165" x2="550.931" y2="309.165" gradientUnits="userSpaceOnUse"> <stop offset="0.245" stop-color="#FEF0F2"></stop> <stop offset="0.3397" stop-color="#FEEBED"></stop> <stop offset="0.4566" stop-color="#FFDCE0"></stop> <stop offset="0.5" stop-color="#FFD4DA"></stop> <stop offset="0.52" stop-color="#FFD0D5"></stop> <stop offset="0.596" stop-color="#FFC6CA"></stop> <stop offset="0.7029" stop-color="#FFC1C3"></stop> <stop offset="1" stop-color="#FFBFC1"></stop> </linearGradient> </defs> </svg> 