<?xml version="1.0" encoding="UTF-8"?> <svg xmlns="http://www.w3.org/2000/svg" width="551" height="409" viewBox="0 0 551 409" fill="none"> <path d="M530.488 145.583L304.242 15.1275C286.397 4.87156 264.449 4.87156 246.604 15.1275L20.5631 145.583C9.89693 151.737 9.89693 167.326 20.5631 173.479L61.3817 197.068L250.296 88.1497C265.885 79.1245 284.961 79.1245 300.55 88.1497L489.464 197.068L530.283 173.479C541.154 167.326 541.154 151.737 530.488 145.583Z" fill="#AFB5D4"></path> <path d="M250.296 88.1498L53.3821 201.786C43.9467 207.119 43.9467 220.656 53.3821 225.99L250.296 339.625C265.885 348.65 284.961 348.65 300.55 339.625L497.464 225.99C506.899 220.656 506.899 207.119 497.464 201.786L300.55 88.1498C284.961 79.1246 265.885 79.1246 250.296 88.1498Z" fill="#9292B7"></path> <path d="M149.378 177.377L149.173 241.169L170.3 253.476V203.632L214.605 229.067L214.4 278.911L254.398 302.089L254.604 238.297L149.378 177.377Z" fill="#7C5E50"></path> <path d="M254.604 238.297L254.398 252.04L149.173 191.325L149.378 177.377L254.604 238.297Z" fill="#896658"></path> <path d="M254.604 238.296L299.114 212.246V276.038L254.398 302.088L254.604 238.296Z" fill="#896754"></path> <path d="M149.378 177.376L193.888 151.531L299.114 212.246L254.604 238.296L149.378 177.376Z" fill="#96735C"></path> <path d="M170.3 203.631V256.346L214.605 229.066L170.3 203.631Z" fill="#5E4840"></path> <path d="M255.219 175.325C253.373 175.325 251.732 173.889 251.732 171.838V116.866H258.501V171.838C258.706 173.684 257.065 175.325 255.219 175.325Z" fill="#5A6064"></path> <path d="M374.598 243.835C372.752 243.835 371.111 242.399 371.111 240.348V185.581H377.88V240.553C377.88 242.399 376.444 243.835 374.598 243.835Z" fill="#5A6064"></path> <path d="M423.211 213.682C421.365 213.682 419.724 212.246 419.724 210.195V163.428H426.493V210.195C426.493 212.246 425.057 213.682 423.211 213.682Z" fill="#5A6064"></path> <path d="M290.294 150.711C288.448 150.711 286.807 149.275 286.807 147.224V92.252H293.576V147.224C293.781 149.275 292.14 150.711 290.294 150.711Z" fill="#5A6064"></path> <path d="M243.527 107.84L300.14 75.0215L399.417 132.25L342.805 165.069L243.527 107.84Z" fill="#EEF8FB"></path> <path d="M394.7 217.374L451.107 184.555V193.17L394.7 225.989V217.374Z" fill="#A7B3BA"></path> <path d="M342.805 165.069L399.417 132.25L451.107 184.555L394.7 217.374L342.805 165.069Z" fill="#EEF8FB"></path> <path d="M342.805 165.069L394.7 217.374V225.989L342.805 173.684L243.527 116.456V107.841L342.805 165.069Z" fill="#BECBCF"></path> <path d="M249.681 103.943L301.165 73.9961L398.392 129.788L346.907 159.736L249.681 103.943Z" fill="#008BA9"></path> <path d="M346.907 159.736L398.392 129.789L445.569 177.582L394.084 207.324L346.907 159.736Z" fill="#0097B8"></path> <path d="M249.681 103.943V106.815L346.907 162.607V159.736L249.681 103.943Z" fill="#007891"></path> <path d="M346.907 159.736V162.608L393.469 209.785L394.084 207.324L346.907 159.736Z" fill="#007891"></path> <path d="M445.569 177.581L394.084 207.323L393.469 209.785L445.569 179.837V177.581Z" fill="#008BA9"></path> <path d="M269.987 116.866L249.681 64.3556L256.45 63.5352L276.756 116.251L269.987 116.866Z" fill="#BECBCF"></path> <path d="M276.756 116.251L256.45 63.5355L305.268 37.0752L325.575 89.7907L276.756 116.251Z" fill="#009FC2"></path> <path d="M305.268 37.0752L256.45 63.5355L249.681 64.356L298.499 37.8957L305.268 37.0752Z" fill="#A7B3BA"></path> <path d="M405.571 169.993C405.571 169.993 412.135 177.992 412.545 178.197C413.776 178.813 414.186 180.249 417.057 178.197C419.724 176.146 421.775 168.967 422.596 168.352C423.211 167.531 424.237 164.454 422.596 163.224C421.57 162.608 420.955 161.788 419.314 160.967C417.878 160.147 416.647 162.198 416.442 163.019C416.237 163.839 413.776 168.967 413.776 168.967L410.904 168.147L405.571 169.993Z" fill="#FCCC8A"></path> <path d="M378.29 170.607C378.29 170.607 382.187 178.196 383.213 178.606C384.239 179.017 389.777 183.324 389.572 185.17C389.366 186.811 387.52 187.426 386.495 187.221C385.469 187.016 382.187 189.888 381.367 189.273C380.546 188.452 370.906 178.606 370.906 176.35C370.906 174.094 370.906 169.786 370.906 169.786C370.906 169.786 377.88 169.581 378.29 170.607Z" fill="#FCCC8A"></path> <path d="M331.523 102.508C331.523 102.508 365.778 110.918 374.598 121.379C383.418 131.84 413.57 168.146 413.57 168.146L410.494 169.377C409.058 169.787 407.827 170.402 406.802 171.428C406.391 171.838 405.571 172.043 404.545 171.428C404.545 171.428 375.008 144.557 370.496 135.122C365.983 125.686 323.523 132.455 316.96 115.635C310.396 98.8157 326.395 98.4055 331.523 102.508Z" fill="#353939"></path> <path d="M327.216 108.047C327.216 108.047 359.214 109.072 366.598 116.047C372.136 121.174 374.393 141.276 374.393 141.276L359.419 125.892L322.703 110.508L327.216 108.047Z" fill="#212323"></path> <path d="M299.73 110.918C299.73 110.918 303.012 126.302 314.703 129.584C326.395 132.865 354.701 129.584 354.701 129.584C354.701 127.122 363.522 154.198 368.855 168.966C370.701 174.094 380.136 169.787 380.136 169.787C380.136 169.787 371.316 121.174 366.393 116.251C361.47 111.328 316.549 107.021 316.549 107.021C316.549 107.021 298.089 107.431 299.73 110.918Z" fill="#353939"></path> <path d="M285.782 33.9989C285.782 33.9989 288.448 41.178 285.371 43.8446C282.294 46.5111 280.448 51.2288 282.089 55.5363C283.73 59.8438 280.448 61.0745 279.218 64.1513C277.782 67.6383 278.602 73.1765 282.91 73.997C287.217 74.8175 292.14 74.8175 292.14 74.8175L302.806 71.5356L305.268 62.1001L303.011 53.6903L301.371 44.8702L297.473 35.0245C297.063 35.0245 287.422 29.4863 285.782 33.9989Z" fill="#3F3F3D"></path> <path d="M312.447 76.0475C312.447 76.0475 316.139 86.3034 317.575 88.5597C318.601 90.2007 342.189 105.585 342.189 105.585L346.292 102.713C346.292 102.713 327.421 81.7908 324.344 82.201L321.472 72.9707L312.447 76.0475Z" fill="#FCCC8A"></path> <path d="M324.754 75.6373C321.062 66.6121 317.985 59.4329 317.37 57.792C315.319 52.8691 308.55 44.049 304.858 52.8691C304.858 52.8691 310.396 70.9196 313.267 78.7141L324.754 75.6373Z" fill="#EFFA4B"></path> <path d="M291.935 57.5876C291.935 57.5876 285.782 63.3309 284.141 65.5872C282.295 67.8435 299.73 115.841 299.73 115.841C299.73 115.841 305.473 119.328 316.139 114.611C326.805 109.893 332.959 99.2266 332.959 99.2266L308.755 49.3828C308.755 49.5879 303.627 49.3828 291.935 57.5876Z" fill="#EFFA4B"></path> <path d="M306.088 29.896C306.088 29.896 307.729 33.5881 307.524 37.4854C307.524 37.4854 308.755 42.4082 308.345 45.485C307.934 48.5618 306.088 51.2283 303.012 51.0232C303.012 51.0232 302.396 52.0488 304.242 55.5358C306.088 59.0228 307.729 64.7662 307.729 64.7662L291.935 57.7921L292.961 49.3823C292.961 49.3823 288.653 46.9208 286.397 42.4082C284.141 37.8956 282.91 28.0499 288.038 25.9987C293.371 23.7424 303.217 23.1271 306.088 29.896Z" fill="#FCCC8A"></path> <path d="M305.883 29.2805C305.883 29.2805 301.371 29.8958 300.755 33.3829C300.14 36.8699 294.397 38.9211 289.884 37.6904C289.884 37.6904 288.653 44.2542 293.166 49.5872C293.166 49.5872 289.474 49.7924 285.166 38.9211C280.654 28.0498 287.422 18.4092 304.652 23.332C304.447 23.332 307.729 24.7679 305.883 29.2805Z" fill="#3F3F3D"></path> <path d="M296.243 49.3828C299.524 51.434 303.012 51.0238 303.012 51.0238C303.012 51.0238 302.396 52.0494 304.242 55.5364C306.088 59.0234 307.729 64.7667 307.729 64.7667C307.729 64.7667 302.806 55.9466 301.165 54.5108C299.319 53.0749 296.243 49.3828 296.243 49.3828Z" fill="#EDAC78"></path> <path d="M291.73 36.6652C291.73 36.6652 292.961 40.7675 293.371 41.7931C293.371 41.7931 291.935 39.5368 290.91 40.9727C289.884 42.4085 291.525 45.4853 293.781 45.075L292.961 49.5876L288.858 45.075L286.602 39.7419L287.012 36.0498L291.73 36.6652Z" fill="#3F3F3D"></path> <path d="M294.397 71.125L307.934 117.277C302.396 117.892 299.525 116.251 299.525 116.251C299.525 116.251 295.422 104.764 291.32 92.6625C290.91 89.5857 290.704 87.1243 290.91 86.9191C291.525 86.3038 294.397 71.125 294.397 71.125Z" fill="#C0C93C"></path> <path d="M287.423 91.0218C287.423 91.0218 289.269 101.893 290.294 104.354C291.115 106.201 314.703 129.789 314.703 129.789L319.831 127.328C319.831 127.328 301.165 99.4316 297.884 99.2265L296.653 89.5859L287.423 91.0218Z" fill="#FCCC8A"></path> <path d="M299.524 92.6616C297.473 83.2262 295.832 75.6368 295.422 73.7907C294.397 68.6628 289.269 58.6119 283.935 66.8167C283.935 66.8167 286.192 85.4825 287.628 93.6872L299.524 92.6616Z" fill="#EFFA4B"></path> <path d="M319.011 126.917C319.011 126.917 326.6 128.558 327.215 129.173C327.831 129.789 329.677 134.301 330.292 134.917C330.703 135.532 330.087 137.583 329.062 137.583C328.036 137.583 325.78 137.583 324.754 137.173C324.139 136.968 322.293 136.558 321.062 136.352C319.831 136.147 318.806 135.327 317.985 134.301L314.498 129.173L319.011 126.917Z" fill="#FCCC8A"></path> <path d="M342.394 105.379C342.394 105.379 340.343 109.892 339.933 111.123C339.523 112.559 344.651 114.2 346.497 112.559C348.138 110.918 349.163 109.277 349.163 109.277L346.497 102.508L342.394 105.379Z" fill="#FCCC8A"></path> <path d="M174.402 175.735L192.453 165.89L205.17 173.274L187.735 183.325L174.402 175.735Z" fill="#F2F2F2"></path> <path d="M174.812 174.915L192.863 165.069L205.58 172.454L188.145 182.71L174.812 174.915Z" fill="white"></path> <path d="M260.757 192.554L275.321 154.813L270.603 154.197L255.834 192.144L260.757 192.554Z" fill="#88ACB5"></path> <path d="M255.834 192.145L270.603 154.198L235.322 135.122L220.554 173.069L255.834 192.145Z" fill="#353939"></path> <path d="M235.322 135.122L270.603 154.198L275.321 154.813L240.04 135.737L235.322 135.122Z" fill="#A7B3BA"></path> <path d="M254.604 188.863L267.526 155.224L236.553 138.404L223.631 172.044L254.604 188.863Z" fill="#29A6B7"></path> <path d="M236.758 167.942C236.758 167.942 232.861 172.044 229.989 175.531L237.168 179.429C238.399 177.993 239.22 177.172 239.63 176.557C241.886 173.685 243.322 167.327 236.758 167.942Z" fill="#E5ECF0"></path> <path d="M248.655 174.71C241.271 168.147 237.989 167.941 237.989 167.941L232.246 176.762L251.322 187.017C252.757 183.736 253.578 181.479 253.373 181.069C252.142 179.223 248.655 174.71 248.655 174.71Z" fill="#ECF3F7"></path> <path d="M241.066 154.404C241.066 154.404 239.63 156.865 239.425 159.532C239.425 159.532 238.194 162.814 238.194 164.865C238.399 166.916 239.425 168.967 241.271 168.967C241.271 168.967 241.681 169.788 240.04 172.044C238.604 174.3 236.963 178.198 236.963 178.198L248.245 174.711L248.04 168.967C248.04 168.967 251.117 167.531 252.963 164.66C254.809 161.788 256.45 155.224 253.168 153.173C249.886 151.122 243.527 150.096 241.066 154.404Z" fill="#FCCC8A"></path> <path d="M240.861 153.993C240.861 153.993 244.348 154.814 244.553 157.275C244.758 159.737 248.45 161.583 251.527 160.967C251.527 160.967 251.732 165.48 248.45 168.967C248.45 168.967 250.911 169.377 254.809 162.403C258.706 155.224 254.809 148.25 242.707 150.301C242.707 150.096 240.04 150.712 240.861 153.993Z" fill="#3F3F3D"></path> <path d="M246.399 168.557C243.937 169.582 241.681 169.172 241.681 169.172C241.681 169.172 242.091 169.992 240.45 172.249C239.014 174.505 237.374 178.402 237.374 178.402C237.374 178.402 241.271 172.659 242.707 171.839C243.937 170.813 246.399 168.557 246.399 168.557Z" fill="#EDAC78"></path> <path d="M250.296 160.146C250.296 160.146 249.065 162.813 248.86 163.633C248.86 163.633 250.091 162.198 250.706 163.223C251.322 164.249 249.886 166.3 248.45 165.89L248.655 168.967L251.732 166.3L253.578 162.813V160.146H250.296Z" fill="#3F3F3D"></path> <path d="M245.578 183.941L252.142 187.428C252.757 184.351 253.168 181.684 253.168 181.684C250.706 176.556 247.219 180.453 245.578 183.941Z" fill="#E5ECF0"></path> <path d="M240.45 172.044C238.809 174.3 237.374 178.198 237.374 178.198L245.989 175.531C241.476 174.71 240.45 173.07 240.45 172.044Z" fill="#798B93"></path> <path d="M255.834 198.093V192.145L223.631 209.169V215.323L255.834 198.093Z" fill="#88ACB5"></path> <path d="M220.554 173.068L186.504 187.222L223.631 209.169L255.834 192.144L220.554 173.068Z" fill="#BECBCF"></path> <path d="M220.759 176.351L192.863 188.042L223.22 205.888L249.476 191.94L220.759 176.351Z" fill="#353939"></path> <path d="M223.631 215.324L186.504 193.786V187.223L223.631 209.17V215.324Z" fill="#A1B9BF"></path> <path d="M199.016 195.837L193.478 199.119L204.76 205.477L210.298 202.401L207.426 200.76L204.76 202.401L199.016 199.119L201.888 197.478L199.016 195.837Z" fill="#BECBCF"></path> <path d="M204.555 208.76L204.76 205.478L193.478 199.119V202.401L204.555 208.76Z" fill="#A1B9BF"></path> <path d="M210.298 205.477V202.4L204.76 205.477L204.555 208.759L210.298 205.477Z" fill="#88ACB5"></path> <path d="M201.888 200.76V197.479L199.016 199.119L201.888 200.76Z" fill="#4B686B"></path> <path d="M209.272 292.243C209.272 292.243 213.375 291.422 217.067 290.397C220.759 289.371 223.836 291.422 221.579 294.499C219.528 297.576 213.785 300.653 211.529 301.678C209.272 302.704 206.811 302.294 205.785 304.96C205.785 304.96 198.811 309.062 194.504 303.319L194.299 297.166L209.272 292.243Z" fill="#212323"></path> <path d="M193.068 276.858C193.068 276.858 196.145 274.602 199.016 277.474C202.298 280.55 196.555 285.063 194.504 287.73C192.453 290.396 189.991 292.037 189.376 294.088C188.76 296.139 180.966 297.37 179.53 292.652L179.12 286.089L193.068 276.858Z" fill="#212323"></path> <path d="M112.046 276.039C111.431 276.039 110.61 275.629 110.2 275.013C109.585 273.988 109.995 272.757 111.02 272.142L146.506 251.425V237.272C146.506 236.041 145.891 234.81 144.66 234.195C143.429 233.579 142.198 233.579 140.968 234.195L112.867 250.399C111.841 251.015 110.61 250.604 109.995 249.579C109.38 248.553 109.79 247.322 110.815 246.707L138.917 230.503C141.378 229.067 144.25 229.067 146.711 230.503C149.173 231.938 150.608 234.4 150.608 237.272V252.45C150.608 253.271 150.198 253.886 149.583 254.296L113.072 275.629C112.867 276.039 112.456 276.039 112.046 276.039Z" fill="#949A9C"></path> <path d="M174.197 294.499C175.633 295.319 176.864 297.37 176.864 299.216C176.864 300.857 175.633 301.678 174.197 300.652C172.761 299.832 171.531 297.78 171.531 295.934C171.531 294.293 172.761 293.678 174.197 294.499Z" fill="#025B72"></path> <path d="M178.71 297.985C178.71 297.985 178.71 297.78 178.71 297.985C178.71 297.78 178.71 297.78 178.71 297.78C178.71 297.78 178.71 297.78 178.71 297.575C178.71 297.575 178.71 297.575 178.71 297.37C178.71 297.37 178.71 297.37 178.71 297.165C178.71 297.165 178.71 297.165 178.71 296.96C178.71 296.96 178.71 296.96 178.71 296.755C178.71 296.755 178.71 296.755 178.71 296.55C178.71 296.55 178.71 296.55 178.71 296.344C178.71 296.344 178.71 296.344 178.71 296.139C178.71 296.139 178.71 296.139 178.71 295.934C178.71 295.934 178.71 295.934 178.71 295.729C178.71 295.729 178.71 295.729 178.71 295.524C178.71 295.524 178.71 295.524 178.71 295.319C178.71 295.319 178.71 295.319 178.71 295.114V294.909V294.704C178.71 294.498 178.505 294.498 178.505 294.293L178.299 294.088C178.299 294.088 178.299 293.883 178.094 293.883C178.094 293.883 178.094 293.883 177.889 293.678C177.889 293.678 177.889 293.678 177.684 293.473C177.684 293.473 177.684 293.473 177.479 293.268C177.479 293.268 177.479 293.268 177.274 293.063C177.274 293.063 177.274 293.063 177.069 292.857C177.069 292.857 177.069 292.857 176.864 292.652C176.864 292.652 176.864 292.652 176.658 292.652C176.658 292.652 176.658 292.652 176.453 292.652C176.453 292.652 176.453 292.652 176.248 292.652C176.248 292.652 176.248 292.652 176.043 292.652C176.043 292.652 176.043 292.652 175.838 292.652C175.838 292.652 175.838 292.652 175.633 292.652C175.633 292.652 175.633 292.652 175.428 292.652C175.428 292.652 175.428 292.652 175.223 292.652C175.223 292.652 175.223 292.652 175.018 292.652C175.018 292.652 175.017 292.652 174.812 292.652C174.812 292.652 174.812 292.652 174.607 292.652C174.607 292.652 174.607 292.652 174.402 292.652C174.402 292.652 174.402 292.652 174.197 292.652H173.992H173.787H173.582L171.736 293.678C171.941 293.678 171.941 293.473 172.146 293.473C172.351 293.473 172.351 293.473 172.556 293.473C172.761 293.473 172.966 293.473 172.966 293.678C173.171 293.678 173.377 293.883 173.582 293.883C173.787 294.088 173.992 294.088 174.197 294.293C174.402 294.498 174.607 294.498 174.607 294.704C175.017 295.114 175.223 295.524 175.428 295.934C175.633 296.139 175.633 296.344 175.838 296.55C175.838 296.755 176.043 296.96 176.043 297.165C176.043 297.37 176.248 297.575 176.248 297.78C176.248 297.985 176.248 298.191 176.248 298.396C176.248 298.601 176.248 298.806 176.248 299.011C176.248 299.216 176.248 299.421 176.043 299.421C176.043 299.626 175.838 299.626 175.838 299.831L175.633 300.037L177.479 299.011C177.684 299.011 177.684 298.806 177.684 298.806C177.684 298.806 177.684 298.806 177.684 298.601V298.396C177.684 298.396 177.684 298.396 177.684 298.191C177.684 298.191 177.684 298.191 177.684 297.985C177.684 297.985 177.684 297.985 177.684 297.78C177.684 297.78 177.684 297.78 177.684 297.575C177.684 297.575 177.684 297.575 177.684 297.37C177.684 297.37 177.684 297.37 177.684 297.165C178.71 298.191 178.71 298.191 178.71 297.985Z" fill="#015064"></path> <path d="M169.274 297.372C170.71 298.192 171.941 300.243 171.941 302.089C171.941 303.73 170.71 304.551 169.274 303.525C167.838 302.705 166.608 300.654 166.608 298.807C166.608 297.167 167.838 296.551 169.274 297.372Z" fill="#025B72"></path> <path d="M173.787 300.858C173.787 300.653 173.787 300.653 173.787 300.653C173.787 300.653 173.787 300.653 173.787 300.448C173.787 300.448 173.787 300.448 173.787 300.243C173.787 300.243 173.787 300.243 173.787 300.038C173.787 300.038 173.787 300.038 173.787 299.833C173.787 299.833 173.787 299.833 173.787 299.628C173.787 299.628 173.787 299.628 173.787 299.423C173.787 299.423 173.787 299.423 173.787 299.218C173.787 299.218 173.787 299.218 173.787 299.012C173.787 299.012 173.787 299.012 173.787 298.807C173.787 298.807 173.787 298.807 173.787 298.602C173.787 298.602 173.787 298.602 173.787 298.397C173.787 298.397 173.787 298.397 173.787 298.192C173.787 298.192 173.787 298.192 173.787 297.987V297.782V297.577C173.787 297.371 173.582 297.371 173.582 297.166L173.377 296.961C173.377 296.961 173.377 296.756 173.171 296.756C173.171 296.756 173.171 296.756 172.966 296.551C172.966 296.551 172.966 296.551 172.761 296.346C172.761 296.346 172.761 296.346 172.556 296.141C172.556 296.141 172.556 296.141 172.351 295.936C172.351 295.936 172.351 295.936 172.146 295.731C172.146 295.731 172.146 295.731 171.941 295.525C171.941 295.525 171.941 295.525 171.736 295.525C171.736 295.525 171.736 295.525 171.53 295.525C171.53 295.525 171.53 295.525 171.325 295.525C171.325 295.525 171.325 295.525 171.12 295.525C171.12 295.525 171.12 295.525 170.915 295.525C170.915 295.525 170.915 295.525 170.71 295.525C170.71 295.525 170.71 295.525 170.505 295.525C170.505 295.525 170.505 295.525 170.3 295.525C170.3 295.525 170.3 295.525 170.095 295.525C170.095 295.525 170.095 295.525 169.89 295.525C169.89 295.525 169.89 295.525 169.684 295.525C169.684 295.525 169.684 295.525 169.479 295.525C169.479 295.525 169.479 295.525 169.274 295.525H169.069H168.864H168.659L166.813 296.551C167.018 296.551 167.018 296.346 167.223 296.346C167.428 296.346 167.428 296.346 167.633 296.346C167.838 296.346 168.043 296.346 168.043 296.551C168.249 296.551 168.454 296.756 168.659 296.756C168.864 296.961 169.069 296.961 169.274 297.166C169.479 297.371 169.684 297.371 169.684 297.577C170.095 297.987 170.3 298.397 170.505 298.807C170.71 299.012 170.71 299.218 170.915 299.423C170.915 299.628 171.12 299.833 171.12 300.038C171.12 300.243 171.325 300.448 171.325 300.653C171.325 300.858 171.325 301.064 171.325 301.269C171.325 301.474 171.325 301.679 171.325 301.884C171.325 302.089 171.325 302.294 171.12 302.294C171.12 302.499 170.915 302.499 170.915 302.705L170.71 302.91L172.556 301.884C172.761 301.884 172.761 301.679 172.761 301.679C172.761 301.679 172.761 301.679 172.761 301.474V301.269C172.761 301.269 172.761 301.269 172.761 301.064C172.761 301.064 172.761 301.064 172.761 300.858C172.761 300.858 172.761 300.858 172.761 300.653C172.761 300.653 172.761 300.653 172.761 300.448C172.761 300.448 172.761 300.448 172.761 300.243C172.761 300.243 172.761 300.243 172.761 300.038C173.787 301.064 173.787 301.064 173.787 300.858C173.787 301.064 173.787 301.064 173.787 300.858C173.787 301.064 173.787 300.858 173.787 300.858Z" fill="#015064"></path> <path d="M129.276 320.344C130.712 321.164 131.943 323.216 131.943 325.062C131.943 326.703 130.712 327.523 129.276 326.498C127.84 325.677 126.609 323.626 126.609 321.78C126.609 320.139 127.84 319.318 129.276 320.344Z" fill="#025B72"></path> <path d="M133.789 323.831C133.789 323.626 133.789 323.626 133.789 323.831C133.789 323.626 133.789 323.626 133.789 323.626C133.789 323.626 133.789 323.626 133.789 323.421C133.789 323.421 133.789 323.421 133.789 323.216C133.789 323.216 133.789 323.216 133.789 323.011C133.789 323.011 133.789 323.011 133.789 322.806C133.789 322.806 133.789 322.806 133.789 322.6C133.789 322.6 133.789 322.6 133.789 322.395C133.789 322.395 133.789 322.395 133.789 322.19C133.789 322.19 133.789 322.19 133.789 321.985C133.789 321.985 133.789 321.985 133.789 321.78C133.789 321.78 133.789 321.78 133.789 321.575C133.789 321.575 133.789 321.575 133.789 321.37C133.789 321.37 133.789 321.37 133.789 321.165C133.789 321.165 133.789 321.165 133.789 320.959V320.754V320.549C133.789 320.344 133.583 320.344 133.583 320.139L133.378 319.934C133.378 319.934 133.378 319.729 133.173 319.729C133.173 319.729 133.173 319.729 132.968 319.524C132.968 319.524 132.968 319.524 132.763 319.319C132.763 319.319 132.763 319.319 132.558 319.113C132.558 319.113 132.558 319.113 132.353 318.908C132.353 318.908 132.353 318.908 132.148 318.703C132.148 318.703 132.148 318.703 131.943 318.498C131.943 318.498 131.943 318.498 131.737 318.498C131.737 318.498 131.737 318.498 131.532 318.498C131.532 318.498 131.532 318.498 131.327 318.498C131.327 318.498 131.327 318.498 131.122 318.498C131.122 318.498 131.122 318.498 130.917 318.498C130.917 318.498 130.917 318.498 130.712 318.498C130.712 318.498 130.712 318.498 130.507 318.498C130.507 318.498 130.507 318.498 130.302 318.498C130.302 318.498 130.302 318.498 130.096 318.498C130.096 318.498 130.096 318.498 129.891 318.498C129.891 318.498 129.891 318.498 129.686 318.498C129.686 318.498 129.686 318.498 129.481 318.498C129.481 318.498 129.481 318.498 129.276 318.498H129.071H128.866H128.661L126.815 319.524C127.02 319.524 127.02 319.319 127.225 319.319C127.43 319.319 127.43 319.319 127.635 319.319C127.84 319.319 128.045 319.319 128.045 319.524C128.25 319.524 128.456 319.729 128.661 319.729C128.866 319.934 129.071 319.934 129.276 320.139C129.481 320.344 129.686 320.344 129.686 320.549C130.096 320.959 130.302 321.37 130.507 321.78C130.712 321.985 130.712 322.19 130.917 322.395C130.917 322.6 131.122 322.806 131.122 323.011C131.122 323.216 131.327 323.421 131.327 323.626C131.327 323.831 131.327 324.036 131.327 324.241C131.327 324.446 131.327 324.652 131.327 324.857C131.327 325.062 131.327 325.267 131.122 325.267C131.122 325.472 130.917 325.472 130.917 325.677L130.712 325.882L132.558 324.857C132.763 324.857 132.763 324.652 132.763 324.652C132.763 324.652 132.763 324.652 132.763 324.447V324.241C132.763 324.241 132.763 324.241 132.763 324.036C132.763 324.036 132.763 324.036 132.763 323.831C132.763 323.831 132.763 323.831 132.763 323.626C132.763 323.626 132.763 323.626 132.763 323.421C132.763 323.421 132.763 323.421 132.763 323.216C132.763 323.216 132.763 323.216 132.763 323.011C133.789 324.036 133.789 323.831 133.789 323.831Z" fill="#015064"></path> <path d="M129.276 294.499C130.712 295.319 131.943 297.37 131.943 299.216C131.943 300.857 130.712 301.678 129.276 300.652C127.84 299.832 126.609 297.78 126.609 295.934C126.609 294.293 127.84 293.678 129.276 294.499Z" fill="#025B72"></path> <path d="M133.789 297.985C133.789 297.985 133.789 297.78 133.789 297.985C133.789 297.78 133.789 297.78 133.789 297.78C133.789 297.78 133.789 297.78 133.789 297.575C133.789 297.575 133.789 297.575 133.789 297.37C133.789 297.37 133.789 297.37 133.789 297.165C133.789 297.165 133.789 297.165 133.789 296.96C133.789 296.96 133.789 296.96 133.789 296.755C133.789 296.755 133.789 296.755 133.789 296.55C133.789 296.55 133.789 296.55 133.789 296.344C133.789 296.344 133.789 296.344 133.789 296.139C133.789 296.139 133.789 296.139 133.789 295.934C133.789 295.934 133.789 295.934 133.789 295.729C133.789 295.729 133.789 295.729 133.789 295.524C133.789 295.524 133.789 295.524 133.789 295.319C133.789 295.319 133.789 295.319 133.789 295.114V294.909V294.704C133.789 294.498 133.583 294.498 133.583 294.293L133.378 294.088C133.378 294.088 133.378 293.883 133.173 293.883C133.173 293.883 133.173 293.883 132.968 293.678C132.968 293.678 132.968 293.678 132.763 293.473C132.763 293.473 132.763 293.473 132.558 293.268C132.558 293.268 132.558 293.268 132.353 293.063C132.353 293.063 132.353 293.063 132.148 292.857C132.148 292.857 132.148 292.857 131.943 292.652C131.943 292.652 131.943 292.652 131.737 292.652C131.737 292.652 131.737 292.652 131.532 292.652C131.532 292.652 131.532 292.652 131.327 292.652C131.327 292.652 131.327 292.652 131.122 292.652C131.122 292.652 131.122 292.652 130.917 292.652C130.917 292.652 130.917 292.652 130.712 292.652C130.712 292.652 130.712 292.652 130.507 292.652C130.507 292.652 130.507 292.652 130.302 292.652C130.302 292.652 130.302 292.652 130.096 292.652C130.096 292.652 130.096 292.652 129.891 292.652C129.891 292.652 129.891 292.652 129.686 292.652C129.686 292.652 129.686 292.652 129.481 292.652C129.481 292.652 129.481 292.652 129.276 292.652H129.071H128.866H128.661L126.815 293.678C127.02 293.678 127.02 293.473 127.225 293.473C127.43 293.473 127.43 293.473 127.635 293.473C127.84 293.473 128.045 293.473 128.045 293.678C128.25 293.678 128.456 293.883 128.661 293.883C128.866 294.088 129.071 294.088 129.276 294.293C129.481 294.498 129.686 294.498 129.686 294.704C130.096 295.114 130.302 295.524 130.507 295.934C130.712 296.139 130.712 296.344 130.917 296.55C130.917 296.755 131.122 296.96 131.122 297.165C131.122 297.37 131.327 297.575 131.327 297.78C131.327 297.985 131.327 298.191 131.327 298.396C131.327 298.601 131.327 298.806 131.327 299.011C131.327 299.216 131.327 299.421 131.122 299.421C131.122 299.626 130.917 299.626 130.917 299.831L130.712 300.037L132.558 299.011C132.763 299.011 132.763 298.806 132.763 298.806C132.763 298.806 132.763 298.806 132.763 298.601V298.396C132.763 298.396 132.763 298.396 132.763 298.191C132.763 298.191 132.763 298.191 132.763 297.985C132.763 297.985 132.763 297.985 132.763 297.78C132.763 297.78 132.763 297.78 132.763 297.575C132.763 297.575 132.763 297.575 132.763 297.37C132.763 297.37 132.763 297.37 132.763 297.165C133.789 298.191 133.789 298.191 133.789 297.985Z" fill="#015064"></path> <path d="M172.351 320.139C173.787 320.959 175.018 323.011 175.018 324.857C175.018 326.498 173.787 327.318 172.351 326.292C170.915 325.472 169.684 323.421 169.684 321.575C169.684 319.934 170.915 319.113 172.351 320.139Z" fill="#025B72"></path> <path d="M176.658 323.626C176.658 323.421 176.658 323.421 176.658 323.626C176.658 323.421 176.658 323.421 176.658 323.421C176.658 323.421 176.658 323.421 176.658 323.216C176.658 323.216 176.658 323.216 176.658 323.011C176.658 323.011 176.658 323.011 176.658 322.806C176.658 322.806 176.658 322.806 176.658 322.6C176.658 322.395 176.658 322.6 176.658 322.395C176.658 322.395 176.658 322.395 176.658 322.19C176.658 322.19 176.658 322.19 176.658 321.985C176.658 321.985 176.658 321.985 176.658 321.78C176.658 321.78 176.658 321.78 176.658 321.575C176.658 321.575 176.658 321.575 176.658 321.37C176.658 321.37 176.658 321.37 176.658 321.165C176.658 321.165 176.658 321.165 176.658 320.959C176.658 320.959 176.658 320.96 176.658 320.754V320.549V320.344C176.658 320.139 176.453 320.139 176.453 319.934L176.248 319.729C176.248 319.729 176.248 319.524 176.043 319.524C176.043 319.524 176.043 319.524 175.838 319.319C175.838 319.319 175.838 319.319 175.633 319.113C175.633 319.113 175.633 319.113 175.428 318.908C175.428 318.908 175.428 318.908 175.223 318.703C175.223 318.703 175.223 318.703 175.018 318.498C175.018 318.498 175.018 318.498 174.812 318.293C174.812 318.293 174.812 318.293 174.607 318.293C174.607 318.293 174.607 318.293 174.402 318.293C174.402 318.293 174.402 318.293 174.197 318.293C174.197 318.293 174.197 318.293 173.992 318.293C173.992 318.293 173.992 318.293 173.787 318.293C173.787 318.293 173.787 318.293 173.582 318.293C173.582 318.293 173.582 318.293 173.377 318.293C173.377 318.293 173.377 318.293 173.171 318.293C173.171 318.293 173.171 318.293 172.966 318.293C172.966 318.293 172.966 318.293 172.761 318.293C172.761 318.293 172.761 318.293 172.556 318.293C172.556 318.293 172.556 318.293 172.351 318.293C172.351 318.293 172.351 318.293 172.146 318.293H171.941H171.736H171.531L169.684 319.319C169.89 319.319 169.89 319.113 170.095 319.113C170.3 319.113 170.3 319.113 170.505 319.113C170.71 319.113 170.915 319.113 170.915 319.319C171.12 319.319 171.325 319.524 171.531 319.524C171.736 319.729 171.941 319.729 172.146 319.934C172.351 320.139 172.556 320.139 172.556 320.344C172.966 320.754 173.171 321.165 173.377 321.575C173.582 321.78 173.582 321.985 173.787 322.19C173.787 322.395 173.992 322.6 173.992 322.806C173.992 323.011 174.197 323.216 174.197 323.421C174.197 323.626 174.197 323.831 174.197 324.036C174.197 324.241 174.197 324.447 174.197 324.652C174.197 324.857 174.197 325.062 173.992 325.062C173.992 325.267 173.787 325.267 173.787 325.472L173.582 325.677L175.428 324.652C175.633 324.652 175.633 324.447 175.633 324.447C175.633 324.447 175.633 324.447 175.633 324.241V324.036C175.633 324.036 175.633 324.036 175.633 323.831C175.633 323.831 175.633 323.831 175.633 323.626C175.633 323.626 175.633 323.626 175.633 323.421C175.633 323.421 175.633 323.421 175.633 323.216C175.633 323.216 175.633 323.216 175.633 323.011C175.633 323.011 175.633 323.011 175.633 322.806C176.658 323.831 176.658 323.626 176.658 323.626Z" fill="#015064"></path> <path d="M173.992 293.678V297.575L152.249 310.087V306.395L173.992 293.678Z" fill="#7F8386"></path> <path d="M146.711 306.395V310.087L124.763 297.575V293.678L146.711 306.395Z" fill="#47494B"></path> <path d="M173.992 318.908V322.6L171.325 324.241V320.549L173.992 318.908Z" fill="#7F8386"></path> <path d="M171.325 320.549V324.242L149.378 311.729V307.832L171.325 320.549Z" fill="#47494B"></path> <path d="M173.992 293.678L152.249 306.395L173.992 318.908L171.325 320.549L149.378 307.831L127.84 320.549L124.969 318.908L146.711 306.395L124.763 293.678L127.635 292.037L149.378 304.754L171.12 292.037L173.992 293.678Z" fill="#949A9C"></path> <path d="M149.378 307.832V311.729L127.84 324.242V320.549L149.378 307.832Z" fill="#7F8386"></path> <path d="M127.84 320.549V324.241L124.969 322.6V318.908L127.84 320.549Z" fill="#47494B"></path> <path d="M151.839 276.244L152.249 307.012L149.993 308.448L149.583 277.68L151.839 276.244Z" fill="#46494A"></path> <path d="M149.993 308.448L146.711 306.602L146.301 275.629L149.583 277.68L149.993 308.448Z" fill="#46494A"></path> <path d="M149.583 277.679L146.301 275.628L148.557 274.397L151.839 276.244L149.583 277.679Z" fill="#46494A"></path> <path d="M167.428 323.01C168.864 323.831 170.095 325.882 170.095 327.728C170.095 329.369 168.864 330.189 167.428 329.164C165.992 328.343 164.762 326.292 164.762 324.446C164.762 322.805 165.992 322.19 167.428 323.01Z" fill="#025B72"></path> <path d="M171.736 326.497C171.736 326.497 171.736 326.292 171.736 326.497C171.736 326.292 171.736 326.292 171.736 326.292C171.736 326.292 171.736 326.292 171.736 326.087C171.736 326.087 171.736 326.087 171.736 325.882C171.736 325.882 171.736 325.882 171.736 325.677C171.736 325.677 171.736 325.677 171.736 325.472C171.736 325.472 171.736 325.472 171.736 325.266C171.736 325.266 171.736 325.266 171.736 325.061C171.736 325.061 171.736 325.061 171.736 324.856C171.736 324.856 171.736 324.856 171.736 324.651C171.736 324.651 171.736 324.651 171.736 324.446C171.736 324.446 171.736 324.446 171.736 324.241C171.736 324.241 171.736 324.241 171.736 324.036C171.736 324.036 171.736 324.036 171.736 323.831C171.736 323.831 171.736 323.831 171.736 323.625V323.42V323.215C171.736 323.01 171.531 323.01 171.531 322.805L171.325 322.6C171.325 322.6 171.325 322.395 171.12 322.395C171.12 322.395 171.12 322.395 170.915 322.19C170.915 322.19 170.915 322.19 170.71 321.985C170.71 321.985 170.71 321.985 170.505 321.779C170.505 321.779 170.505 321.779 170.3 321.574C170.3 321.574 170.3 321.574 170.095 321.369C170.095 321.369 170.095 321.369 169.89 321.164C169.89 321.164 169.89 321.164 169.684 321.164C169.684 321.164 169.684 321.164 169.479 321.164C169.479 321.164 169.479 321.164 169.274 321.164C169.274 321.164 169.274 321.164 169.069 321.164C169.069 321.164 169.069 321.164 168.864 321.164C168.864 321.164 168.864 321.164 168.659 321.164C168.659 321.164 168.659 321.164 168.454 321.164C168.454 321.164 168.454 321.164 168.249 321.164C168.249 321.164 168.249 321.164 168.043 321.164C168.043 321.164 168.043 321.164 167.838 321.164C167.838 321.164 167.838 321.164 167.633 321.164C167.633 321.164 167.633 321.164 167.428 321.164C167.428 321.164 167.428 321.164 167.223 321.164H167.018H166.813H166.608L164.762 322.19C164.967 322.19 164.967 321.985 165.172 321.985C165.377 321.985 165.377 321.985 165.582 321.985C165.787 321.985 165.992 321.985 165.992 322.19C166.197 322.19 166.403 322.395 166.608 322.395C166.813 322.6 167.018 322.6 167.223 322.805C167.428 323.01 167.633 323.01 167.633 323.215C168.043 323.625 168.249 324.036 168.454 324.446C168.659 324.651 168.659 324.856 168.864 325.061C168.864 325.266 169.069 325.472 169.069 325.677C169.069 325.882 169.274 326.087 169.274 326.292C169.274 326.497 169.274 326.702 169.274 326.907C169.274 327.113 169.274 327.318 169.274 327.523C169.274 327.728 169.274 327.933 169.069 327.933C169.069 328.138 168.864 328.138 168.864 328.343L168.659 328.548L170.505 327.523C170.71 327.523 170.71 327.318 170.71 327.318C170.71 327.318 170.71 327.318 170.71 327.112V326.907C170.71 326.907 170.71 326.907 170.71 326.702C170.71 326.702 170.71 326.702 170.71 326.497C170.71 326.497 170.71 326.497 170.71 326.292C170.71 326.292 170.71 326.292 170.71 326.087C170.71 326.087 170.71 326.087 170.71 325.882C170.71 325.882 170.71 325.882 170.71 325.677C171.736 326.702 171.736 326.702 171.736 326.497C171.736 326.702 171.736 326.702 171.736 326.497Z" fill="#015064"></path> <path d="M124.353 323.215C125.789 324.036 127.02 326.087 127.02 327.933C127.02 329.574 125.789 330.395 124.353 329.369C122.917 328.548 121.687 326.497 121.687 324.651C121.687 323.01 122.917 322.395 124.353 323.215Z" fill="#025B72"></path> <path d="M128.866 326.702C128.866 326.497 128.866 326.497 128.866 326.497C128.866 326.497 128.866 326.497 128.866 326.292C128.866 326.292 128.866 326.292 128.866 326.087C128.866 326.087 128.866 326.087 128.866 325.882C128.866 325.882 128.866 325.882 128.866 325.677C128.866 325.677 128.866 325.677 128.866 325.472C128.866 325.472 128.866 325.472 128.866 325.266C128.866 325.266 128.866 325.266 128.866 325.061C128.866 325.061 128.866 325.061 128.866 324.856C128.866 324.856 128.866 324.856 128.866 324.651C128.866 324.651 128.866 324.651 128.866 324.446C128.866 324.446 128.866 324.446 128.866 324.241C128.866 324.241 128.866 324.241 128.866 324.036C128.866 324.036 128.866 324.036 128.866 323.831V323.625V323.42C128.866 323.215 128.661 323.215 128.661 323.01L128.456 322.805C128.456 322.805 128.456 322.6 128.25 322.6C128.25 322.6 128.25 322.6 128.045 322.395C128.045 322.395 128.045 322.395 127.84 322.19C127.84 322.19 127.84 322.19 127.635 321.984C127.635 321.984 127.635 321.984 127.43 321.779C127.43 321.779 127.43 321.779 127.225 321.574C127.225 321.574 127.225 321.574 127.02 321.369C127.02 321.369 127.02 321.369 126.815 321.369C126.815 321.369 126.815 321.369 126.609 321.369C126.609 321.369 126.609 321.369 126.404 321.369C126.404 321.369 126.404 321.369 126.199 321.369C126.199 321.369 126.199 321.369 125.994 321.369C125.994 321.369 125.994 321.369 125.789 321.369C125.789 321.369 125.789 321.369 125.584 321.369C125.584 321.369 125.584 321.369 125.379 321.369C125.379 321.369 125.379 321.369 125.174 321.369C125.174 321.369 125.174 321.369 124.969 321.369C124.969 321.369 124.968 321.369 124.763 321.369C124.763 321.369 124.763 321.369 124.558 321.369C124.558 321.369 124.558 321.369 124.353 321.369H124.148H123.943H123.738L121.892 322.395C122.097 322.395 122.097 322.19 122.302 322.19C122.507 322.19 122.507 322.19 122.712 322.19C122.917 322.19 123.122 322.19 123.122 322.395C123.328 322.395 123.533 322.6 123.738 322.6C123.943 322.805 124.148 322.805 124.353 323.01C124.558 323.215 124.763 323.215 124.763 323.42C125.174 323.831 125.379 324.241 125.584 324.651C125.789 324.856 125.789 325.061 125.994 325.266C125.994 325.472 126.199 325.677 126.199 325.882C126.199 326.087 126.404 326.292 126.404 326.497C126.404 326.702 126.404 326.907 126.404 327.112C126.404 327.318 126.404 327.523 126.404 327.728C126.404 327.933 126.404 328.138 126.199 328.138C126.199 328.343 125.994 328.343 125.994 328.548L125.789 328.753L127.635 327.728C127.84 327.728 127.84 327.523 127.84 327.523C127.84 327.523 127.84 327.523 127.84 327.318V327.112C127.84 327.112 127.84 327.112 127.84 326.907C127.84 326.907 127.84 326.907 127.84 326.702C127.84 326.702 127.84 326.702 127.84 326.497C127.84 326.497 127.84 326.497 127.84 326.292C127.84 326.292 127.84 326.292 127.84 326.087C127.84 326.087 127.84 326.087 127.84 325.882C128.866 326.907 128.866 326.907 128.866 326.702C128.866 326.907 128.866 326.907 128.866 326.702Z" fill="#015064"></path> <path d="M124.353 297.372C125.789 298.192 127.02 300.243 127.02 302.089C127.02 303.935 125.789 304.551 124.353 303.525C122.917 302.705 121.687 300.654 121.687 298.807C121.687 297.167 122.917 296.551 124.353 297.372Z" fill="#025B72"></path> <path d="M128.866 300.858C128.866 300.653 128.866 300.653 128.866 300.653C128.866 300.653 128.866 300.653 128.866 300.448C128.866 300.448 128.866 300.448 128.866 300.243C128.866 300.243 128.866 300.243 128.866 300.038C128.866 300.038 128.866 300.038 128.866 299.833C128.866 299.833 128.866 299.833 128.866 299.628C128.866 299.628 128.866 299.628 128.866 299.423C128.866 299.423 128.866 299.423 128.866 299.218C128.866 299.218 128.866 299.218 128.866 299.012C128.866 299.012 128.866 299.012 128.866 298.807C128.866 298.807 128.866 298.807 128.866 298.602C128.866 298.602 128.866 298.602 128.866 298.397C128.866 298.397 128.866 298.397 128.866 298.192C128.866 298.192 128.866 298.192 128.866 297.987V297.782V297.577C128.866 297.371 128.661 297.371 128.661 297.166L128.456 296.961C128.456 296.961 128.456 296.756 128.25 296.756C128.25 296.756 128.25 296.756 128.045 296.551C128.045 296.551 128.045 296.551 127.84 296.346C127.84 296.346 127.84 296.346 127.635 296.141C127.635 296.141 127.635 296.141 127.43 295.936C127.43 295.936 127.43 295.936 127.225 295.731C127.225 295.731 127.225 295.731 127.02 295.525C127.02 295.525 127.02 295.525 126.815 295.525C126.815 295.525 126.815 295.525 126.609 295.525C126.609 295.525 126.609 295.525 126.404 295.525C126.404 295.525 126.404 295.525 126.199 295.525C126.199 295.525 126.199 295.525 125.994 295.525C125.994 295.525 125.994 295.525 125.789 295.525C125.789 295.525 125.789 295.525 125.584 295.525C125.584 295.525 125.584 295.525 125.379 295.525C125.379 295.525 125.379 295.525 125.174 295.525C125.174 295.525 125.174 295.525 124.969 295.525C124.969 295.525 124.968 295.525 124.763 295.525C124.763 295.525 124.763 295.525 124.558 295.525C124.558 295.525 124.558 295.525 124.353 295.525H124.148H123.943H123.738L121.892 296.551C122.097 296.551 122.097 296.346 122.302 296.346C122.507 296.346 122.507 296.346 122.712 296.346C122.917 296.346 123.122 296.346 123.122 296.551C123.328 296.551 123.533 296.756 123.738 296.756C123.943 296.961 124.148 296.961 124.353 297.166C124.558 297.371 124.763 297.371 124.763 297.577C125.174 297.987 125.379 298.397 125.584 298.807C125.789 299.012 125.789 299.218 125.994 299.423C125.994 299.628 126.199 299.833 126.199 300.038C126.199 300.243 126.404 300.448 126.404 300.653C126.404 300.858 126.404 301.064 126.404 301.269C126.404 301.474 126.404 301.679 126.404 301.884C126.404 302.089 126.404 302.294 126.199 302.294C126.199 302.499 125.994 302.499 125.994 302.705L125.789 302.91L127.635 301.884C127.84 301.884 127.84 301.679 127.84 301.679C127.84 301.679 127.84 301.679 127.84 301.474V301.269C127.84 301.269 127.84 301.269 127.84 301.064C127.84 301.064 127.84 301.064 127.84 300.858C127.84 300.858 127.84 300.858 127.84 300.653C127.84 300.653 127.84 300.653 127.84 300.448C127.84 300.448 127.84 300.448 127.84 300.243C127.84 300.243 127.84 300.243 127.84 300.038C128.866 301.064 128.866 301.064 128.866 300.858C128.866 301.064 128.866 301.064 128.866 300.858C128.866 301.064 128.866 300.858 128.866 300.858Z" fill="#015064"></path> <path d="M186.299 239.733L178.505 286.09C178.505 286.09 190.196 299.012 194.299 296.961L199.016 245.887C199.016 245.887 193.068 238.913 186.299 239.733Z" fill="#303333"></path> <path d="M186.299 268.449L186.094 274.398L149.583 295.525V289.576L186.299 268.449Z" fill="#175E5C"></path> <path d="M149.583 289.576V295.525L112.867 274.398V268.449L149.583 289.576Z" fill="#175E5C"></path> <path d="M186.299 268.45L149.583 289.577L112.867 268.45L149.378 247.117L186.299 268.45Z" fill="#228985"></path> <path d="M137.686 251.424C137.686 251.424 135.84 257.783 135.84 263.731C135.84 270.295 147.327 274.192 149.378 272.961C151.224 271.731 190.401 239.527 194.094 236.86C194.299 236.655 194.504 236.655 194.504 236.45C196.145 234.604 195.324 231.938 193.068 231.117C190.607 230.297 187.735 230.092 185.889 230.297C185.684 230.297 185.479 230.502 185.068 230.502L137.686 251.424Z" fill="#3E4242"></path> <path d="M145.48 256.757C145.48 256.757 143.634 268.859 146.506 272.962C151.429 279.936 160.044 276.449 165.992 274.603C171.941 272.756 193.273 256.962 193.273 256.962L192.658 296.755C192.658 296.755 199.427 300.242 206.196 296.55C206.196 296.55 209.272 255.321 210.093 250.809C210.913 246.091 200.657 231.733 193.273 231.322C179.53 230.912 157.377 255.321 154.301 255.321C151.019 255.116 145.07 255.116 145.48 256.757Z" fill="#3E4242"></path> <path d="M126.199 189.273C126.199 189.273 123.533 198.299 124.353 204.452C124.969 210.401 126.61 218.811 128.661 226.4C130.712 233.784 135.225 242.809 135.225 242.809L140.558 211.836L132.763 195.837L126.199 189.273Z" fill="#E5ECF0"></path> <path d="M152.249 161.582C152.249 161.582 155.326 166.71 156.967 181.068C156.967 181.068 154.916 182.709 151.429 181.684C151.429 181.684 150.198 182.914 150.608 186.607C150.608 186.607 144.66 190.504 140.147 185.991C140.147 185.991 140.558 184.555 138.711 182.299C136.66 180.043 132.353 178.197 131.532 170.402C130.507 162.813 133.994 157.89 139.327 157.069C144.455 156.249 149.583 155.839 152.249 161.582Z" fill="#FCCC8A"></path> <path d="M150.608 186.607C150.608 186.607 153.48 186.812 155.121 190.504C155.121 190.504 151.839 193.375 146.096 192.555C140.352 191.735 137.891 189.068 137.891 189.068C137.891 189.068 136.66 188.042 140.147 185.991C140.147 185.991 142.404 189.888 150.608 186.607Z" fill="#228985"></path> <path d="M130.302 184.966C136.455 182.094 140.147 185.991 140.147 185.991C136.455 188.248 137.891 189.068 137.891 189.068C137.891 189.068 140.352 191.735 146.096 192.555C151.839 193.376 155.121 190.504 155.121 190.504C162.3 193.171 163.736 203.221 164.762 213.888C165.992 224.554 168.864 235.425 171.941 245.271C173.377 249.988 174.402 253.065 174.402 253.065L169.274 257.783C145.686 261.885 135.84 251.219 135.84 251.219L135.019 246.296C134.404 232.758 130.097 215.734 127.43 206.503C124.969 197.478 124.148 187.837 130.302 184.966Z" fill="#ECF3F7"></path> <path d="M168.659 254.091C168.659 254.091 167.633 256.347 166.197 246.296C164.967 236.245 160.249 225.579 159.018 214.913C157.993 205.272 156.762 196.042 151.224 192.35C153.685 191.735 155.121 190.504 155.121 190.504C162.3 193.17 163.736 203.221 164.762 213.887C165.992 224.554 170.505 235.015 171.941 245.271C173.171 255.321 174.402 253.065 174.402 253.065L169.274 257.783C167.428 258.193 165.582 258.398 163.736 258.398L168.659 254.091Z" fill="#E5ECF0"></path> <path d="M197.581 193.171L192.248 212.042C191.222 215.734 186.914 217.17 183.838 214.914L183.222 214.504C181.171 213.068 180.351 210.196 181.376 207.94L189.581 188.864C189.581 188.864 195.94 187.223 197.581 193.171Z" fill="#E5ECF0"></path> <path d="M179.735 204.452C179.735 204.452 167.428 197.889 162.915 196.248C158.403 194.402 153.685 195.427 153.275 199.94C152.865 204.452 158.813 208.555 165.992 211.426C173.171 214.298 186.709 223.733 190.196 216.144C192.863 209.785 179.735 204.452 179.735 204.452Z" fill="#ECF3F7"></path> <path d="M189.581 188.863C189.581 188.863 188.76 186.197 189.581 184.556C190.401 182.915 190.606 181.274 189.991 179.223C189.581 177.377 192.042 178.197 193.068 180.453C193.888 182.71 194.504 182.299 194.914 181.889C195.324 181.479 195.734 174.505 195.734 174.505C195.734 174.505 199.221 177.171 199.427 180.453C199.837 183.735 196.965 190.914 196.965 190.914L189.581 188.863Z" fill="#FCCC8A"></path> <path d="M153.07 159.736C153.07 159.736 153.685 165.069 151.224 168.351C148.762 171.633 146.301 172.453 146.301 172.453C146.301 172.453 143.019 170.197 142.404 172.248C141.993 174.299 141.993 177.171 144.66 176.966C144.66 176.966 144.25 181.889 143.224 182.709C142.198 183.53 139.122 183.94 135.84 182.094C132.558 180.248 125.789 171.633 125.584 168.146C125.584 164.454 126.199 157.48 130.302 155.634C134.404 153.993 151.019 153.993 153.07 159.736Z" fill="#422411"></path> <path opacity="0.2" d="M127.43 158.916C125.994 161.788 125.584 165.89 125.584 168.351C125.584 170.403 127.635 173.685 130.096 176.761C131.327 175.736 131.327 172.454 132.148 168.967C133.173 165.275 130.712 161.172 127.43 158.916Z" fill="black"></path> <path d="M118.61 158.095C118.61 158.095 121.687 156.044 125.379 158.095C129.071 160.146 131.737 164.864 130.712 168.967C129.686 173.069 129.891 177.581 127.84 176.966C125.584 176.351 121.687 174.505 120.251 172.454C119.02 170.197 115.943 161.787 118.61 158.095Z" fill="#422411"></path> <path d="M137.276 206.093L124.763 198.914C122.097 197.273 119.635 197.273 117.789 198.298L109.995 202.811C111.841 201.786 114.302 201.991 116.969 203.426L129.481 210.606C134.814 213.682 139.327 221.272 139.327 227.63V259.629C139.327 262.706 138.301 264.962 136.455 265.988L144.25 261.475C146.096 260.449 147.121 258.193 147.121 255.116V223.118C147.121 216.759 142.814 209.17 137.276 206.093Z" fill="#228985"></path> <path d="M129.481 210.606C134.814 213.682 139.327 221.272 139.327 227.63V259.629C139.327 265.782 134.814 268.449 129.481 265.167L116.969 257.988C111.636 254.911 107.123 247.322 107.123 240.963V208.965C107.123 202.811 111.636 200.145 116.969 203.426L129.481 210.606Z" fill="#175E5C"></path> <path d="M149.583 297.781C148.967 297.781 148.147 297.371 147.737 296.756C147.121 295.73 147.532 294.499 148.557 293.884L184.043 273.167V259.014C184.043 257.783 183.427 256.552 182.197 255.937C180.966 255.322 179.735 255.322 178.505 255.937L150.403 272.141C149.378 272.757 148.147 272.346 147.532 271.321C146.916 270.295 147.326 269.065 148.352 268.449L176.453 252.245C178.915 250.809 181.786 250.809 184.248 252.245C186.709 253.681 188.145 256.142 188.145 259.014V274.193C188.145 275.013 187.735 275.628 187.12 276.039L150.608 297.371C150.403 297.576 149.993 297.781 149.583 297.781Z" fill="#949A9C"></path> <path d="M127.635 284.037C127.02 284.037 126.61 283.832 126.199 283.627C117.789 278.704 112.456 272.346 110.405 264.346C106.713 249.783 115.533 235.629 115.943 235.014C116.764 233.578 118.815 233.168 120.251 233.988C121.687 234.809 122.097 236.86 121.276 238.296C121.276 238.501 113.482 250.808 116.559 262.91C118.2 269.269 122.507 274.397 129.276 278.294C130.712 279.115 131.327 280.961 130.507 282.396C129.686 283.422 128.661 284.037 127.635 284.037Z" fill="#949A9C"></path> <path d="M254.604 238.296L299.114 212.246V225.989L254.398 251.834L254.604 238.296Z" fill="#369DD6"></path> <path d="M254.604 238.296L299.114 212.246V225.989L254.398 251.834L254.604 238.296Z" fill="#916A5A"></path> <path d="M542.59 144.968L305.678 8.15347C287.012 -2.71782 264.039 -2.71782 245.373 8.15347L8.46114 144.968C-2.82038 151.531 -2.82038 167.736 8.46114 174.094L245.373 310.909C264.039 321.78 287.012 321.78 305.678 310.909L542.59 174.094C553.667 167.736 553.667 151.531 542.59 144.968ZM530.488 173.479L304.447 303.935C286.602 314.191 264.654 314.191 246.809 303.935L20.5631 173.479C9.89697 167.326 9.89697 151.737 20.5631 145.583L246.604 15.1275C264.449 4.87157 286.397 4.87157 304.242 15.1275L530.283 145.583C541.154 151.737 541.154 167.326 530.488 173.479Z" fill="white"></path> <path d="M8.46113 263.937L245.373 400.751C264.039 411.622 287.012 411.622 305.678 400.751L542.59 263.937C548.128 260.655 551 255.117 551 249.373V159.531C551 165.275 548.128 170.813 542.59 174.095L305.678 310.909C287.012 321.78 264.039 321.78 245.373 310.909L8.46113 174.095C6.20483 172.864 4.35876 171.018 3.12805 169.172L0.0512695 161.788V249.578C0.0512695 255.117 2.92293 260.86 8.46113 263.937Z" fill="url(#paint0_linear)"></path> <path d="M163.121 300.243L22.4092 219.016L22.2041 235.63L163.121 317.267V300.243Z" fill="#D6C5CB"></path> <path d="M217.477 325.472L189.376 309.268V337.984L217.477 354.189V325.472Z" fill="#F97479"></path> <path d="M220.144 326.908V355.83L248.245 372.034V343.113L220.144 326.908Z" fill="#2C9AE5"></path> <defs> <linearGradient id="paint0_linear" x1="0.0513831" y1="284.196" x2="550.931" y2="284.196" gradientUnits="userSpaceOnUse"> <stop offset="0.245" stop-color="#FEF0F2"></stop> <stop offset="0.3397" stop-color="#FEEBED"></stop> <stop offset="0.4566" stop-color="#FFDCE0"></stop> <stop offset="0.5" stop-color="#FFD4DA"></stop> <stop offset="0.52" stop-color="#FFD0D5"></stop> <stop offset="0.596" stop-color="#FFC6CA"></stop> <stop offset="0.7029" stop-color="#FFC1C3"></stop> <stop offset="1" stop-color="#FFBFC1"></stop> </linearGradient> </defs> </svg> 