<?xml version="1.0" encoding="UTF-8"?> <svg xmlns="http://www.w3.org/2000/svg" width="551" height="422" viewBox="0 0 551 422" fill="none"> <path d="M530.488 158.617L304.242 28.1312C286.397 17.8729 264.449 17.8729 246.604 28.1312L20.5631 158.617C9.89693 164.772 9.89693 180.365 20.5631 186.52L61.3817 210.114L250.296 101.17C265.885 92.1432 284.961 92.1432 300.55 101.17L489.465 210.114L530.283 186.52C541.154 180.365 541.154 164.772 530.488 158.617Z" fill="#AFB5D4"></path> <path d="M250.296 101.17L53.3823 214.832C43.9468 220.166 43.9468 233.707 53.3823 239.042L250.296 352.704C265.885 361.731 284.961 361.731 300.55 352.704L497.464 239.042C506.9 233.707 506.9 220.166 497.464 214.832L300.55 101.17C284.961 92.1426 265.885 92.1426 250.296 101.17Z" fill="#9292B7"></path> <path d="M542.59 158.001L305.678 21.1554C287.012 10.2815 264.039 10.2815 245.373 21.1554L8.46115 158.001C-2.82038 164.567 -2.82038 180.775 8.46115 187.135L245.373 323.981C264.039 334.855 287.012 334.855 305.678 323.981L542.59 187.135C553.667 180.775 553.667 164.567 542.59 158.001ZM530.488 186.519L304.447 317.005C286.602 327.264 264.654 327.264 246.809 317.005L20.5632 186.519C9.89698 180.364 9.89698 164.772 20.5632 158.617L246.604 28.131C264.449 17.8727 286.397 17.8727 304.242 28.131L530.283 158.617C541.154 164.772 541.154 180.364 530.488 186.519Z" fill="white"></path> <path d="M152.756 150.879H184.163V87.1391H152.756V150.879Z" fill="#0983A0"></path> <path d="M175.805 59.5518C175.805 59.5518 175.069 70.8723 175.805 73.5794C176.296 75.5482 201.814 86.6227 201.814 86.6227L203.532 79.978C203.532 79.978 200.097 78.2553 197.398 77.0248C194.699 75.7943 187.828 71.1184 184.639 70.134L185.62 60.2901L175.805 59.5518Z" fill="#FCCC8A"></path> <path d="M187.583 64.2291C187.583 54.1391 187.829 46.0178 187.829 44.2951C187.829 38.8809 185.13 27.5603 178.014 34.6972C178.014 34.6972 176.051 54.1391 175.56 62.7526L187.583 64.2291Z" fill="#008BA9"></path> <path d="M163.537 33.7097C163.537 33.7097 155.44 37.1551 152.741 38.6317C150.287 40.1083 147.343 97.4494 147.343 97.4494C147.343 97.4494 151.514 103.602 163.537 103.356C175.56 103.11 185.375 87.6054 185.375 87.6054L182.922 32.7253C182.922 32.7253 178.259 30.5104 163.537 33.7097Z" fill="#008BA9"></path> <path d="M188.319 12.7922C188.319 12.7922 188.319 16.9759 186.602 20.6674C186.602 20.6674 185.866 25.8355 184.148 28.5426C182.43 31.2497 179.731 32.9724 177.032 31.7419C177.032 31.7419 176.051 32.4802 176.296 36.6639C176.541 40.8476 176.051 47.0001 176.051 47.0001L163.782 33.9568L168.199 26.3277C168.199 26.3277 165.009 22.144 164.764 16.9759C164.518 11.8078 167.217 1.96387 172.861 1.96387C178.75 1.96387 188.319 5.40926 188.319 12.7922Z" fill="#FCCC8A"></path> <path d="M188.319 12.0541C188.319 12.0541 183.657 10.8236 181.694 13.7768C179.731 16.9761 173.597 16.4839 169.671 13.5307C169.671 13.5307 165.99 19.4371 167.953 26.3279C167.953 26.3279 164.273 25.0974 164.518 13.0385C164.763 0.733529 175.069 -5.41896 189.301 6.14772C189.301 5.90162 192 8.60871 188.319 12.0541Z" fill="#3F3F3D"></path> <path d="M171.144 27.5596C173.352 30.7589 177.032 31.7433 177.032 31.7433C177.032 31.7433 176.051 32.4816 176.296 36.6652C176.542 40.8489 176.051 47.0014 176.051 47.0014C176.051 47.0014 175.069 36.4192 173.843 34.4504C172.616 32.2355 171.144 27.5596 171.144 27.5596Z" fill="#EDAC78"></path> <path d="M172.125 13.5303C172.125 13.5303 171.635 17.9601 171.635 19.1906C171.635 19.1906 171.144 16.4835 169.672 17.2218C167.954 17.9601 168.445 21.8977 170.899 22.3899L168.445 26.3275L166.482 20.4211V14.5147L168.445 11.0693L172.125 13.5303Z" fill="#3F3F3D"></path> <path d="M160.593 48.7217L154.949 102.125C149.551 100.403 147.343 97.4494 147.343 97.4494C147.343 97.4494 148.079 83.6678 149.06 69.6401C150.042 66.4408 150.778 63.7337 151.023 63.4876C151.759 62.9955 160.593 48.7217 160.593 48.7217Z" fill="#0D809C"></path> <path d="M145.87 63.7354C145.87 63.7354 143.171 74.8098 143.417 77.5169C143.417 79.4857 166.972 94.7439 166.972 94.7439L169.917 88.5914C169.917 88.5914 166.727 86.1304 164.273 84.6538C161.819 82.9311 155.931 77.0247 152.986 75.5481L155.685 65.9502L145.87 63.7354Z" fill="#FCCC8A"></path> <path d="M156.667 70.1342C158.385 60.2902 159.857 52.1689 160.347 50.4462C161.329 45.032 160.593 33.4654 152.25 39.1256C152.25 39.1256 146.852 57.8292 144.889 66.4427L156.667 70.1342Z" fill="#008BA9"></path> <path d="M225.616 128.46L224.389 127.722L224.144 91.5449L225.37 92.2832L225.616 128.46Z" fill="#737C81"></path> <path d="M225.37 57.8281L224.144 57.0899C224.389 57.0899 224.389 56.8438 224.634 56.8438L225.861 57.582C225.861 57.8281 225.616 57.8281 225.37 57.8281Z" fill="#ADBAC1"></path> <path d="M225.861 57.583L224.634 56.8447C224.879 56.8447 224.879 56.8447 225.125 56.5986L226.351 57.3369C226.106 57.583 226.106 57.583 225.861 57.583Z" fill="#A8B5BC"></path> <path d="M226.351 57.582L225.125 56.8438H225.37L226.597 57.582H226.351Z" fill="#A4B0B7"></path> <path d="M226.597 57.582L225.37 56.8438H225.615L226.842 57.582C226.842 57.3359 226.842 57.3359 226.597 57.582Z" fill="#A0ACB2"></path> <path d="M226.843 57.3369L225.616 56.5986H225.861L226.843 57.3369C227.088 57.3369 227.088 57.3369 226.843 57.3369Z" fill="#9CA7AE"></path> <path d="M227.088 57.3369L225.861 56.5986H226.106L227.088 57.3369C227.333 57.3369 227.333 57.3369 227.088 57.3369Z" fill="#97A2A9"></path> <path d="M227.333 57.582L226.106 56.8438H226.352L227.333 57.582C227.579 57.582 227.333 57.582 227.333 57.582Z" fill="#939EA4"></path> <path d="M227.578 57.582L226.352 56.8438H226.597L227.578 57.582Z" fill="#8F999F"></path> <path d="M227.824 57.582L226.597 56.8438C226.597 56.8438 226.597 56.8438 226.843 56.8438L227.824 57.582Z" fill="#8A949A"></path> <path d="M227.824 57.582L226.597 56.8438L227.824 57.582Z" fill="#869095"></path> <path d="M225.37 57.829C227.333 56.5985 228.805 57.5829 228.805 59.7978L229.051 126.245L225.37 128.213V92.0368L147.588 137.319V163.16L144.398 165.128L144.152 109.018C144.152 106.803 145.625 104.096 147.588 102.865L225.37 57.829Z" fill="#A7B3BA"></path> <path d="M144.153 108.033C144.153 107.787 144.153 107.541 144.398 107.295C144.398 107.049 144.644 106.803 144.644 106.557C144.644 106.311 144.889 106.065 145.134 105.819C145.38 105.572 145.38 105.326 145.625 105.08C145.87 104.834 145.87 104.588 146.116 104.588C146.116 104.588 146.116 104.588 146.116 104.342L146.361 104.096C146.607 103.85 147.097 103.604 147.343 103.358L225.371 57.8291L224.144 57.0908L146.361 102.127C145.87 102.373 145.625 102.619 145.38 102.865C145.38 102.865 145.38 102.865 145.134 103.111C145.134 103.111 145.134 103.111 145.134 103.358C145.134 103.358 145.134 103.358 144.889 103.604L144.644 103.85C144.644 103.85 144.644 103.85 144.644 104.096L144.398 104.342C144.398 104.342 144.398 104.588 144.153 104.588C144.153 104.588 144.153 104.834 143.908 104.834C143.908 104.834 143.908 105.08 143.662 105.08C143.662 105.08 143.662 105.326 143.417 105.326C143.417 105.326 143.417 105.572 143.171 105.572V105.819C143.171 105.819 143.171 105.819 143.171 106.065C143.171 106.311 143.171 106.311 143.171 106.557V106.803C143.171 106.803 143.171 106.803 143.171 107.049C143.171 107.295 143.171 107.541 143.171 107.787L143.417 163.898L144.644 164.636L144.398 108.526C144.153 108.772 144.153 108.526 144.153 108.033C144.153 108.28 144.153 108.033 144.153 108.033Z" fill="#C9D3E0"></path> <path d="M362.533 333.951L367.686 299.989C367.931 299.743 368.177 299.743 368.422 299.743L363.269 302.696C363.024 302.696 362.779 333.705 362.533 333.951Z" fill="#70797D"></path> <path d="M363.27 302.696L368.422 299.743C368.668 299.743 368.668 299.743 368.913 299.497L363.76 302.45C363.76 302.696 363.515 302.696 363.27 302.696Z" fill="#757D82"></path> <path d="M383.636 346.993C383.636 346.747 383.636 346.747 383.636 346.501C383.636 346.255 383.636 346.255 383.636 346.009V345.763C383.636 345.517 383.636 345.517 383.636 345.271C383.636 345.025 383.636 345.025 383.636 344.779V344.532C383.636 344.286 383.636 344.286 383.636 344.04C383.636 343.794 383.636 343.794 383.39 343.548C383.39 343.302 383.39 343.302 383.39 343.056C383.39 342.81 383.39 342.81 383.145 342.564C383.145 342.317 383.145 342.318 382.899 342.071C382.899 341.825 382.899 341.825 382.654 341.579C382.654 341.333 382.654 341.333 382.409 341.087C382.409 340.841 382.163 340.841 382.163 340.595C382.163 340.595 382.163 340.349 381.918 340.349C381.918 340.103 381.673 340.103 381.673 339.857C381.673 339.61 381.427 339.61 381.427 339.364C381.182 339.118 381.182 338.872 380.937 338.626L380.691 338.38C380.691 338.134 380.446 337.888 380.2 337.888L379.955 337.642C379.71 337.396 379.71 337.149 379.464 337.149L374.312 340.103C374.557 340.349 374.802 340.841 375.048 341.087C375.293 341.333 375.293 341.579 375.538 341.579C375.784 341.825 376.029 342.317 376.029 342.564C376.274 343.056 376.52 343.548 376.765 343.794C377.011 344.286 377.256 344.779 377.256 345.271C377.501 345.763 377.501 346.255 377.747 346.747C377.992 347.239 377.992 347.732 377.992 348.224C377.992 348.716 378.237 349.208 378.237 349.701C378.237 350.193 378.237 350.685 378.237 351.177C378.237 351.915 378.237 352.654 377.992 353.146C377.992 353.638 377.747 354.376 377.501 354.869C377.256 355.361 377.011 355.607 376.765 355.853L376.52 356.099C376.274 356.345 375.784 356.591 375.538 356.837L380.691 353.884C381.182 353.638 381.427 353.392 381.673 353.146L381.918 352.9C381.918 352.654 382.163 352.654 382.163 352.408C382.409 352.161 382.409 351.915 382.409 351.669C382.409 351.423 382.654 351.423 382.654 351.177C382.654 350.931 382.654 350.931 382.899 350.685C382.899 350.439 382.899 350.439 382.899 350.193V349.947V349.701C382.899 349.454 382.899 349.454 382.899 349.208C382.899 348.962 382.899 348.962 382.899 348.716C382.899 348.47 382.899 348.47 382.899 348.224C382.899 347.978 382.899 347.978 382.899 347.732C383.636 347.486 383.636 347.239 383.636 346.993Z" fill="#B8CED9"></path> <path d="M374.556 293.345V339.612C377.01 342.811 378.482 346.995 378.482 350.686C378.482 356.592 374.311 358.807 369.158 355.854C364.006 352.901 360.08 345.764 360.08 339.858C360.08 336.166 361.552 302.943 364.006 302.451V287.192L374.556 293.345Z" fill="#D9EBF3"></path> <path d="M374.556 293.347L379.709 290.147V336.414L374.311 339.613L374.556 293.347Z" fill="#C4DFEC"></path> <path d="M364.006 287.191L369.159 284.238L379.71 290.145L374.557 293.344L364.006 287.191Z" fill="#BAC8D0"></path> <path d="M364.742 347.488C369.158 349.949 372.594 356.101 372.594 361.269C372.594 366.437 368.913 368.406 364.496 365.945C360.08 363.484 356.645 357.332 356.645 352.164C356.645 346.995 360.325 344.78 364.742 347.488Z" fill="#025B72"></path> <path d="M377.746 357.824C377.746 357.577 377.746 357.577 377.746 357.331C377.746 357.085 377.746 357.085 377.746 356.839C377.746 356.593 377.746 356.593 377.746 356.347C377.746 356.101 377.746 356.101 377.746 355.855C377.746 355.609 377.746 355.609 377.746 355.363C377.746 355.116 377.746 355.116 377.746 354.87C377.746 354.624 377.746 354.624 377.746 354.378C377.746 354.132 377.746 354.132 377.746 353.886V353.64C377.746 353.394 377.746 353.394 377.501 353.148C377.501 352.902 377.501 352.902 377.255 352.656C377.255 352.409 377.255 352.409 377.01 352.163C377.01 351.917 377.01 351.917 376.765 351.671C376.765 351.671 376.765 351.425 376.519 351.425C376.519 351.179 376.519 351.179 376.274 350.933C376.274 350.687 376.028 350.687 376.028 350.441C376.028 350.195 375.783 350.195 375.783 349.948C375.783 349.702 375.538 349.702 375.538 349.456C375.292 349.21 375.047 348.718 375.047 348.472C374.802 348.226 374.802 347.98 374.556 347.734C374.556 347.487 374.311 347.487 374.311 347.241C374.311 346.995 374.065 346.995 374.065 346.749L373.82 346.503L373.575 346.257L373.329 346.011L373.084 345.765L372.839 345.519L372.593 345.273C372.593 345.273 372.593 345.273 372.348 345.026C372.348 345.026 372.348 345.026 372.102 345.026L371.857 344.78L371.612 344.534L371.366 344.288L371.121 344.042C371.121 344.042 370.876 344.042 370.876 343.796C370.876 343.796 370.63 343.796 370.63 343.55C370.63 343.55 370.385 343.55 370.385 343.304C370.385 343.304 370.14 343.304 370.14 343.058H369.894H369.649H369.403H369.158H368.913H368.667C368.422 343.058 368.422 343.058 368.177 343.058C367.931 343.058 367.931 343.058 367.686 343.058C367.44 343.058 367.44 343.058 367.195 343.058C366.95 343.058 366.95 343.058 366.704 343.304C366.459 343.304 366.214 343.55 365.968 343.55L360.815 346.503C361.061 346.257 361.552 346.257 362.042 346.011C362.533 346.011 363.024 346.011 363.269 346.011C363.76 346.011 364.251 346.257 364.741 346.257C365.232 346.503 365.723 346.749 366.459 346.995C366.95 347.241 367.44 347.734 367.931 347.98C368.422 348.472 368.913 348.964 369.403 349.456C370.385 350.441 371.121 351.671 371.857 352.902C372.102 353.394 372.593 354.132 372.839 354.87C373.084 355.609 373.329 356.101 373.575 356.839C373.82 357.578 373.82 358.07 374.065 358.808C374.065 359.546 374.311 360.039 374.311 360.777C374.311 361.515 374.311 362.007 374.065 362.5C374.065 362.992 373.82 363.484 373.575 363.976C373.329 364.222 373.084 364.714 373.084 364.96L372.839 365.207C372.593 365.453 372.348 365.699 371.857 365.945L377.01 362.992C377.255 362.746 377.501 362.499 377.991 362.253L378.237 362.007L378.482 361.761C378.482 361.515 378.727 361.515 378.727 361.269C378.727 361.023 378.727 361.023 378.973 360.777C378.973 360.531 378.973 360.531 379.218 360.285C379.218 360.038 379.218 360.038 379.218 359.792C379.218 359.792 379.218 359.792 379.218 359.546C379.218 359.546 379.218 359.546 379.218 359.3C379.218 359.054 379.218 359.054 379.218 358.808C379.218 358.562 379.218 358.562 379.218 358.316C379.218 358.07 379.218 358.07 379.218 357.824C379.218 357.577 379.218 357.577 379.218 357.331C377.746 358.07 377.746 357.824 377.746 357.824Z" fill="#015064"></path> <path d="M351.737 338.136L356.89 335.183C357.135 334.937 357.38 334.937 357.626 334.937L352.473 337.89C352.228 337.89 351.982 338.136 351.737 338.136Z" fill="#70797D"></path> <path d="M352.473 337.891L357.626 334.938C357.871 334.938 357.871 334.938 358.117 334.691L352.964 337.645C352.964 337.645 352.719 337.645 352.473 337.891Z" fill="#757D82"></path> <path d="M372.594 351.425C372.594 351.179 372.594 351.179 372.594 350.933C372.594 350.687 372.594 350.687 372.594 350.441V350.195C372.594 349.948 372.594 349.948 372.594 349.702C372.594 349.456 372.594 349.456 372.594 349.21V348.964C372.594 348.718 372.594 348.718 372.594 348.472C372.594 348.226 372.594 348.226 372.348 347.98C372.348 347.734 372.348 347.734 372.348 347.487C372.348 347.241 372.348 347.241 372.103 346.995C372.103 346.749 372.103 346.749 371.858 346.503C371.858 346.257 371.857 346.257 371.612 346.011C371.612 345.765 371.612 345.765 371.367 345.519C371.367 345.273 371.121 345.273 371.121 345.026C371.121 345.026 371.121 344.78 370.876 344.78C370.876 344.534 370.631 344.534 370.631 344.288C370.631 344.042 370.385 344.042 370.385 343.796C370.14 343.55 370.14 343.304 369.895 343.058L369.649 342.812C369.649 342.565 369.404 342.319 369.158 342.319L368.913 342.073C368.668 341.827 368.668 341.581 368.422 341.581L363.27 344.534C363.515 344.78 363.76 345.273 364.006 345.519C364.251 345.765 364.251 346.011 364.496 346.011C364.742 346.257 364.987 346.749 364.987 346.995C365.232 347.487 365.478 347.98 365.723 348.226C365.969 348.718 366.214 349.21 366.214 349.702C366.459 350.195 366.459 350.687 366.705 351.179C366.95 351.671 366.95 352.163 366.95 352.656C366.95 353.148 367.195 353.64 367.195 354.132C367.195 354.624 367.195 355.117 367.195 355.609C367.195 356.347 367.195 357.085 366.95 357.578C366.95 358.07 366.705 358.808 366.459 359.3C366.214 359.792 365.969 360.038 365.723 360.285L365.478 360.531C365.232 360.777 364.742 361.023 364.496 361.269L369.649 358.316C370.14 358.07 370.385 357.824 370.631 357.578L370.876 357.331C370.876 357.085 371.121 357.085 371.121 356.839C371.367 356.593 371.367 356.347 371.367 356.101C371.367 355.855 371.612 355.855 371.612 355.609C371.612 355.363 371.612 355.363 371.858 355.117C371.858 354.87 371.858 354.87 371.858 354.624V354.378V354.132C371.858 353.886 371.858 353.886 371.858 353.64C371.858 353.394 371.858 353.394 371.858 353.148C371.858 352.902 371.858 352.902 371.858 352.656C371.858 352.409 371.858 352.409 371.858 352.163C372.594 351.671 372.594 351.425 372.594 351.425Z" fill="#B8CED9"></path> <path d="M363.514 297.53V343.797C365.968 346.996 367.44 351.18 367.44 354.872C367.44 360.778 363.269 362.993 358.116 360.04C352.964 357.087 349.038 349.95 349.038 344.043C349.038 340.352 350.755 338.137 352.964 337.645V291.378L363.514 297.53Z" fill="#D9EBF3"></path> <path d="M363.514 297.531L368.667 294.332V340.599L363.514 343.798V297.531Z" fill="#C4DFEC"></path> <path d="M353.209 291.378L358.362 288.425L368.667 294.331L363.515 297.53L353.209 291.378Z" fill="#BAC8D0"></path> <path d="M152.496 206.968L157.649 173.006C157.894 172.76 158.14 172.76 158.385 172.76L153.232 175.713C152.987 175.713 152.741 206.722 152.496 206.968Z" fill="#70797D"></path> <path d="M153.232 175.713L158.385 172.76C158.631 172.76 158.631 172.76 158.876 172.514L153.723 175.467C153.723 175.713 153.478 175.713 153.232 175.713Z" fill="#757D82"></path> <path d="M173.352 220.009C173.352 219.763 173.352 219.763 173.352 219.517C173.352 219.271 173.352 219.271 173.352 219.025V218.779C173.352 218.532 173.352 218.532 173.352 218.286C173.352 218.04 173.352 218.04 173.352 217.794V217.548C173.352 217.302 173.352 217.302 173.352 217.056C173.352 216.81 173.352 216.81 173.107 216.564C173.107 216.318 173.107 216.318 173.107 216.071C173.107 215.825 173.107 215.825 172.862 215.579C172.862 215.333 172.862 215.333 172.616 215.087C172.616 214.841 172.616 214.841 172.371 214.595C172.371 214.349 172.371 214.349 172.126 214.103C172.126 213.857 171.88 213.857 171.88 213.61C171.88 213.61 171.88 213.364 171.635 213.364C171.635 213.118 171.389 213.118 171.389 212.872C171.389 212.626 171.144 212.626 171.144 212.38C170.899 212.134 170.899 211.888 170.653 211.642L170.408 211.396C170.408 211.149 170.163 210.903 169.917 210.903L169.672 210.657C169.426 210.411 169.426 210.165 169.181 210.165L164.028 213.118C164.274 213.364 164.519 213.857 164.764 214.103C165.01 214.349 165.01 214.595 165.255 214.595C165.501 214.841 165.746 215.333 165.746 215.579C165.991 216.071 166.237 216.564 166.482 216.81C166.727 217.302 166.973 217.794 166.973 218.286C167.218 218.779 167.218 219.271 167.464 219.763C167.709 220.255 167.709 220.747 167.709 221.24C167.709 221.732 167.954 222.224 167.954 222.716C167.954 223.208 167.954 223.701 167.954 224.193C167.954 224.931 167.954 225.669 167.709 226.162C167.709 226.654 167.464 227.392 167.218 227.884C166.973 228.376 166.727 228.622 166.482 228.869L166.237 229.115C165.991 229.361 165.501 229.853 165.255 229.853L170.408 226.9C170.899 226.654 171.144 226.408 171.389 226.162L171.635 225.915C171.635 225.669 171.88 225.669 171.88 225.423C172.126 225.177 172.126 224.931 172.126 224.685C172.126 224.439 172.371 224.439 172.371 224.193C172.371 223.947 172.371 223.947 172.616 223.701C172.616 223.454 172.616 223.454 172.616 223.208V222.962V222.716C172.616 222.47 172.616 222.47 172.616 222.224C172.616 221.978 172.616 221.978 172.616 221.732C172.616 221.486 172.616 221.486 172.616 221.24C172.616 220.993 172.616 220.993 172.616 220.747C173.352 220.255 173.352 220.255 173.352 220.009Z" fill="#B8CED9"></path> <path d="M164.274 166.36V212.626C166.727 215.826 168.2 220.009 168.2 223.701C168.2 229.607 164.028 231.822 158.876 228.869C153.723 225.916 149.797 218.779 149.797 212.872C149.797 209.181 151.514 175.957 153.723 175.465V160.207L164.274 166.36Z" fill="#D9EBF3"></path> <path d="M164.273 166.36L169.426 163.161V209.428L164.273 212.627V166.36Z" fill="#C4DFEC"></path> <path d="M153.723 160.207L159.121 157.254L169.426 163.16L164.274 166.36L153.723 160.207Z" fill="#BAC8D0"></path> <path d="M154.704 220.502C159.121 222.963 162.556 229.116 162.556 234.284C162.556 239.452 158.875 241.421 154.459 238.96C150.042 236.499 146.607 230.346 146.607 225.178C146.607 220.01 150.287 217.795 154.704 220.502Z" fill="#025B72"></path> <path d="M167.708 230.838C167.708 230.592 167.708 230.592 167.708 230.346C167.708 230.1 167.708 230.1 167.708 229.854C167.708 229.608 167.708 229.608 167.708 229.362C167.708 229.116 167.708 229.116 167.708 228.869C167.708 228.623 167.708 228.623 167.708 228.377C167.708 228.131 167.708 228.131 167.708 227.885C167.708 227.639 167.708 227.639 167.708 227.393C167.708 227.147 167.708 227.147 167.708 226.901V226.655C167.708 226.408 167.708 226.408 167.463 226.162C167.463 225.916 167.463 225.916 167.218 225.67C167.218 225.424 167.218 225.424 166.972 225.178C166.972 224.932 166.972 224.932 166.727 224.686C166.727 224.686 166.727 224.44 166.482 224.44C166.482 224.194 166.482 224.194 166.236 223.947C166.236 223.701 165.991 223.701 165.991 223.455C165.991 223.209 165.745 223.209 165.745 222.963C165.745 222.717 165.5 222.717 165.5 222.471C165.255 222.225 165.009 221.733 165.009 221.486C164.764 221.24 164.764 220.994 164.519 220.748C164.519 220.502 164.273 220.502 164.273 220.256C164.273 220.01 164.028 220.01 164.028 219.764L163.782 219.518L163.537 219.272L163.292 219.025L163.046 218.779L162.801 218.533L162.556 218.287C162.556 218.287 162.556 218.287 162.31 218.041C162.31 218.041 162.31 218.041 162.065 218.041L161.82 217.795L161.574 217.549L161.329 217.303L161.083 217.057C161.083 217.057 160.838 217.057 160.838 216.811C160.838 216.811 160.593 216.811 160.593 216.564C160.593 216.564 160.347 216.564 160.347 216.318C160.347 216.318 160.102 216.318 160.102 216.072H159.857H159.611H159.366H159.12H158.875H158.63C158.384 216.072 158.384 216.072 158.139 216.072C157.894 216.072 157.894 216.072 157.648 216.072C157.403 216.072 157.403 216.072 157.157 216.072C156.912 216.072 156.912 216.072 156.667 216.318C156.421 216.318 156.176 216.564 155.931 216.564L150.778 219.518C151.023 219.272 151.514 219.272 152.005 219.025C152.495 219.025 152.986 219.025 153.232 219.025C153.722 219.025 154.213 219.272 154.704 219.272C155.195 219.518 155.685 219.764 156.421 220.01C156.912 220.256 157.403 220.748 157.894 220.994C158.384 221.486 158.875 221.979 159.366 222.471C160.347 223.455 161.083 224.686 161.82 225.916C162.065 226.408 162.556 227.147 162.801 227.885C163.046 228.623 163.292 229.116 163.537 229.854C163.782 230.592 163.782 231.084 164.028 231.823C164.028 232.561 164.273 233.053 164.273 233.791C164.273 234.53 164.273 235.022 164.028 235.514C164.028 236.006 163.782 236.499 163.537 236.991C163.292 237.237 163.046 237.729 163.046 237.975L162.801 238.221C162.556 238.467 162.31 238.713 161.82 238.96L166.972 236.006C167.218 235.76 167.463 235.514 167.954 235.268L168.199 235.022L168.445 234.776C168.445 234.53 168.69 234.53 168.69 234.284C168.69 234.038 168.69 234.038 168.935 233.791C168.935 233.545 168.935 233.545 169.181 233.299C169.181 233.053 169.181 233.053 169.181 232.807C169.181 232.807 169.181 232.807 169.181 232.561C169.181 232.561 169.181 232.561 169.181 232.315C169.181 232.069 169.181 232.069 169.181 231.823C169.181 231.577 169.181 231.577 169.181 231.33C169.181 231.084 169.181 231.084 169.181 230.838C169.181 230.592 169.181 230.592 169.181 230.346C167.708 231.084 167.708 230.838 167.708 230.838Z" fill="#015064"></path> <path d="M141.699 211.149L146.852 208.196C147.097 207.95 147.343 207.95 147.588 207.95L142.435 210.903C142.19 210.903 141.945 211.149 141.699 211.149Z" fill="#70797D"></path> <path d="M142.435 210.906L147.588 207.953C147.833 207.953 147.833 207.953 148.079 207.707L142.926 210.66C142.68 210.66 142.435 210.66 142.435 210.906Z" fill="#757D82"></path> <path d="M162.556 224.44C162.556 224.194 162.556 224.194 162.556 223.947C162.556 223.701 162.556 223.701 162.556 223.455V223.209C162.556 222.963 162.556 222.963 162.556 222.717C162.556 222.471 162.556 222.471 162.556 222.225V221.979C162.556 221.733 162.556 221.733 162.556 221.486C162.556 221.24 162.556 221.24 162.311 220.994C162.311 220.748 162.311 220.748 162.311 220.502C162.311 220.256 162.311 220.256 162.065 220.01C162.065 219.764 162.065 219.764 161.82 219.518C161.82 219.272 161.82 219.272 161.575 219.026C161.575 218.779 161.575 218.779 161.329 218.533C161.329 218.287 161.084 218.287 161.084 218.041C161.084 218.041 161.084 217.795 160.838 217.795C160.838 217.549 160.593 217.549 160.593 217.303C160.593 217.057 160.348 217.057 160.348 216.811C160.102 216.565 160.102 216.318 159.857 216.072L159.612 215.826C159.612 215.58 159.366 215.334 159.121 215.334L158.875 215.088C158.63 214.842 158.63 214.596 158.385 214.596L153.232 217.549C153.477 217.795 153.723 218.287 153.968 218.533C154.213 218.779 154.213 219.026 154.459 219.026C154.704 219.272 154.95 219.764 154.95 220.01C155.195 220.502 155.44 220.994 155.686 221.24C155.931 221.733 156.176 222.225 156.176 222.717C156.422 223.209 156.422 223.701 156.667 224.194C156.912 224.686 156.912 225.178 156.912 225.67C156.912 226.162 157.158 226.655 157.158 227.147C157.158 227.639 157.158 228.131 157.158 228.623C157.158 229.362 157.158 230.1 156.912 230.592C156.912 231.084 156.667 231.823 156.422 232.315C156.176 232.807 155.931 233.053 155.686 233.299L155.44 233.545C155.195 233.791 154.704 234.038 154.459 234.284L159.612 231.33C160.102 231.084 160.348 230.838 160.593 230.592L160.838 230.346C160.838 230.1 161.084 230.1 161.084 229.854C161.329 229.608 161.329 229.362 161.329 229.116C161.329 228.869 161.575 228.869 161.575 228.623C161.575 228.377 161.575 228.377 161.82 228.131C161.82 227.885 161.82 227.885 161.82 227.639V227.393V227.147C161.82 226.901 161.82 226.901 161.82 226.655C161.82 226.408 161.82 226.408 161.82 226.162C161.82 225.916 161.82 225.916 161.82 225.67C161.82 225.424 161.82 225.424 161.82 225.178C162.556 224.686 162.556 224.44 162.556 224.44Z" fill="#B8CED9"></path> <path d="M153.477 170.545V216.812C155.931 220.011 157.403 224.195 157.403 227.886C157.403 233.793 153.231 236.008 148.079 233.054C142.926 230.101 139 222.964 139 217.058C139 213.366 140.718 211.151 142.926 210.659V164.393L153.477 170.545Z" fill="#D9EBF3"></path> <path d="M153.477 170.546L158.63 167.347V213.613L153.477 216.813V170.546Z" fill="#C4DFEC"></path> <path d="M142.926 164.393L148.079 161.439L158.63 167.346L153.477 170.545L142.926 164.393Z" fill="#BAC8D0"></path> <path d="M436.143 293.347L441.296 259.386C441.541 259.14 441.787 259.14 442.032 259.14L436.879 262.093C436.634 262.093 436.143 293.101 436.143 293.347Z" fill="#70797D"></path> <path d="M436.879 262.093L442.032 259.14C442.278 259.14 442.278 259.14 442.523 258.894L437.37 261.847C437.125 261.847 436.879 262.093 436.879 262.093Z" fill="#757D82"></path> <path d="M457 306.39C457 306.144 457 306.144 457 305.898C457 305.652 457 305.652 457 305.405V305.159C457 304.913 457 304.913 457 304.667C457 304.421 457 304.421 457 304.175V303.929C457 303.683 457 303.683 457 303.437C457 303.191 457 303.191 456.754 302.945C456.754 302.698 456.754 302.698 456.754 302.452C456.754 302.206 456.755 302.206 456.509 301.96C456.509 301.714 456.509 301.714 456.264 301.468C456.264 301.222 456.264 301.222 456.018 300.976C456.018 300.73 456.018 300.73 455.773 300.484C455.773 300.237 455.528 300.237 455.528 299.991C455.528 299.991 455.528 299.745 455.282 299.745C455.282 299.499 455.037 299.499 455.037 299.253C455.037 299.007 454.792 299.007 454.792 298.761C454.546 298.515 454.546 298.269 454.301 298.023L454.055 297.776C454.055 297.53 453.81 297.284 453.565 297.284L453.319 297.038C453.074 296.792 453.074 296.546 452.829 296.546L447.676 299.499C447.921 299.745 448.167 300.237 448.412 300.484C448.657 300.73 448.657 300.976 448.903 300.976C449.148 301.222 449.393 301.714 449.393 301.96C449.639 302.452 449.884 302.944 450.129 303.191C450.375 303.683 450.62 304.175 450.62 304.667C450.866 305.159 450.866 305.652 451.111 306.144C451.356 306.636 451.356 307.128 451.356 307.62C451.356 308.113 451.602 308.605 451.602 309.097C451.602 309.589 451.602 310.081 451.602 310.574C451.602 311.312 451.602 312.05 451.356 312.542C451.356 313.035 451.111 313.773 450.866 314.265C450.62 314.757 450.375 315.003 450.129 315.249L449.884 315.496C449.639 315.742 449.148 315.988 448.903 316.234L454.055 313.281C454.546 313.035 454.792 312.788 455.037 312.542L455.282 312.296C455.282 312.05 455.528 312.05 455.528 311.804C455.773 311.558 455.773 311.312 455.773 311.066C455.773 310.82 456.018 310.82 456.018 310.574C456.018 310.327 456.018 310.327 456.264 310.081C456.264 309.835 456.264 309.835 456.264 309.589V309.343V309.097C456.264 308.851 456.264 308.851 456.264 308.605C456.264 308.359 456.264 308.359 456.264 308.113C456.264 307.866 456.264 307.866 456.264 307.62C456.264 307.374 456.264 307.374 456.264 307.128C457 306.636 457 306.636 457 306.39Z" fill="#B8CED9"></path> <path d="M447.921 252.495V298.762C450.375 301.961 451.847 306.145 451.847 309.836C451.847 315.743 447.676 317.958 442.523 315.005C437.37 312.051 433.444 304.914 433.444 299.008C433.444 295.317 435.162 262.093 437.37 261.601V246.343L447.921 252.495Z" fill="#D9EBF3"></path> <path d="M447.921 252.496L453.074 249.543V295.81L447.921 298.763V252.496Z" fill="#C4DFEC"></path> <path d="M437.371 246.589L442.523 243.39L453.074 249.542L447.922 252.495L437.371 246.589Z" fill="#BAC8D0"></path> <path d="M438.107 306.635C442.524 309.096 445.959 315.249 445.959 320.417C445.959 325.585 442.278 327.554 437.862 325.093C433.445 322.632 430.01 316.479 430.01 311.311C430.255 306.143 433.69 304.174 438.107 306.635Z" fill="#025B72"></path> <path d="M451.357 317.219C451.357 316.973 451.357 316.973 451.357 316.727C451.357 316.481 451.357 316.481 451.357 316.235C451.357 315.989 451.357 315.989 451.357 315.743C451.357 315.496 451.357 315.496 451.357 315.25C451.357 315.004 451.357 315.004 451.357 314.758C451.357 314.512 451.357 314.512 451.357 314.266C451.357 314.02 451.357 314.02 451.357 313.774C451.357 313.528 451.357 313.528 451.357 313.282V313.035C451.357 312.789 451.357 312.789 451.111 312.543C451.111 312.297 451.111 312.297 450.866 312.051C450.866 311.805 450.866 311.805 450.621 311.559C450.621 311.313 450.621 311.313 450.375 311.067C450.375 311.067 450.375 310.821 450.13 310.821C450.13 310.574 450.13 310.574 449.885 310.328C449.885 310.082 449.639 310.082 449.639 309.836C449.639 309.59 449.394 309.59 449.394 309.344C449.394 309.098 449.149 309.098 449.149 308.852C448.903 308.606 448.658 308.113 448.658 307.867C448.412 307.621 448.412 307.375 448.167 307.129C448.167 306.883 447.922 306.883 447.922 306.637C447.922 306.391 447.676 306.391 447.676 306.145L447.431 305.899L447.186 305.652L446.94 305.406L446.695 305.16L446.449 304.914L446.204 304.668C446.204 304.668 446.204 304.668 445.959 304.422C445.959 304.422 445.959 304.422 445.713 304.422L445.468 304.176L445.223 303.93L444.977 303.684L444.732 303.438C444.732 303.438 444.486 303.438 444.486 303.191C444.486 303.191 444.241 303.191 444.241 302.945C444.241 302.945 443.996 302.945 443.996 302.699C443.996 302.699 443.75 302.699 443.75 302.453H443.505H443.26H443.014H442.769H442.524H442.278C442.033 302.453 442.033 302.453 441.787 302.453C441.542 302.453 441.542 302.453 441.297 302.453C441.051 302.453 441.051 302.453 440.806 302.453C440.561 302.453 440.561 302.453 440.315 302.699C440.07 302.699 439.824 302.945 439.579 302.945L434.426 305.899C434.672 305.652 435.162 305.652 435.653 305.406C436.144 305.406 436.635 305.406 436.88 305.406C437.371 305.406 437.861 305.652 438.352 305.652C438.843 305.899 439.334 306.145 440.07 306.391C440.561 306.637 441.051 307.129 441.542 307.375C442.033 307.867 442.523 308.36 443.014 308.852C443.996 309.836 444.732 311.067 445.468 312.297C445.713 312.789 446.204 313.528 446.449 314.266C446.695 315.004 446.94 315.496 447.186 316.235C447.431 316.973 447.431 317.465 447.676 318.204C447.676 318.942 447.922 319.434 447.922 320.172C447.922 320.911 447.922 321.403 447.676 321.895C447.676 322.387 447.431 322.879 447.186 323.372C446.94 323.618 446.695 324.11 446.695 324.356L446.449 324.602C446.204 324.848 445.959 325.094 445.468 325.34L450.621 322.387C450.866 322.141 451.111 321.895 451.602 321.649L451.848 321.403L452.093 321.157C452.093 320.911 452.338 320.911 452.338 320.665C452.338 320.418 452.338 320.418 452.584 320.172C452.584 319.926 452.584 319.926 452.829 319.68C452.829 319.434 452.829 319.434 452.829 319.188C452.829 319.188 452.829 319.188 452.829 318.942C452.829 318.942 452.829 318.942 452.829 318.696C452.829 318.45 452.829 318.45 452.829 318.204C452.829 317.957 452.829 317.957 452.829 317.711C452.829 317.465 452.829 317.465 452.829 317.219C452.829 316.973 452.829 316.973 452.829 316.727C451.357 317.465 451.357 317.219 451.357 317.219Z" fill="#015064"></path> <path d="M425.102 297.532L430.255 294.579C430.5 294.333 430.746 294.333 430.991 294.333L425.838 297.286C425.593 297.286 425.347 297.286 425.102 297.532Z" fill="#70797D"></path> <path d="M425.838 297.04L430.991 294.087C431.237 294.087 431.237 294.087 431.482 293.841L426.329 296.794C426.329 297.04 426.084 297.04 425.838 297.04Z" fill="#757D82"></path> <path d="M445.958 310.574C445.958 310.328 445.958 310.328 445.958 310.082C445.958 309.836 445.958 309.836 445.958 309.59V309.344C445.958 309.098 445.958 309.098 445.958 308.852C445.958 308.606 445.958 308.606 445.958 308.36V308.113C445.958 307.867 445.958 307.867 445.958 307.621C445.958 307.375 445.958 307.375 445.713 307.129C445.713 306.883 445.713 306.883 445.713 306.637C445.713 306.391 445.713 306.391 445.468 306.145C445.468 305.899 445.468 305.899 445.222 305.652C445.222 305.406 445.222 305.406 444.977 305.16C444.977 304.914 444.977 304.914 444.732 304.668C444.732 304.422 444.486 304.422 444.486 304.176C444.486 304.176 444.486 303.93 444.241 303.93C444.241 303.684 443.995 303.684 443.995 303.438C443.995 303.191 443.75 303.191 443.75 302.945C443.505 302.699 443.505 302.453 443.259 302.207L443.014 301.961C443.014 301.715 442.769 301.469 442.523 301.469L442.278 301.223C442.032 300.977 442.032 300.73 441.787 300.73L436.634 303.684C436.88 303.93 437.125 304.422 437.37 304.668C437.616 304.914 437.616 305.16 437.861 305.16C438.107 305.406 438.352 305.899 438.352 306.145C438.597 306.637 438.843 307.129 439.088 307.375C439.333 307.867 439.579 308.36 439.579 308.852C439.824 309.344 439.824 309.836 440.069 310.328C440.315 310.821 440.315 311.313 440.315 311.805C440.315 312.297 440.56 312.789 440.56 313.282C440.56 313.774 440.56 314.266 440.56 314.758C440.56 315.496 440.56 316.235 440.315 316.727C440.315 317.219 440.069 317.957 439.824 318.45C439.579 318.942 439.333 319.188 439.088 319.434L438.843 319.68C438.597 319.926 438.107 320.172 437.861 320.418L443.014 317.465C443.505 317.219 443.75 316.973 443.995 316.727L444.241 316.481C444.241 316.235 444.486 316.235 444.486 315.989C444.731 315.743 444.732 315.496 444.732 315.25C444.732 315.004 444.977 315.004 444.977 314.758C444.977 314.512 444.977 314.512 445.222 314.266C445.222 314.02 445.222 314.02 445.222 313.774V313.528V313.282C445.222 313.035 445.222 313.035 445.222 312.789C445.222 312.543 445.222 312.543 445.222 312.297C445.222 312.051 445.222 312.051 445.222 311.805C445.222 311.559 445.222 311.559 445.222 311.313C445.958 310.821 445.958 310.821 445.958 310.574Z" fill="#B8CED9"></path> <path d="M436.88 256.678V302.945C439.333 306.144 440.806 310.328 440.806 314.019C440.806 319.925 436.634 322.14 431.482 319.187C426.329 316.234 422.403 309.097 422.403 303.191C422.403 299.499 424.12 297.284 426.329 296.792V250.525L436.88 256.678Z" fill="#D9EBF3"></path> <path d="M436.879 256.68L442.278 253.727L442.032 299.993L436.879 302.946V256.68Z" fill="#C4DFEC"></path> <path d="M426.574 250.773L431.726 247.819L442.277 253.726L436.879 256.679L426.574 250.773Z" fill="#BAC8D0"></path> <path d="M450.621 223.699C455.528 226.406 455.528 231.082 450.621 233.789L375.292 277.595C370.63 280.302 362.778 280.302 357.87 277.595L145.134 154.299C140.227 151.592 140.227 146.916 145.134 144.209L220.463 100.403C225.125 97.6963 232.977 97.6963 237.884 100.403L450.621 223.699Z" fill="#EEF8FB"></path> <path d="M454.301 229.113C454.301 229.359 454.301 229.359 454.301 229.605V229.852V230.098C454.301 230.098 454.301 230.344 454.056 230.344C454.056 230.59 454.056 230.59 453.81 230.836C453.81 230.836 453.81 231.082 453.565 231.082C453.565 231.328 453.32 231.328 453.32 231.574L453.074 231.82C452.829 232.066 452.829 232.313 452.583 232.313L452.338 232.559C452.338 232.559 452.093 232.805 451.847 232.805L451.602 233.051C451.357 233.051 451.357 233.297 451.111 233.297C450.866 233.297 450.866 233.543 450.621 233.543L375.292 277.349C374.801 277.595 374.065 277.841 373.574 278.087C373.329 278.087 373.329 278.087 373.083 278.333C372.593 278.579 372.347 278.579 371.857 278.579C371.366 278.579 371.12 278.825 370.63 278.825C370.139 278.825 369.648 279.071 369.158 279.071C368.912 279.071 368.912 279.071 368.667 279.071C367.931 279.071 367.195 279.071 366.704 279.071H366.458C365.722 279.071 364.986 279.071 364.495 279.071H364.25C363.514 279.071 363.023 278.825 362.287 278.825H362.042C361.551 278.579 360.815 278.579 360.324 278.333H360.079C359.343 278.087 358.852 277.841 358.116 277.349L145.134 154.299C142.68 152.822 141.454 151.1 141.454 149.131V167.834C141.454 169.557 142.68 171.526 145.134 173.003L358.116 296.298C358.607 296.544 359.343 296.791 359.833 297.037H360.079C360.324 297.283 360.815 297.283 361.06 297.283C361.306 297.283 361.551 297.283 361.796 297.529H362.042H362.287C362.778 297.529 363.023 297.775 363.514 297.775C363.759 297.775 363.759 297.775 364.005 297.775H364.25C364.495 297.775 364.495 297.775 364.741 297.775C365.232 297.775 365.477 297.775 365.968 297.775C366.213 297.775 366.213 297.775 366.458 297.775H366.704C366.949 297.775 366.949 297.775 367.195 297.775C367.685 297.775 368.176 297.775 368.667 297.775C368.667 297.775 368.667 297.775 368.912 297.775C369.158 297.775 369.158 297.775 369.403 297.775C369.648 297.775 370.139 297.775 370.384 297.529C370.63 297.529 370.63 297.529 370.875 297.529C371.366 297.529 371.611 297.283 372.102 297.283C372.347 297.283 372.593 297.283 372.838 297.037C373.083 297.037 373.083 296.791 373.329 296.791C373.574 296.791 373.574 296.791 373.82 296.544C374.31 296.298 375.046 296.052 375.537 295.806L450.866 252C450.866 252 450.866 252 451.111 252L451.357 251.754C451.602 251.754 451.602 251.508 451.847 251.508L452.093 251.262C452.338 251.262 452.338 251.016 452.583 251.016C452.583 251.016 452.584 251.016 452.829 250.77C453.074 250.524 453.074 250.278 453.32 250.278C453.32 250.278 453.32 250.278 453.32 250.032C453.32 249.786 453.565 249.786 453.565 249.539C453.565 249.539 453.565 249.539 453.565 249.293C453.565 249.047 453.81 249.047 453.81 248.801V248.555V248.309V248.063C453.81 247.817 453.81 247.817 453.81 247.571V249.293V228.621C454.301 228.867 454.301 228.867 454.301 229.113Z" fill="#D9EBF3"></path> <path d="M454.301 229.359V229.605V229.852C454.301 229.852 454.301 230.098 454.056 230.098C454.056 230.344 454.056 230.344 453.811 230.59C453.811 230.59 453.811 230.836 453.565 230.836C453.565 231.082 453.32 231.082 453.32 231.328L453.075 231.574C452.829 231.82 452.829 232.066 452.584 232.066L452.338 232.313C452.338 232.313 452.093 232.559 451.848 232.559L451.602 232.805C451.357 232.805 451.357 233.051 451.112 233.051C450.866 233.051 450.866 233.297 450.621 233.297L375.292 277.103C374.801 277.349 374.065 277.595 373.574 277.841C373.329 277.841 373.329 277.841 373.084 278.087C372.593 278.333 372.348 278.333 371.857 278.333C371.366 278.333 371.121 278.579 370.63 278.579C370.139 278.579 369.649 278.825 369.158 278.825C368.912 278.825 368.912 278.825 368.667 278.825C367.931 278.825 367.195 278.825 366.704 278.825H366.459H366.213V297.529H366.459C366.704 297.529 366.704 297.529 366.949 297.529C367.44 297.529 367.931 297.529 368.422 297.529C368.422 297.529 368.422 297.529 368.667 297.529C368.912 297.529 368.912 297.529 369.158 297.529C369.403 297.529 369.894 297.529 370.139 297.283C370.385 297.283 370.385 297.283 370.63 297.283C371.121 297.283 371.366 297.037 371.857 297.037C372.102 297.037 372.348 297.037 372.593 296.791C372.838 296.791 372.838 296.545 373.084 296.545C373.329 296.545 373.329 296.545 373.574 296.298C374.065 296.052 374.801 295.806 375.292 295.56L450.621 251.754C450.621 251.754 450.621 251.754 450.866 251.754L451.112 251.508C451.357 251.508 451.357 251.262 451.602 251.262L451.848 251.016C452.093 251.016 452.093 250.77 452.338 250.77C452.338 250.77 452.338 250.77 452.584 250.524C452.829 250.278 452.829 250.032 453.075 250.032C453.075 250.032 453.075 250.032 453.075 249.786C453.075 249.54 453.32 249.54 453.32 249.293C453.32 249.293 453.32 249.293 453.32 249.047C453.32 248.801 453.565 248.801 453.565 248.555V248.309V248.063V247.817C453.565 247.571 453.565 247.571 453.565 247.325V249.047V228.375V228.621C454.301 229.113 454.301 229.359 454.301 229.359Z" fill="#EEF8FB"></path> <path d="M249.908 122.799C252.361 124.276 252.361 126.491 249.908 127.967L212.611 149.624C210.158 151.101 206.232 151.101 203.778 149.624L183.167 137.811C180.713 136.335 180.713 134.12 183.167 132.643L220.463 110.986C222.917 109.51 226.843 109.51 229.297 110.986L249.908 122.799Z" fill="white"></path> <path d="M251.625 126.244C251.625 126.49 251.38 126.736 251.38 126.982C251.135 127.229 251.135 127.475 250.889 127.475C250.644 127.475 250.644 127.721 250.399 127.721C250.153 127.721 250.153 127.967 249.908 127.967L212.612 149.624C212.121 149.87 211.875 150.116 211.385 150.116C211.139 150.116 211.139 150.116 210.894 150.362C210.649 150.362 210.403 150.362 210.158 150.608C209.912 150.608 209.667 150.608 209.422 150.854C209.422 150.854 209.422 150.854 209.176 150.854C208.931 150.854 208.44 150.854 208.195 150.854C208.195 150.854 208.195 150.854 207.95 150.854C207.704 150.854 207.213 150.854 206.968 150.854C206.968 150.854 206.968 150.854 206.723 150.854C206.477 150.854 205.987 150.854 205.741 150.608C205.741 150.608 205.741 150.608 205.496 150.608C205.25 150.608 205.005 150.362 204.514 150.362C204.514 150.362 204.514 150.362 204.269 150.362C204.024 150.116 203.533 150.116 203.287 149.87L182.676 138.057C181.449 137.319 180.713 136.334 180.713 135.35V149.87C180.713 150.854 181.449 151.838 182.676 152.577L203.287 164.39C203.533 164.636 203.778 164.636 204.269 164.882C204.269 164.882 204.269 164.882 204.514 164.882C204.76 164.882 204.76 165.128 205.005 165.128H205.25C205.25 165.128 205.25 165.128 205.496 165.128C205.496 165.128 205.496 165.128 205.741 165.128C205.987 165.128 206.232 165.128 206.477 165.128H206.723C206.723 165.128 206.723 165.128 206.968 165.128H207.213C207.459 165.128 207.704 165.128 207.95 165.128H208.195C208.195 165.128 208.195 165.128 208.44 165.128H208.686C208.931 165.128 209.176 165.128 209.422 165.128C209.422 165.128 209.422 165.128 209.667 165.128C209.912 165.128 210.158 165.128 210.158 165.128H210.403C210.649 165.128 210.894 165.128 211.139 164.882H211.385C211.385 164.882 211.385 164.882 211.63 164.882C212.121 164.636 212.366 164.636 212.857 164.39L250.153 142.733C250.399 142.733 250.399 142.487 250.399 142.487C250.644 142.487 250.644 142.241 250.889 142.241C251.135 141.995 251.135 141.994 251.38 141.748C251.38 141.748 251.38 141.748 251.38 141.502L251.625 141.256V141.01V140.764V126.244C251.625 125.998 251.625 125.752 251.625 126.244Z" fill="#DAEAF1"></path> <path d="M258.251 126.491C258.251 126.491 251.135 124.276 249.418 132.397C247.7 140.518 251.381 145.933 255.797 148.147C260.214 150.362 268.311 154.792 274.446 156.761C274.446 156.761 277.39 159.468 280.334 161.191C283.279 162.913 310.27 171.035 310.27 171.035C310.27 171.035 333.089 179.648 336.279 176.695C339.469 173.496 323.52 166.851 323.52 166.851C323.52 166.851 327.446 166.113 325.728 164.39C324.01 162.667 320.33 162.175 316.895 160.945C313.705 159.96 309.779 161.929 304.135 160.945C298.246 159.714 293.83 151.839 283.77 150.362C284.015 150.362 270.52 132.889 258.251 126.491Z" fill="#F1BC83"></path> <path d="M241.321 130.675C241.321 130.675 246.964 125.507 254.571 125.999C262.177 126.491 270.765 130.675 277.145 138.304C283.524 145.933 289.413 155.285 296.038 158.238C296.038 158.238 281.561 166.359 277.881 175.219C274.446 184.078 273.219 190.969 273.219 190.969L239.603 171.035L222.427 154.054C222.427 154.054 215.802 143.472 227.334 139.042L241.321 130.675Z" fill="white"></path> <path d="M296.038 158.235C296.038 158.235 313.95 162.911 322.047 168.325C330.144 173.74 376.52 215.084 394.432 220.499L388.788 232.311C388.788 232.311 383.145 234.28 383.635 244.37C383.635 244.37 366.95 238.956 358.117 237.725C349.283 236.495 342.658 229.604 333.089 221.729C323.519 213.854 273.464 190.72 273.464 190.72C273.464 190.72 273.464 167.833 296.038 158.235Z" fill="#228985"></path> <path d="M387.561 231.329C387.561 231.329 391.733 224.685 393.205 219.517C394.677 214.349 401.057 211.149 403.02 214.841C404.983 218.532 403.265 223.454 400.811 230.591C398.358 237.728 397.376 242.65 397.131 246.342C396.886 250.033 387.316 253.232 382.654 243.388C382.409 243.634 380.446 236.498 387.561 231.329Z" fill="#FCCC8A"></path> <path d="M228.315 143.963C228.315 143.963 221.2 140.518 218.255 148.885C215.311 157.253 218.501 163.405 222.672 166.358C226.843 169.312 234.695 174.972 240.829 177.925C240.829 177.925 243.528 181.124 246.227 183.339C248.927 185.554 276.163 197.859 276.163 197.859C276.163 197.859 298.737 210.164 302.663 207.457C306.589 204.75 290.64 195.398 290.64 195.398C290.64 195.398 295.056 195.152 293.339 193.183C291.866 191.215 287.94 189.984 284.751 188.507C281.561 187.031 277.144 188.754 271.501 186.539C265.612 184.57 261.931 175.464 251.626 172.511C251.626 172.511 239.848 152.331 228.315 143.963Z" fill="#FCCC8A"></path> <path d="M387.561 231.331C387.561 231.331 365.723 221.24 356.645 214.104C347.566 206.721 332.598 192.939 326.955 189.986C321.311 187.033 305.607 178.419 305.607 178.419L298.492 180.88C298.492 180.88 303.645 178.911 305.607 176.204C307.57 173.497 307.57 169.56 307.57 169.56C307.57 169.56 308.552 173.497 307.08 176.45C307.08 176.45 307.08 177.681 308.797 178.665C310.515 179.65 325.237 187.771 327.2 189.001C329.163 190.232 334.807 194.17 338.487 197.369C342.168 200.568 354.191 211.15 356.399 212.627C358.608 213.857 368.177 222.963 388.543 230.838L387.561 231.331Z" fill="#1D6D6A"></path> <path d="M396.149 220.993C396.149 220.993 400.321 214.348 401.793 209.18C403.265 204.012 409.645 200.812 411.608 204.504C413.571 208.195 411.853 213.117 409.399 220.254C406.946 227.391 405.964 232.313 405.719 236.005C405.473 239.696 395.904 242.895 391.242 233.051C391.242 233.298 389.034 226.161 396.149 220.993Z" fill="#FCCC8A"></path> <path d="M411.853 204.506C410.626 202.045 407.437 202.537 404.983 204.752C402.284 210.412 398.603 219.518 398.603 226.654C398.358 234.037 399.094 237.483 401.548 239.698C404.001 239.206 405.964 237.729 405.964 236.252C406.21 232.561 407.191 227.393 409.645 220.502C411.853 213.365 413.571 208.197 411.853 204.506Z" fill="#FFE19F"></path> <path d="M403.019 214.841C401.792 212.38 398.603 212.873 396.149 215.088C393.45 220.748 389.769 229.854 389.769 236.99C389.524 244.373 390.26 247.819 392.714 250.034C395.167 249.541 397.13 248.065 397.13 246.588C397.376 242.897 398.357 237.729 400.811 230.838C403.265 223.947 404.982 218.533 403.019 214.841Z" fill="#FFE19F"></path> <path d="M224.39 108.526C224.39 108.526 235.186 117.631 237.885 121.077C237.885 121.077 238.376 124.522 235.186 125.506C235.186 125.506 237.149 129.444 241.32 130.674C241.32 130.674 243.283 133.382 241.32 135.843C239.357 138.304 233.223 140.518 227.334 139.042C227.334 139.042 219.973 133.135 216.293 131.167C212.367 129.444 202.552 122.307 206.232 115.17C209.668 108.279 215.557 102.619 224.39 108.526Z" fill="#FCCC8A"></path> <path d="M222.918 107.541C222.918 107.541 216.047 108.033 212.857 113.694C212.857 113.694 212.367 115.909 215.311 116.893C215.311 116.893 216.783 118.616 216.047 121.569C216.047 121.569 216.538 123.538 218.992 123.538L218.746 125.506C218.746 125.506 215.802 122.553 213.594 124.522C211.385 126.491 213.348 128.952 216.293 128.952L219.237 130.182C219.237 130.182 216.783 131.659 212.121 129.198C207.459 126.737 205.987 123.045 205.006 118.37C204.024 113.694 206.723 110.74 209.668 107.787C212.367 104.588 217.029 103.111 222.918 107.541Z" fill="#59382A"></path> <path d="M452.093 251.016L450.621 250.278V227.883L451.848 228.867L452.093 251.016Z" fill="#737C81"></path> <path d="M451.848 192.939C453.811 191.709 455.528 192.693 455.528 194.908L455.774 248.804L452.093 251.019V228.624L370.875 275.629V295.809L367.44 297.778L367.195 246.097C367.195 243.882 368.912 240.929 370.875 239.698L451.848 192.939Z" fill="#A7B3BA"></path> <path d="M452.584 192.69C452.829 192.69 453.075 192.69 453.075 192.444C453.32 192.444 453.566 192.444 453.566 192.444C453.811 192.444 453.811 192.444 454.056 192.69L452.829 191.952C452.829 191.952 452.829 191.952 452.584 191.952H452.339C452.339 191.952 452.339 191.952 452.093 191.952H451.848H451.603C451.603 191.952 451.603 191.952 451.357 191.952H451.112C451.112 191.952 451.112 191.952 450.867 191.952C450.867 191.952 450.867 191.952 450.621 191.952C450.621 191.952 450.621 191.952 450.376 191.952C450.13 191.952 450.13 192.198 449.885 192.198L368.667 239.203C368.177 239.449 367.931 239.695 367.441 239.942C367.441 239.942 367.441 239.942 367.195 240.188C367.195 240.188 367.195 240.188 367.195 240.434C367.195 240.434 367.195 240.434 366.95 240.68L366.704 240.926C366.704 240.926 366.704 240.926 366.704 241.172C366.704 241.172 366.704 241.172 366.704 241.418L366.459 241.664L366.214 241.91C366.214 241.91 366.214 242.156 365.968 242.156C365.968 242.156 365.968 242.403 365.723 242.403C365.723 242.403 365.723 242.649 365.478 242.649C365.478 242.649 365.478 242.895 365.232 242.895C365.232 242.895 365.232 243.141 364.987 243.141C364.987 243.141 364.987 243.141 364.987 243.387C364.987 243.387 364.987 243.387 364.987 243.633C364.987 243.879 364.987 243.879 364.987 244.125V244.371C364.987 244.371 364.987 244.371 364.987 244.617C364.987 244.864 364.987 245.11 364.987 245.356L365.232 297.037L366.459 297.775L366.214 246.094C366.214 245.848 366.214 245.602 366.214 245.356C366.214 245.356 366.214 245.356 366.214 245.11C366.214 244.864 366.214 244.617 366.459 244.371C366.459 244.125 366.704 243.879 366.704 243.633C366.95 243.387 366.95 243.141 367.195 242.895C367.441 242.649 367.441 242.403 367.686 242.156C367.931 241.91 367.931 241.664 368.177 241.418C368.177 241.418 368.177 241.418 368.177 241.172L368.422 240.926C368.667 240.68 369.158 240.188 369.649 240.188L450.867 193.183C452.093 192.69 452.339 192.69 452.584 192.69Z" fill="#C9D3E0"></path> <path d="M163.292 92.5285C163.292 92.5285 164.518 89.5753 169.671 88.5909C174.824 87.6065 178.75 95.7278 176.051 99.1732C173.597 102.372 168.935 103.357 163.292 92.5285Z" fill="#FCCC8A"></path> <path d="M188.32 77.7613C188.32 77.7613 189.301 75.0542 193.963 73.8237C198.625 72.5932 202.551 79.7301 200.588 82.9294C198.38 86.1286 194.209 87.113 188.32 77.7613Z" fill="#FCCC8A"></path> <path d="M276.653 121.815C276.653 121.815 267.574 130.429 260.213 133.136C252.852 136.089 246.718 142.734 243.773 148.394C240.829 154.054 212.121 169.313 210.894 179.649C209.667 189.739 212.611 219.271 212.611 219.271C212.611 219.271 222.672 231.084 230.769 230.591C238.621 230.099 248.926 238.467 256.778 241.912C264.63 245.357 295.301 267.999 303.644 273.167C312.232 278.335 340.449 293.593 346.584 295.808C352.718 298.023 348.792 274.889 350.51 269.229C352.227 263.569 353.945 240.189 361.797 235.267C369.649 230.099 382.653 213.118 388.297 210.411C393.94 207.458 405.227 197.86 408.172 197.86C411.116 197.86 346.584 162.668 335.787 156.515C325.482 150.363 295.301 128.706 276.653 121.815Z" fill="#228985"></path> <path opacity="0.2" d="M242.792 161.683C244.755 163.898 246.718 166.112 248.681 168.081C250.644 170.05 252.852 172.019 255.061 173.741C256.287 174.726 257.269 175.464 258.496 176.202C259.723 176.941 260.949 177.433 262.422 178.171C265.121 179.402 267.574 181.124 270.028 182.601C274.936 185.8 279.843 189 284.505 192.445C289.167 195.89 293.829 199.336 298.736 202.781C296.037 201.551 293.584 200.074 291.13 198.598L283.769 193.922L269.047 184.57C266.593 183.093 264.139 181.617 261.686 180.14C260.459 179.402 258.986 178.91 257.76 177.925C256.533 177.187 255.306 176.202 254.079 175.218C249.662 171.034 245.982 166.605 242.792 161.683Z" fill="#228985"></path> <path opacity="0.2" d="M317.385 184.325C319.593 185.802 321.801 187.278 324.255 188.755L330.88 193.185L337.505 197.615C338.732 198.353 339.713 199.091 340.94 199.829L342.658 200.814C343.149 201.306 343.885 201.552 344.376 202.044C348.792 205.244 352.963 208.689 356.889 212.134L363.024 217.303C364.987 219.025 366.95 220.994 369.403 222.225C364.496 220.01 360.325 216.564 355.908 213.365C351.491 210.166 347.32 206.72 343.149 203.767C342.658 203.521 342.167 203.029 341.431 202.537L339.713 201.552C338.487 200.814 337.505 200.076 336.278 199.337C334.07 197.861 331.862 196.138 329.899 194.415C325.727 191.462 321.556 188.017 317.385 184.325Z" fill="#228985"></path> <path opacity="0.2" d="M218.991 195.646C223.653 198.599 228.561 201.552 233.468 204.259C238.375 207.212 243.038 209.919 247.945 212.38C252.852 214.841 257.76 217.548 263.158 219.271C268.556 221.24 273.463 223.701 278.371 226.408C288.186 232.068 297.755 237.975 307.079 243.881L321.311 252.987C325.973 255.94 330.635 259.139 335.542 261.846C325.482 257.17 315.913 251.264 306.098 245.604C296.528 239.943 286.959 234.037 277.144 228.623C272.237 225.916 267.329 223.209 262.176 221.486C256.778 219.517 251.871 217.056 246.963 214.103C237.394 208.443 228.07 202.29 218.991 195.646Z" fill="#228985"></path> <path d="M8.46065 276.999L245.373 413.845C264.039 424.719 287.012 424.719 305.678 413.845L542.59 276.999C548.128 273.716 551 268.177 551 262.432V172.569C551 178.314 548.128 183.853 542.59 187.136L305.678 323.982C287.012 334.856 264.039 334.856 245.373 323.982L8.46065 187.136C6.20434 185.905 4.35827 184.059 3.12756 182.212L0.0507812 174.826V262.637C0.0507812 268.177 2.92244 273.922 8.46065 276.999Z" fill="url(#paint0_linear)"></path> <path fill-rule="evenodd" clip-rule="evenodd" d="M482.943 221.526L478.157 216.667L445.622 235.448L339 300.499L342.399 302.708L482.943 221.526Z" fill="white"></path> <path d="M163.121 313.313L22.4092 232.067L22.2041 248.686L163.121 330.342V313.313Z" fill="#D6C5CB"></path> <path d="M217.477 338.548L189.376 322.34V351.063L217.477 367.271V338.548Z" fill="#F97479"></path> <path d="M220.144 339.984V368.913L248.245 385.121V356.193L220.144 339.984Z" fill="#2C9AE5"></path> <defs> <linearGradient id="paint0_linear" x1="0.0508948" y1="297.263" x2="550.931" y2="297.263" gradientUnits="userSpaceOnUse"> <stop offset="0.245" stop-color="#FEF0F2"></stop> <stop offset="0.3397" stop-color="#FEEBED"></stop> <stop offset="0.4566" stop-color="#FFDCE0"></stop> <stop offset="0.5" stop-color="#FFD4DA"></stop> <stop offset="0.52" stop-color="#FFD0D5"></stop> <stop offset="0.596" stop-color="#FFC6CA"></stop> <stop offset="0.7029" stop-color="#FFC1C3"></stop> <stop offset="1" stop-color="#FFBFC1"></stop> </linearGradient> </defs> </svg> 