<?xml version="1.0" encoding="UTF-8"?> <svg xmlns="http://www.w3.org/2000/svg" width="551" height="409" viewBox="0 0 551 409" fill="none"> <path d="M530.488 145.583L304.242 15.1275C286.397 4.87156 264.449 4.87156 246.604 15.1275L20.5631 145.583C9.89693 151.737 9.89693 167.326 20.5631 173.479L61.3817 197.068L250.296 88.1497C265.885 79.1245 284.961 79.1245 300.55 88.1497L489.464 197.068L530.283 173.479C541.154 167.326 541.154 151.737 530.488 145.583Z" fill="#AFB5D4"></path> <path d="M250.296 88.1517L53.3823 201.787C43.9468 207.121 43.9468 220.658 53.3823 225.991L250.296 339.627C265.885 348.652 284.961 348.652 300.55 339.627L497.464 225.991C506.9 220.658 506.9 207.121 497.464 201.787L300.55 88.1517C284.961 79.1265 265.885 79.1265 250.296 88.1517Z" fill="#9292B7"></path> <path d="M542.59 144.968L305.678 8.15347C287.012 -2.71782 264.039 -2.71782 245.373 8.15347L8.46114 144.968C-2.82038 151.531 -2.82038 167.736 8.46114 174.094L245.373 310.909C264.039 321.78 287.012 321.78 305.678 310.909L542.59 174.094C553.667 167.736 553.667 151.531 542.59 144.968ZM530.488 173.479L304.447 303.935C286.602 314.19 264.654 314.19 246.809 303.935L20.5631 173.479C9.89697 167.326 9.89697 151.737 20.5631 145.583L246.604 15.1275C264.449 4.87157 286.397 4.87157 304.242 15.1275L530.283 145.583C541.154 151.737 541.154 167.326 530.488 173.479Z" fill="white"></path> <path d="M8.46113 263.938L245.373 400.752C264.039 411.623 287.012 411.623 305.678 400.752L542.59 263.938C548.128 260.656 551 255.118 551 249.374V159.532C551 165.276 548.128 170.814 542.59 174.096L305.678 310.91C287.012 321.781 264.039 321.781 245.373 310.91L8.46113 174.096C6.20483 172.865 4.35876 171.019 3.12805 169.173L0.0512695 161.789V249.579C0.0512695 255.118 2.92293 260.861 8.46113 263.938Z" fill="url(#paint0_linear)"></path> <path d="M163.121 300.244L22.4092 219.017L22.2041 235.631L163.121 317.268V300.244Z" fill="#D6C5CB"></path> <path d="M217.477 325.474L189.375 309.27V337.986L217.477 354.191V325.474Z" fill="#F97479"></path> <path d="M220.143 326.91V355.832L248.244 372.036V343.115L220.143 326.91Z" fill="#2C9AE5"></path> <path d="M391.212 163.836C391.212 163.836 391.212 163.631 391.212 163.836C391.007 163.631 391.007 163.631 391.007 163.631L390.802 163.426C390.802 163.426 390.802 163.426 390.802 163.221C389.572 161.17 389.982 158.298 390.802 156.247C391.623 153.785 393.264 151.529 395.315 150.093C395.93 149.683 396.546 149.273 397.161 149.068C397.776 148.863 398.597 148.658 399.212 148.863C399.417 148.863 399.827 149.068 400.033 149.068C400.033 149.068 400.238 149.068 400.238 149.273L393.059 145.17C393.059 145.17 392.853 145.17 392.853 144.965C392.033 144.555 391.007 144.76 390.187 144.965C389.366 145.17 388.546 145.786 387.725 146.401C387.725 146.401 387.725 146.401 387.52 146.401C384.854 148.658 383.008 151.939 382.803 155.426C382.598 157.067 383.008 159.119 384.649 159.939L391.828 164.041C391.623 164.041 391.623 164.041 391.212 163.836C391.418 164.041 391.418 163.836 391.212 163.836C391.418 163.836 391.418 163.836 391.212 163.836Z" fill="#474573"></path> <path d="M395.93 149.683C392.649 151.529 389.777 156.452 389.777 160.144C389.777 164.041 392.443 165.477 395.93 163.631C399.212 161.785 402.084 157.067 402.084 153.17C402.084 149.273 399.417 147.632 395.93 149.683Z" fill="#5A5A8C"></path> <path d="M421.98 173.886C421.775 173.886 421.775 173.886 421.98 173.886C421.57 173.271 421.57 172.656 421.775 172.246C421.98 171.63 422.39 171.22 422.8 170.81C423.006 170.81 423.006 170.605 423.211 170.605C423.416 170.605 423.621 170.605 423.621 170.605H423.826L397.366 155.221C397.161 155.221 396.955 155.221 396.75 155.221C396.545 155.221 396.34 155.426 396.135 155.426C395.52 155.836 395.109 156.657 395.109 157.477C395.109 157.887 395.109 158.297 395.52 158.503L421.98 173.886C421.98 174.092 421.98 174.092 421.98 173.886C421.98 174.092 421.98 174.092 421.98 173.886C421.98 174.092 421.98 174.092 421.98 173.886Z" fill="#8CA3C8"></path> <path d="M423.005 170.811C422.185 171.222 421.569 172.247 421.569 173.273C421.569 174.093 422.185 174.504 423.005 174.093C423.826 173.683 424.441 172.657 424.441 171.632C424.441 170.606 423.826 170.401 423.005 170.811Z" fill="#5A5A8C"></path> <path d="M421.775 173.887C421.98 173.887 421.98 173.887 421.775 173.887C421.98 173.887 421.98 173.887 421.775 173.887C421.98 173.887 421.98 173.887 421.775 173.887C421.98 173.887 421.98 173.887 421.775 173.887C421.98 173.887 421.98 173.887 421.775 173.887C421.98 173.887 421.98 173.887 421.775 173.887C421.98 174.092 421.98 174.092 421.775 173.887C421.98 174.092 421.98 174.092 421.775 173.887C421.98 174.092 421.98 174.092 421.98 174.092L395.52 158.708C395.109 158.503 395.109 158.093 395.109 157.683C395.109 157.478 395.109 157.272 395.109 157.272C404.75 162.811 407.211 164.246 421.57 172.656C421.57 172.861 421.57 173.477 421.775 173.887Z" fill="#748CAF"></path> <path d="M418.494 179.629C418.494 179.424 418.494 179.424 418.494 179.629C418.288 179.424 418.288 179.424 418.494 179.629C418.288 179.424 418.288 179.424 418.288 179.424L418.083 179.219C418.083 179.219 418.083 179.219 417.878 179.014C416.648 176.963 417.058 174.091 417.878 172.04C418.699 169.578 420.34 167.322 422.391 165.886C423.006 165.476 423.622 165.066 424.237 164.861C424.852 164.656 425.673 164.45 426.288 164.656C426.493 164.656 426.903 164.861 427.109 164.861C427.109 164.861 427.314 164.861 427.314 165.066L420.135 160.963C420.135 160.963 419.929 160.963 419.929 160.758C419.109 160.348 418.083 160.553 417.263 160.758C416.442 160.963 415.622 161.579 414.801 162.194C414.801 162.194 414.801 162.194 414.596 162.194C411.93 164.45 410.084 167.732 409.879 171.219C409.674 172.86 410.084 174.912 411.52 175.732L418.699 179.834C418.699 179.834 418.699 179.629 418.494 179.629C418.699 179.629 418.494 179.629 418.494 179.629Z" fill="#474573"></path> <path d="M423.006 165.27C419.724 167.321 416.853 172.039 416.853 175.731C416.853 179.628 419.519 181.269 423.006 179.218C426.288 177.372 429.16 172.654 429.16 168.757C429.16 164.86 426.493 163.424 423.006 165.27Z" fill="#5A5A8C"></path> <path d="M435.928 189.068C435.723 188.863 435.723 188.863 435.723 188.863L435.518 188.657C435.518 188.657 435.518 188.657 435.518 188.452C434.287 186.401 434.698 183.53 435.518 181.478C436.339 179.017 437.98 176.761 440.031 175.325C440.646 174.915 441.261 174.504 441.877 174.299C442.492 174.094 443.313 173.889 443.928 174.094C444.133 174.094 444.543 174.299 444.748 174.299C444.748 174.299 444.954 174.299 444.954 174.504L437.774 170.402C437.774 170.402 437.569 170.402 437.569 170.197C436.749 169.787 435.723 169.992 434.903 170.197C434.082 170.402 433.262 171.017 432.441 171.633C432.441 171.633 432.441 171.633 432.236 171.633C429.57 173.889 427.724 177.171 427.518 180.658C427.313 182.299 427.724 184.35 429.365 185.17L436.544 189.273C436.339 189.273 436.339 189.273 435.928 189.068C436.133 189.273 436.133 189.273 435.928 189.068C436.133 189.273 436.133 189.273 435.928 189.068Z" fill="#474573"></path> <path d="M440.646 174.915C437.364 176.761 434.493 181.684 434.493 185.376C434.493 189.274 437.159 190.709 440.646 188.863C443.928 187.017 446.8 182.3 446.8 178.402C446.8 174.505 444.133 173.069 440.646 174.915Z" fill="#5A5A8C"></path> <path d="M466.696 199.322C466.696 199.117 466.491 199.117 466.696 199.322C466.491 199.117 466.491 199.117 466.696 199.322C466.285 198.707 466.285 198.091 466.491 197.681C466.696 197.066 467.106 196.656 467.516 196.245C467.721 196.245 467.721 196.04 467.926 196.04C468.132 196.04 468.337 196.04 468.337 196.04H468.542L442.287 180.656C442.081 180.656 441.876 180.656 441.671 180.656C441.466 180.656 441.261 180.861 441.056 180.861C440.441 181.272 440.03 182.092 440.03 182.913C440.03 183.323 440.03 183.733 440.441 183.938L466.696 199.322Z" fill="#8CA3C8"></path> <path d="M467.721 196.041C466.901 196.451 466.285 197.477 466.285 198.502C466.285 199.323 466.901 199.733 467.721 199.323C468.541 198.912 469.157 197.887 469.157 196.861C469.157 196.041 468.541 195.631 467.721 196.041Z" fill="#5A5A8C"></path> <path d="M466.491 199.118C466.491 199.118 466.696 199.118 466.491 199.118C466.696 199.323 466.696 199.323 466.491 199.118C466.696 199.323 466.696 199.323 466.491 199.118C466.696 199.323 466.696 199.323 466.491 199.118C466.696 199.323 466.696 199.323 466.491 199.118C466.696 199.323 466.696 199.323 466.491 199.118C466.696 199.323 466.696 199.323 466.491 199.118C466.696 199.323 466.696 199.323 466.491 199.118C466.696 199.323 466.696 199.323 466.696 199.323L440.235 183.939C439.825 183.734 439.825 183.323 439.825 182.913C439.825 182.708 439.825 182.503 439.825 182.503C449.466 188.041 451.927 189.477 466.286 197.887C466.286 198.297 466.286 198.707 466.491 199.118Z" fill="#748CAF"></path> <path d="M463.209 204.86C463.004 204.86 463.004 204.655 463.209 204.86C463.004 204.655 463.004 204.655 463.004 204.655L462.799 204.449C462.799 204.449 462.799 204.449 462.594 204.244C461.363 202.193 461.773 199.322 462.594 197.27C463.414 194.809 465.055 192.553 467.106 191.117C467.722 190.707 468.337 190.296 468.952 190.091C469.568 189.886 470.388 189.681 471.003 189.886C471.209 189.886 471.619 190.091 471.824 190.091C471.824 190.091 472.029 190.091 472.029 190.296L464.85 186.194C464.85 186.194 464.645 186.194 464.645 185.989C463.824 185.579 462.799 185.784 461.978 185.989C461.158 186.194 460.337 186.809 459.517 187.425C459.517 187.425 459.517 187.425 459.312 187.425C456.645 189.681 454.799 192.963 454.594 196.45C454.389 198.091 454.799 200.142 456.235 200.962L463.414 205.065C463.414 205.065 463.414 205.065 463.209 204.86C463.414 205.065 463.209 205.065 463.209 204.86Z" fill="#474573"></path> <path d="M467.721 190.708C464.44 192.759 461.568 197.476 461.568 201.169C461.568 205.066 464.234 206.707 467.721 204.656C471.003 202.81 473.875 198.092 473.875 194.195C473.875 190.297 471.208 188.656 467.721 190.708Z" fill="#5A5A8C"></path> <path d="M355.727 138.816C357.983 137.585 361.47 137.585 363.727 138.816C365.163 139.636 365.573 140.662 365.368 141.687H367.009V133.482H353.061V141.687H354.086C353.881 140.662 354.291 139.636 355.727 138.816Z" fill="#5A5A8C"></path> <path d="M375.829 137.581C375.829 139.222 374.803 140.863 373.777 141.889C372.547 143.119 371.111 143.94 369.47 144.76C364.342 147.017 358.599 147.222 353.06 145.786C351.42 145.376 349.779 144.76 348.343 143.94C345.266 142.094 343.625 139.632 343.625 137.376V142.299C343.625 144.76 345.266 147.017 348.343 148.863C348.548 149.068 348.753 149.068 348.958 149.273H349.163C354.086 151.734 360.035 152.145 365.368 150.914C365.983 150.709 366.598 150.504 367.419 150.298C370.906 149.273 375.213 146.811 375.829 142.709C375.829 142.709 375.829 142.709 375.829 142.504C375.829 142.504 375.829 142.504 375.829 142.299C375.829 142.299 375.829 142.299 375.829 142.094C375.829 142.094 375.829 142.094 375.829 141.889C375.624 139.427 375.624 140.453 375.829 137.581Z" fill="#5A5A8C"></path> <path d="M371.111 131.019C364.752 127.327 354.701 127.327 348.343 131.019C342.189 134.711 342.189 140.455 348.343 144.147C354.701 147.839 364.752 147.839 371.111 144.147C377.264 140.66 377.264 134.711 371.111 131.019ZM363.727 140.044C361.47 141.275 357.983 141.275 355.727 140.044C353.471 138.814 353.471 136.762 355.727 135.327C357.983 134.096 361.47 134.096 363.727 135.327C365.983 136.557 365.983 138.608 363.727 140.044Z" fill="#474573"></path> <path d="M355.727 133.275C357.983 132.045 361.47 132.045 363.727 133.275C365.163 134.096 365.573 135.122 365.368 136.147H367.009V127.942H353.061V136.147H354.086C353.881 135.122 354.291 134.096 355.727 133.275Z" fill="#5A5A8C"></path> <path d="M375.829 132.041C375.829 133.682 374.803 135.323 373.777 136.349C372.547 137.579 371.111 138.4 369.47 139.22C364.342 141.477 358.599 141.682 353.06 140.246C351.42 139.836 349.779 139.22 348.343 138.4C345.266 136.554 343.625 134.092 343.625 131.836V136.759C343.625 139.22 345.266 141.477 348.343 143.323C348.548 143.528 348.753 143.528 348.958 143.733H349.163C354.086 146.194 360.035 146.604 365.368 145.374C365.983 145.169 366.598 144.964 367.419 144.758C370.906 143.733 375.213 141.271 375.829 137.169C375.829 137.169 375.829 137.169 375.829 136.964C375.829 136.964 375.829 136.964 375.829 136.759C375.829 136.759 375.829 136.759 375.829 136.554C375.829 136.554 375.829 136.554 375.829 136.349C375.624 133.887 375.624 134.708 375.829 132.041C375.829 131.836 375.829 132.041 375.829 132.041Z" fill="#5A5A8C"></path> <path d="M371.111 125.479C364.752 121.787 354.701 121.787 348.343 125.479C342.189 129.171 342.189 134.915 348.343 138.607C354.701 142.299 364.752 142.299 371.111 138.607C377.264 134.915 377.264 129.171 371.111 125.479ZM363.727 134.299C361.47 135.53 357.983 135.53 355.727 134.299C353.471 133.068 353.471 131.017 355.727 129.581C357.983 128.351 361.47 128.351 363.727 129.581C365.983 131.017 365.983 133.068 363.727 134.299Z" fill="#474573"></path> <path d="M355.727 127.739C357.983 126.509 361.47 126.509 363.727 127.739C365.163 128.56 365.573 129.585 365.368 130.611H367.009V122.406H353.061V130.611H354.086C353.881 129.585 354.291 128.355 355.727 127.739Z" fill="#5A5A8C"></path> <path d="M375.829 126.505C375.829 128.146 374.803 129.787 373.777 130.812C372.547 132.043 371.111 132.864 369.47 133.684C364.342 135.94 358.599 136.145 353.06 134.71C351.42 134.299 349.779 133.684 348.343 132.864C345.266 131.018 343.625 128.556 343.625 126.3V131.223C343.625 133.684 345.266 135.94 348.343 137.786C348.548 137.992 348.753 137.992 348.958 138.197H349.163C354.086 140.658 360.035 141.068 365.368 139.838C365.983 139.633 366.598 139.427 367.419 139.222C370.906 138.197 375.213 135.735 375.829 131.633C375.829 131.633 375.829 131.633 375.829 131.428C375.829 131.428 375.829 131.428 375.829 131.223C375.829 131.223 375.829 131.223 375.829 131.018C375.624 128.146 375.624 129.171 375.829 126.505C375.829 126.3 375.829 126.3 375.829 126.505Z" fill="#5A5A8C"></path> <path d="M371.111 119.943C364.752 116.251 354.701 116.251 348.343 119.943C342.189 123.635 342.189 129.378 348.343 133.071C354.701 136.763 364.752 136.763 371.111 133.071C377.264 129.378 377.264 123.43 371.111 119.943ZM363.727 128.763C361.47 129.994 357.983 129.994 355.727 128.763C353.471 127.532 353.471 125.481 355.727 124.045C357.983 122.815 361.47 122.815 363.727 124.045C365.983 125.276 365.983 127.532 363.727 128.763Z" fill="#474573"></path> <path d="M404.75 205.067V214.092L262.603 131.429V122.609L404.75 205.067Z" fill="#474573"></path> <path d="M404.75 205.066V214.091L415.417 207.732V198.912L404.75 205.066Z" fill="#4F4F7C"></path> <path d="M262.603 122.61L404.75 205.067L415.416 198.914L273.269 116.456L262.603 122.61Z" fill="#5A5A8C"></path> <path d="M351.624 171.427L407.006 203.836L413.16 200.144L357.778 167.735L351.624 171.427Z" fill="#8CA3C8"></path> <path d="M413.16 200.146L407.006 203.838V210.196L413.16 206.504V200.146Z" fill="#748CAF"></path> <path d="M358.804 233.374V239.323L403.52 213.273V207.529L358.804 233.374Z" fill="#404158"></path> <path d="M358.804 233.373V239.321L217.887 157.274V151.53L358.804 233.373Z" fill="#474573"></path> <path d="M403.52 207.529L358.804 233.374L217.887 151.531L262.603 125.687L403.52 207.529Z" fill="#57576E"></path> <path d="M349.779 236.861V245.886L207.836 163.429V154.403L349.779 236.861Z" fill="#474573"></path> <path d="M349.778 236.859V245.884L360.444 239.73V230.705L349.778 236.859Z" fill="#4F4F7C"></path> <path d="M207.836 154.403L349.779 236.86L360.445 230.707L218.503 148.249L207.836 154.403Z" fill="#5A5A8C"></path> <path d="M296.653 203.221L352.035 235.63L358.394 231.938L303.011 199.529L296.653 203.221Z" fill="#8CA3C8"></path> <path d="M358.393 231.939L352.035 235.632V242.195L358.393 238.503V231.939Z" fill="#748CAF"></path> <path d="M347.317 121.583C347.317 121.583 347.317 121.378 347.317 121.583C347.317 121.378 347.317 121.378 347.317 121.583C347.112 121.378 347.112 121.378 347.112 121.378C346.497 119.942 346.702 117.891 347.112 116.455C347.522 114.814 348.343 113.174 349.368 111.943C349.574 111.738 349.984 111.327 350.394 111.122C350.804 110.917 351.009 110.917 351.42 110.917C351.625 110.917 351.625 110.917 351.83 111.122C351.83 111.122 351.83 111.122 352.035 111.122L286.397 72.9703C286.397 72.9703 286.192 72.9703 286.192 72.7652C285.782 72.56 285.371 72.56 284.961 72.7652C284.551 72.9703 284.141 73.3805 283.73 73.7908C282.5 75.4317 281.474 77.8931 281.269 80.3546C281.269 81.5853 281.269 83.0211 282.09 83.6365L347.317 121.583C347.522 121.789 347.522 121.583 347.317 121.583Z" fill="#404158"></path> <path d="M349.778 111.327C348.137 112.763 346.702 116.045 346.702 118.916C346.702 121.788 348.137 122.814 349.778 121.378C351.419 119.942 352.855 116.66 352.855 113.788C352.855 110.917 351.419 109.891 349.778 111.327Z" fill="#323449"></path> <path d="M351.83 110.915C352.035 110.915 351.83 110.915 351.625 110.71C351.625 110.71 351.625 110.915 351.83 110.915Z" fill="#494A63"></path> <path d="M283.32 73.7908C283.32 73.7908 283.525 73.7908 283.32 73.7908C283.525 73.5856 283.525 73.5856 283.32 73.7908C283.73 73.1754 284.141 72.9703 284.551 72.7652C284.961 72.56 285.371 72.56 285.782 72.7652C285.782 72.7652 285.987 72.7652 285.987 72.9703C285.987 72.9703 346.086 107.84 351.214 110.917H351.009C350.599 110.917 350.189 110.917 349.984 111.122C349.573 111.327 349.368 111.533 348.958 111.943C348.343 112.558 347.727 113.379 347.317 114.404L281.679 76.2522C282.5 75.0215 282.91 74.4061 283.32 73.7908Z" fill="#494A63"></path> <path d="M234.092 81.3818L261.578 109.688L243.117 120.56C242.912 120.354 223.426 102.304 234.092 81.3818Z" fill="#5A5A8C"></path> <path d="M234.092 81.3818L236.963 84.2535C231.63 100.868 243.527 114.816 246.809 118.303L242.912 120.56C242.912 120.354 223.425 102.304 234.092 81.3818Z" fill="#474573"></path> <path d="M261.988 108.047L266.09 112.149L247.63 123.021C247.63 123.021 245.989 121.38 243.732 118.713L261.988 108.047Z" fill="#474573"></path> <path d="M245.989 120.969L229.374 162.403L232.451 160.557L248.86 119.123L245.989 120.969Z" fill="#8CA3C8"></path> <path d="M245.989 120.971L229.374 162.405L222.195 158.097L238.604 116.663L245.989 120.971Z" fill="#748CAF"></path> <path d="M248.86 119.123L245.989 120.969L238.604 116.661L241.681 115.021L248.86 119.123Z" fill="#DDD3D9"></path> <path d="M301.165 88.763L284.756 130.197L287.628 128.351L304.037 87.1221L301.165 88.763Z" fill="#8CA3C8"></path> <path d="M301.165 88.7645L284.756 130.198L277.577 125.891L293.986 84.6621L301.165 88.7645Z" fill="#748CAF"></path> <path d="M304.037 87.1229L301.165 88.7639L293.986 84.6615L296.858 82.8154L304.037 87.1229Z" fill="#DDD3D9"></path> <path d="M261.783 112.558V117.686L310.396 89.7901V84.457L261.783 112.558Z" fill="#404158"></path> <path d="M229.579 82.8138L230.194 80.9678L261.988 112.556V117.889L230.605 86.9162C229.579 85.6855 229.169 84.2497 229.579 82.8138Z" fill="#323449"></path> <path d="M310.396 84.4564L261.783 112.558L230.194 80.9694L278.602 52.8682L310.396 84.4564Z" fill="#57576E"></path> <path d="M294.396 152.351C294.191 152.146 294.191 152.146 294.396 152.351C294.191 152.146 294.191 152.146 294.191 152.146C293.576 150.71 293.781 148.659 294.191 147.223C294.601 145.582 295.422 143.941 296.448 142.71C296.653 142.505 297.063 142.095 297.473 141.89C297.883 141.685 298.088 141.685 298.499 141.685C298.704 141.685 298.704 141.685 298.909 141.89C298.909 141.89 298.909 141.89 299.114 141.89L233.476 103.738C233.476 103.738 233.271 103.738 233.271 103.533C232.861 103.328 232.451 103.328 232.04 103.533C231.63 103.738 231.22 104.148 230.81 104.558C229.579 106.199 228.553 108.661 228.348 111.122C228.348 112.353 228.348 113.789 229.169 114.404L294.396 152.351C294.601 152.556 294.601 152.556 294.396 152.351C294.396 152.556 294.396 152.351 294.396 152.351Z" fill="#404158"></path> <path d="M296.653 142.097C295.012 143.533 293.576 146.814 293.576 149.686C293.576 152.558 295.012 153.583 296.653 152.147C298.294 150.712 299.73 147.43 299.73 144.558C299.73 141.892 298.499 140.661 296.653 142.097Z" fill="#323449"></path> <path d="M298.909 141.683C299.114 141.683 298.909 141.683 298.704 141.478C298.704 141.683 298.704 141.683 298.909 141.683C298.704 141.683 298.909 141.683 298.909 141.683Z" fill="#494A63"></path> <path d="M230.399 104.558C230.604 104.558 230.604 104.558 230.399 104.558C230.809 103.943 231.22 103.738 231.63 103.533C232.04 103.328 232.45 103.328 232.861 103.533C232.861 103.533 233.066 103.533 233.066 103.738C233.066 103.738 293.166 138.608 298.294 141.685H298.088C297.678 141.685 297.268 141.685 297.063 141.89C296.653 142.095 296.447 142.3 296.037 142.71C295.422 143.326 294.807 144.146 294.396 145.172L228.758 107.02C229.579 105.994 229.989 105.174 230.399 104.558Z" fill="#494A63"></path> <path d="M295.217 73.3822L269.372 88.3559L252.552 71.5362L278.397 56.5625L295.217 73.3822Z" fill="#7FCCC5"></path> <path d="M253.988 77.075L247.629 80.7672L243.527 76.6648L249.886 72.9727L253.988 77.075Z" fill="#F6CB49"></path> <path d="M239.63 82.4066L236.553 84.0476L234.707 82.2015L237.579 80.5605L239.63 82.4066Z" fill="#E65A29"></path> <path d="M241.886 84.6615L239.015 86.3024L237.168 84.4564L240.04 82.8154L241.886 84.6615Z" fill="#E65A29"></path> <path d="M246.604 89.3812L243.732 91.0222L241.886 89.1761L244.758 87.5352L246.604 89.3812Z" fill="#E65A29"></path> <path d="M249.065 91.6361L245.989 93.4822L244.143 91.431L247.014 89.79L249.065 91.6361Z" fill="#E65A29"></path> <path d="M251.321 94.0961L248.45 95.737L246.604 93.8909L249.475 92.25L251.321 94.0961Z" fill="#E65A29"></path> <path d="M253.578 96.3558L250.706 97.9968L248.86 96.1507L251.732 94.5098L253.578 96.3558Z" fill="#E65A29"></path> <path d="M259.321 82.203L252.963 85.8951L248.86 81.7927L255.014 78.1006L259.321 82.203Z" fill="#F6CB49"></path> <path d="M264.449 87.3309L258.091 91.023L253.988 86.9207L260.347 83.2285L264.449 87.3309Z" fill="#F6CB49"></path> <path d="M306.704 84.2521L297.883 89.3801L291.935 83.6368L300.96 78.5088L306.704 84.2521Z" fill="#8CA3C8"></path> <path d="M271.628 104.56L262.603 109.893L256.655 103.944L265.68 98.8164L271.628 104.56Z" fill="#8CA3C8"></path> <path d="M278.397 56.5625L269.372 88.3559L252.552 71.5362L278.397 56.5625Z" fill="#47B4A9"></path> <path d="M313.267 254.294V263.319L171.12 180.656V171.836L313.267 254.294Z" fill="#474573"></path> <path d="M313.268 254.292V263.317L323.934 256.959V248.139L313.268 254.292Z" fill="#4F4F7C"></path> <path d="M171.12 171.836L313.267 254.294L323.934 248.14L181.786 165.683L171.12 171.836Z" fill="#5A5A8C"></path> <path d="M260.142 220.654L315.524 253.063L321.677 249.371L266.5 216.962L260.142 220.654Z" fill="#8CA3C8"></path> <path d="M321.677 249.372L315.523 253.064V259.423L321.677 255.731V249.372Z" fill="#748CAF"></path> <path d="M267.526 282.601V288.549L312.242 262.499V256.756L267.526 282.601Z" fill="#404158"></path> <path d="M267.526 282.599V288.548L126.404 206.5V200.757L267.526 282.599Z" fill="#474573"></path> <path d="M312.242 256.755L267.526 282.6L126.404 200.758L171.12 174.913L312.242 256.755Z" fill="#57576E"></path> <path d="M258.501 286.087V295.112L116.354 212.654V203.629L258.501 286.087Z" fill="#474573"></path> <path d="M258.501 286.085V295.11L268.962 288.957V279.932L258.501 286.085Z" fill="#4F4F7C"></path> <path d="M116.354 203.629L258.501 286.087L268.962 279.933L127.02 197.476L116.354 203.629Z" fill="#5A5A8C"></path> <path d="M205.375 252.448L260.552 284.857L266.911 281.165L211.529 248.756L205.375 252.448Z" fill="#8CA3C8"></path> <path d="M266.911 281.166L260.552 284.858V291.422L266.911 287.73V281.166Z" fill="#748CAF"></path> <path d="M255.834 170.811C255.834 170.811 255.834 170.606 255.834 170.811C255.834 170.606 255.834 170.606 255.834 170.811C255.629 170.606 255.629 170.606 255.629 170.606C255.014 169.17 255.219 167.119 255.629 165.683C256.039 164.042 256.86 162.401 257.886 161.17C258.091 160.965 258.501 160.555 258.911 160.35C259.321 160.145 259.526 160.145 259.937 160.145C260.142 160.145 260.142 160.145 260.347 160.35C260.347 160.35 260.347 160.35 260.552 160.35L194.914 122.198C194.914 122.198 194.709 122.198 194.709 121.993C194.299 121.788 193.889 121.788 193.478 121.993C193.068 122.198 192.658 122.608 192.248 123.018C191.017 124.659 189.991 127.121 189.786 129.582C189.786 130.813 189.786 132.249 190.607 132.864L255.834 170.811C256.039 171.016 256.039 170.811 255.834 170.811C256.039 170.811 256.039 170.811 255.834 170.811Z" fill="#404158"></path> <path d="M258.296 160.554C256.655 161.989 255.219 165.271 255.219 168.143C255.219 171.015 256.655 172.04 258.296 170.604C259.936 169.169 261.372 165.887 261.372 163.015C261.372 160.143 259.936 159.118 258.296 160.554Z" fill="#323449"></path> <path d="M260.347 160.142C260.552 160.142 260.347 160.142 260.142 159.937C260.142 159.937 260.142 160.142 260.347 160.142Z" fill="#494A63"></path> <path d="M192.042 123.017C192.042 122.812 192.042 122.812 192.042 123.017C192.453 122.402 192.863 122.197 193.273 121.992C193.683 121.787 194.094 121.787 194.504 121.992C194.504 121.992 194.709 121.992 194.709 122.197C194.709 122.197 254.809 157.067 259.937 160.144H259.731C259.321 160.144 258.911 160.144 258.706 160.349C258.296 160.554 258.091 160.759 257.68 161.169C257.065 161.785 256.45 162.605 256.039 163.631L190.401 125.479C191.017 124.248 191.427 123.633 192.042 123.017Z" fill="#494A63"></path> <path d="M142.609 130.608L170.095 158.915L151.634 169.786C151.429 169.581 131.943 151.531 142.609 130.608Z" fill="#5A5A8C"></path> <path d="M142.609 130.608L145.48 133.48C140.147 150.095 152.044 164.043 155.326 167.53L151.429 169.786C151.429 169.581 131.942 151.531 142.609 130.608Z" fill="#474573"></path> <path d="M170.71 157.273L174.813 161.376L156.352 172.247C156.352 172.247 154.711 170.606 152.455 167.94L170.71 157.273Z" fill="#474573"></path> <path d="M154.506 170.196L137.891 211.63L140.968 209.784L157.377 168.35L154.506 170.196Z" fill="#8CA3C8"></path> <path d="M154.506 170.197L137.891 211.631L130.712 207.324L147.327 165.89L154.506 170.197Z" fill="#748CAF"></path> <path d="M157.377 168.349L154.506 170.196L147.327 165.888L150.198 164.247L157.377 168.349Z" fill="#DDD3D9"></path> <path d="M209.682 137.99L193.273 179.424L196.145 177.577L212.759 136.349L209.682 137.99Z" fill="#8CA3C8"></path> <path d="M209.682 137.991L193.273 179.425L186.094 175.118L202.503 133.889L209.682 137.991Z" fill="#748CAF"></path> <path d="M212.759 136.349L209.683 137.99L202.503 133.888L205.375 132.042L212.759 136.349Z" fill="#DDD3D9"></path> <path d="M170.3 161.787V166.915L218.913 139.019V133.686L170.3 161.787Z" fill="#404158"></path> <path d="M138.096 132.042L138.712 130.196L170.3 161.785V167.118L139.122 135.94C138.096 134.914 137.686 133.478 138.096 132.042Z" fill="#323449"></path> <path d="M218.913 133.685L170.3 161.786L138.711 130.198L187.119 102.097L218.913 133.685Z" fill="#57576E"></path> <path d="M202.913 201.578C202.913 201.578 202.913 201.372 202.913 201.578C202.708 201.372 202.708 201.372 202.708 201.372C202.093 199.937 202.298 197.885 202.708 196.45C203.119 194.809 203.939 193.168 204.965 191.937C205.17 191.732 205.58 191.322 205.99 191.116C206.4 190.911 206.606 190.911 207.016 190.911C207.221 190.911 207.221 190.911 207.426 191.116C207.426 191.116 207.426 191.116 207.631 191.116L141.993 152.964C141.993 152.964 141.788 152.964 141.788 152.759C141.378 152.554 140.968 152.554 140.557 152.759C140.147 152.964 139.737 153.375 139.327 153.785C138.096 155.426 137.07 157.887 136.865 160.349C136.865 161.579 136.865 163.015 137.686 163.631L202.913 201.578C203.119 201.783 203.119 201.783 202.913 201.578C202.913 201.783 202.913 201.578 202.913 201.578Z" fill="#404158"></path> <path d="M205.375 191.323C203.734 192.759 202.298 196.041 202.298 198.913C202.298 201.784 203.734 202.81 205.375 201.374C207.016 199.938 208.451 196.656 208.451 193.785C208.451 191.118 207.016 189.887 205.375 191.323Z" fill="#323449"></path> <path d="M207.426 190.909C207.631 190.909 207.426 190.909 207.221 190.704C207.221 190.909 207.221 190.909 207.426 190.909Z" fill="#494A63"></path> <path d="M138.916 153.785C139.121 153.785 139.121 153.785 138.916 153.785C139.121 153.785 139.121 153.785 138.916 153.785C139.327 153.17 139.737 152.964 140.147 152.759C140.557 152.554 140.968 152.554 141.378 152.759C141.378 152.759 141.583 152.759 141.583 152.964C141.583 152.964 201.683 187.835 206.811 190.911H206.605C206.195 190.911 205.785 190.911 205.58 191.116C205.17 191.322 204.965 191.527 204.554 191.937C203.939 192.552 203.324 193.373 202.913 194.398L137.275 156.246C138.096 155.221 138.506 154.4 138.916 153.785Z" fill="#494A63"></path> <path d="M203.734 122.61L177.889 137.583L161.069 120.764L186.914 105.79L203.734 122.61Z" fill="#7FCCC5"></path> <path d="M162.505 126.302L156.351 129.994L152.044 125.891L158.403 122.199L162.505 126.302Z" fill="#F6CB49"></path> <path d="M148.147 131.633L145.275 133.274L143.224 131.428L146.301 129.787L148.147 131.633Z" fill="#E65A29"></path> <path d="M150.403 133.888L147.532 135.529L145.686 133.683L148.557 132.042L150.403 133.888Z" fill="#E65A29"></path> <path d="M155.121 138.608L152.249 140.249L150.403 138.403L153.275 136.762L155.121 138.608Z" fill="#E65A29"></path> <path d="M157.582 140.864L154.71 142.71L152.659 140.659L155.531 139.018L157.582 140.864Z" fill="#E65A29"></path> <path d="M159.838 143.323L156.967 144.964L155.121 143.118L157.992 141.477L159.838 143.323Z" fill="#E65A29"></path> <path d="M162.3 145.582L159.429 147.223L157.377 145.377L160.249 143.736L162.3 145.582Z" fill="#E65A29"></path> <path d="M167.839 131.43L161.48 135.122L157.377 131.019L163.736 127.327L167.839 131.43Z" fill="#F6CB49"></path> <path d="M172.966 136.557L166.608 140.25L162.505 136.147L168.864 132.455L172.966 136.557Z" fill="#F6CB49"></path> <path d="M215.221 133.479L206.401 138.607L200.452 132.863L209.477 127.735L215.221 133.479Z" fill="#8CA3C8"></path> <path d="M180.145 153.786L171.12 159.119L165.376 153.171L174.197 148.043L180.145 153.786Z" fill="#8CA3C8"></path> <path d="M186.914 105.79L177.889 137.583L161.069 120.764L186.914 105.79Z" fill="#47B4A9"></path> <path d="M204.555 222.297C204.555 222.297 201.068 221.271 199.222 224.963C197.376 228.861 202.914 231.117 207.016 232.758C209.888 233.989 211.118 234.809 213.785 236.45C215.631 237.476 222.605 236.45 222.195 231.527L220.144 225.374L204.555 222.297Z" fill="#DDE4E8"></path> <path d="M220.144 202.809L212.144 225.578C212.144 225.578 213.785 229.475 220.144 228.244C220.144 228.244 227.733 216.347 233.887 202.194L222.195 198.297L220.144 202.809Z" fill="#DDB07F"></path> <path d="M253.167 205.476C253.167 205.476 244.757 215.117 234.501 213.066L242.501 202.399L253.167 205.476Z" fill="#4D5051"></path> <path d="M263.629 129.582C263.629 129.582 254.398 119.737 251.527 116.044C248.655 112.352 248.245 107.84 251.937 106.609C255.629 105.378 260.962 109.891 265.68 115.634C270.398 121.378 282.295 131.633 276.756 136.351C272.039 140.454 263.629 129.582 263.629 129.582Z" fill="#FCCC8A"></path> <path d="M262.193 151.53L276.551 136.556C279.013 133.685 277.782 129.582 274.5 128.147L273.885 127.941C271.628 127.121 269.577 128.147 268.141 130.198L257.27 147.017C257.27 147.017 256.45 153.376 262.193 151.53Z" fill="#FCCC8A"></path> <path d="M257.065 147.017C257.065 147.017 254.399 147.837 253.168 149.068C252.553 149.683 251.527 149.478 249.681 150.093C247.835 150.709 249.886 152.35 252.347 151.939C254.604 151.324 249.886 152.555 249.886 153.17C249.886 153.786 249.886 155.221 249.886 155.221C249.886 155.221 253.578 159.324 256.245 157.888C258.911 156.452 261.988 151.734 261.988 151.734L257.065 147.017Z" fill="#FCCC8A"></path> <path d="M260.962 117.07C262.398 115.839 263.219 114.198 263.629 112.352C259.732 108.045 255.424 105.173 252.142 106.404C248.04 108.045 248.45 112.557 251.117 116.25C251.937 117.275 253.168 118.916 254.604 120.557C256.245 120.352 257.886 119.737 259.116 118.711L260.962 117.07Z" fill="#ECF3F7"></path> <path d="M229.784 169.171C229.784 169.171 219.323 200.759 219.118 201.785C222.4 204.246 227.938 207.733 234.502 207.528C234.707 207.118 238.604 191.529 238.604 191.529L241.476 181.068C245.168 159.735 229.784 169.171 229.784 169.171Z" fill="#3E4242"></path> <path d="M240.45 193.581L247.219 200.76C247.219 200.76 251.322 204.657 256.45 207.939C261.578 211.221 275.936 226.195 275.936 226.195C275.936 226.195 280.038 229.477 277.782 232.759C274.5 237.682 268.962 232.964 268.962 232.964C268.962 232.964 254.399 222.093 245.168 217.17C241.066 214.913 237.784 212.657 235.323 210.811C232.451 208.555 235.117 205.478 236.963 202.401C238.604 199.735 237.169 195.837 240.45 193.581Z" fill="#FCCC8A"></path> <path d="M233.887 212.86L230.81 200.964C228.759 193.169 227.733 185.375 227.323 177.375L226.708 165.068C226.708 164.863 226.708 164.658 227.118 164.658L255.219 158.094C255.424 158.094 255.834 158.299 255.629 158.504L254.399 170.811C253.373 176.349 250.912 178.195 250.501 187.631C250.706 188.451 253.373 203.835 253.373 203.835C253.373 204.451 254.193 205.681 253.373 205.681L252.347 204.861C250.091 203.015 245.168 203.425 242.502 204.656C239.425 206.092 234.707 212.86 234.707 212.86C234.297 213.271 233.887 213.066 233.887 212.86Z" fill="#5D6163"></path> <path d="M229.168 79.1235C229.168 79.1235 226.707 85.0719 227.322 100.456C227.322 100.456 229.784 101.892 233.271 100.251C233.271 100.251 234.707 101.276 235.117 105.174C235.117 105.174 242.091 108.455 245.988 102.917C245.988 102.917 245.168 101.481 247.014 98.6098C248.86 95.9432 252.962 93.0716 252.757 84.8668C252.552 76.6621 248.039 71.9443 242.296 71.9443C238.194 71.9443 234.912 72.9699 231.425 72.3546C227.733 71.7392 225.681 76.4569 228.758 78.7132C228.963 78.9184 228.963 78.9184 229.168 79.1235Z" fill="#FCCC8A"></path> <path d="M234.912 103.944C234.912 103.944 229.989 104.559 228.553 109.277C228.553 109.277 233.271 112.149 240.245 110.097C247.219 108.046 249.886 104.354 249.886 104.354C249.886 104.354 251.321 102.303 245.988 101.482C245.988 101.688 245.783 106.61 234.912 103.944Z" fill="#ECF3F7"></path> <path d="M254.809 103.122C248.245 100.661 245.989 101.687 245.989 101.687C247.014 102.097 247.014 103.327 246.399 104.148C245.989 104.763 245.373 105.584 242.297 106.199C236.348 107.225 232.451 104.763 232.451 104.763C225.272 107.02 224.041 114.199 224.656 120.968C225.067 127.531 221.99 134.505 222.195 140.864C222.4 147.223 223.631 165.684 223.631 165.684L229.784 168.145C255.424 168.35 256.45 163.427 256.45 163.427C256.45 163.427 257.886 156.043 257.886 144.556C257.886 136.146 258.501 129.172 259.732 123.224C260.962 117.276 261.373 105.584 254.809 103.122Z" fill="#E86464"></path> <path d="M238.399 89.3799C238.194 89.585 238.194 89.7901 238.194 89.7901C238.194 89.7901 238.194 89.585 238.399 89.3799Z" fill="#FCCC8A"></path> <path d="M239.014 93.2757C239.014 93.2757 240.86 96.7627 242.911 97.9934C244.347 99.019 245.783 98.1985 247.629 97.9934C249.475 95.532 253.167 92.4552 252.757 85.0709C252.552 76.8662 248.039 72.1484 242.296 72.1484C238.194 72.1484 234.912 73.174 231.425 72.5587C227.733 71.9433 225.681 76.6611 228.758 78.9174C228.963 78.9174 228.963 79.1225 229.168 79.1225C229.168 79.1225 230.809 82.8146 235.732 83.2248C237.168 83.43 236.758 88.9682 238.399 89.3784C239.835 89.9938 240.04 87.3272 241.476 88.3528C243.527 89.7886 242.296 93.891 239.014 93.2757Z" fill="#593522"></path> <path d="M207.837 134.301L222.195 152.556C224.861 155.633 229.784 155.018 231.835 151.531L232.246 150.915C233.681 148.454 232.861 145.993 230.605 144.146L212.965 129.788C212.759 129.993 206.811 127.737 207.837 134.301Z" fill="#FCCC8A"></path> <path d="M212.964 129.991C212.964 129.991 213.375 127.119 211.939 124.863C211.529 124.042 211.734 123.017 211.323 120.966C210.913 118.915 208.657 120.966 209.067 123.632C209.272 126.299 208.862 120.966 208.247 120.761C207.631 120.555 205.99 120.555 205.99 120.555C205.99 120.555 200.862 124.042 202.093 127.324C203.324 130.401 208.042 134.709 208.042 134.709L212.964 129.991Z" fill="#FCCC8A"></path> <path d="M221.58 138.403C221.58 138.403 221.375 123.429 221.785 118.301C222.195 112.968 225.067 109.071 229.169 110.917C233.271 112.763 234.092 120.352 233.682 128.557C233.271 136.762 235.323 154.197 227.118 153.992C220.554 153.582 221.58 138.403 221.58 138.403Z" fill="#FCCC8A"></path> <path d="M222.195 147.427C221.374 143.119 221.58 138.401 221.58 138.401C221.58 138.401 221.58 137.581 221.58 136.555L217.682 133.889C217.477 135.94 217.682 142.093 222.195 147.427Z" fill="#E8BD89"></path> <path d="M228.758 126.302C230.81 126.302 232.861 125.686 234.502 124.456C234.502 117.892 233.066 112.354 229.374 110.918C224.861 109.072 221.579 113.174 221.169 118.302C220.964 119.738 220.964 121.994 220.964 124.456C222.4 125.481 224.246 126.302 226.092 126.302H228.758Z" fill="#ECF3F7"></path> <path d="M266.09 232.964L261.578 247.937C261.783 249.578 263.219 250.809 265.065 250.809C269.577 250.604 273.475 247.937 275.731 244.04L279.013 238.297L282.5 235.22C284.141 233.989 285.166 232.143 285.371 230.092C285.782 227.426 284.141 224.964 281.474 224.554L273.475 223.323L273.269 223.528C270.398 226.195 267.936 229.477 266.09 232.964Z" fill="#ECF3F7"></path> <path d="M285.371 230.298C285.576 229.273 285.371 228.247 284.961 227.427C281.064 228.452 277.987 232.965 276.141 235.632C274.09 238.503 272.244 239.734 272.244 239.734C265.68 245.272 263.424 248.554 262.603 249.99C263.218 250.605 264.039 250.81 265.064 250.81C269.577 250.605 273.474 247.939 275.731 244.041L279.013 238.298L282.5 235.221C283.935 234.196 285.166 232.35 285.371 230.298Z" fill="#BCC0CE"></path> <path d="M222.4 231.731L222.195 231.32C220.759 233.782 218.092 235.423 216.041 235.012C213.58 234.602 208.042 232.141 208.042 232.141C202.708 230.09 200.042 227.628 198.811 226.192C198.401 229.269 203.324 231.32 207.016 232.961C209.888 234.192 211.118 235.012 213.785 236.653C215.836 237.679 222.81 236.653 222.4 231.731Z" fill="#CAD0E0"></path> <path d="M283.32 225.579C276.756 228.656 273.269 236.861 273.269 236.861C264.654 242.604 262.193 246.706 261.578 248.142C261.783 248.963 261.988 249.578 262.603 249.988C263.424 248.347 265.68 245.27 272.244 239.732C272.244 239.732 274.09 238.707 276.141 235.63C277.987 233.168 281.064 228.451 284.961 227.425C284.756 226.605 284.141 225.989 283.32 225.579Z" fill="#CAD0E0"></path> <defs> <linearGradient id="paint0_linear" x1="0.0513831" y1="284.197" x2="550.931" y2="284.197" gradientUnits="userSpaceOnUse"> <stop offset="0.245" stop-color="#FEF0F2"></stop> <stop offset="0.3397" stop-color="#FEEBED"></stop> <stop offset="0.4566" stop-color="#FFDCE0"></stop> <stop offset="0.5" stop-color="#FFD4DA"></stop> <stop offset="0.52" stop-color="#FFD0D5"></stop> <stop offset="0.596" stop-color="#FFC6CA"></stop> <stop offset="0.7029" stop-color="#FFC1C3"></stop> <stop offset="1" stop-color="#FFBFC1"></stop> </linearGradient> </defs> </svg> 