<?xml version="1.0" encoding="UTF-8"?> <svg xmlns="http://www.w3.org/2000/svg" width="393" height="558" viewBox="0 0 393 558" fill="none"> <path d="M378.37 370.11L217.147 277.025C204.419 269.707 188.764 269.707 176.036 277.025L14.6667 370.11C7.05903 374.501 7.05903 385.624 14.6667 390.015L43.7805 406.846L178.523 328.983C189.642 322.543 203.248 322.543 214.367 328.983L349.11 406.846L378.224 390.015C385.978 385.478 385.978 374.501 378.37 370.11Z" fill="#F7CBDC"></path> <path d="M387.002 369.671L218.025 272.048C204.711 264.291 188.325 264.291 175.012 272.048L6.0349 369.671C-2.01163 374.354 -2.01163 385.917 6.0349 390.454L175.012 488.076C188.325 495.833 204.711 495.833 218.025 488.076L387.002 390.454C394.902 385.77 394.902 374.208 387.002 369.671ZM378.37 390.015L217 483.1C204.272 490.418 188.618 490.418 175.89 483.1L14.6666 390.015C7.05901 385.624 7.05901 374.501 14.6666 370.11L175.89 277.025C188.618 269.707 204.272 269.707 217 277.025L378.224 370.11C385.978 374.501 385.978 385.478 378.37 390.015Z" fill="white"></path> <path d="M6.0347 454.56L175.012 552.182C188.325 559.94 204.711 559.94 218.024 552.182L387.002 454.56C390.952 452.218 393 448.266 393 444.168V380.062C393 384.161 390.952 388.112 387.002 390.454L218.024 487.93C204.711 495.687 188.325 495.687 175.012 487.93L6.0347 390.454C4.4254 389.576 3.10869 388.259 2.23089 386.941L0.036377 381.526V444.168C0.036377 448.12 2.08459 452.218 6.0347 454.56Z" fill="url(#paint0_linear)"></path> <path d="M116.345 482.513L15.983 424.555L15.8367 436.264L116.345 494.661V482.513Z" fill="#D6C5CB"></path> <path d="M155.115 500.37L135.072 488.808V509.444L155.115 521.007V500.37Z" fill="#F97479"></path> <path d="M157.017 501.542V522.179L177.06 533.741V513.104L157.017 501.542Z" fill="#2C9AE5"></path> <path d="M170.916 480.173L24.6151 395.723L20.2261 398.65L166.088 482.807L170.916 480.173Z" fill="white"></path> <path d="M178.523 262.68L38.0747 343.764C31.3449 347.57 31.3449 357.229 38.0747 361.035L178.523 442.118C189.642 448.558 203.248 448.558 214.367 442.118L354.816 361.035C361.545 357.229 361.545 347.57 354.816 343.764L214.367 262.68C203.248 256.241 189.642 256.241 178.523 262.68Z" fill="#9292B7"></path> <path d="M378.37 303.661L217.147 210.575C204.419 203.257 188.764 203.257 176.036 210.575L14.6667 303.661C7.05903 308.052 7.05903 319.175 14.6667 323.566L43.7805 340.397L178.523 262.533C189.642 256.094 203.248 256.094 214.367 262.533L349.11 340.397L378.224 323.566C385.978 319.175 385.978 308.052 378.37 303.661Z" fill="#F7CBDC"></path> <path d="M387.002 303.223L218.025 205.6C204.711 197.843 188.325 197.843 175.012 205.6L6.0349 303.223C-2.01163 307.906 -2.01163 319.469 6.0349 324.006L175.012 421.628C188.325 429.385 204.711 429.385 218.025 421.628L387.002 324.006C394.902 319.469 394.902 307.906 387.002 303.223ZM378.37 323.567L217.147 416.652C204.419 423.97 188.764 423.97 176.036 416.652L14.6666 323.567C7.05901 319.176 7.05901 308.052 14.6666 303.662L175.89 210.576C188.618 203.258 204.272 203.258 217 210.576L378.224 303.662C385.978 308.052 385.978 319.176 378.37 323.567Z" fill="white"></path> <path d="M6.0347 388.113L175.012 485.735C188.325 493.492 204.711 493.492 218.024 485.735L387.002 388.113C390.952 385.771 393 381.819 393 377.721V313.615C393 317.713 390.952 321.665 387.002 324.007L218.024 421.629C204.711 429.386 188.325 429.386 175.012 421.629L6.0347 324.007C4.4254 323.129 3.10869 321.811 2.23089 320.494L0.036377 315.225V377.721C0.036377 381.819 2.08459 385.917 6.0347 388.113Z" fill="url(#paint1_linear)"></path> <path d="M116.345 416.066L15.983 358.107L15.8367 369.963L116.345 428.214V416.066Z" fill="#D6C5CB"></path> <path d="M155.115 434.068L135.072 422.506V442.996L155.115 454.705V434.068Z" fill="#F97479"></path> <path d="M157.017 435.092V455.729L177.06 467.291V446.654L157.017 435.092Z" fill="#2C9AE5"></path> <path d="M170.916 413.871L24.6151 329.274L20.2261 332.202L166.088 416.505L170.916 413.871Z" fill="white"></path> <path d="M378.37 237.067L217 143.982C204.272 136.664 188.618 136.664 175.89 143.982L14.6667 237.067C7.05903 241.458 7.05903 252.581 14.6667 256.972L43.7805 273.803L178.523 195.94C189.642 189.5 203.248 189.5 214.367 195.94L349.11 273.803L378.224 256.972C385.978 252.581 385.978 241.458 378.37 237.067Z" fill="#F7CBDC"></path> <path d="M387.002 236.629L218.025 139.006C204.711 131.249 188.325 131.249 175.012 139.006L6.0349 236.629C-2.01163 241.312 -2.01163 252.875 6.0349 257.412L175.012 355.034C188.325 362.791 204.711 362.791 218.025 355.034L387.002 257.412C394.902 252.875 394.902 241.312 387.002 236.629ZM378.37 256.973L217.147 350.058C204.419 357.376 188.764 357.376 176.036 350.058L14.6666 256.973C7.05901 252.582 7.05901 241.459 14.6666 237.068L175.89 143.983C188.618 136.665 204.272 136.665 217 143.983L378.224 237.068C385.978 241.459 385.978 252.582 378.37 256.973Z" fill="white"></path> <path d="M6.0347 321.518L175.012 419.14C188.325 426.898 204.711 426.898 218.024 419.14L387.002 321.518C390.952 319.176 393 315.225 393 311.126V247.021C393 251.119 390.952 255.07 387.002 257.412L218.024 355.035C204.711 362.792 188.325 362.792 175.012 355.035L6.0347 257.412C4.4254 256.534 3.10869 255.217 2.23089 253.899L0.036377 248.63V311.273C0.036377 315.225 2.08459 319.323 6.0347 321.518Z" fill="url(#paint2_linear)"></path> <path d="M116.345 349.471L15.983 291.513L15.8367 303.368L116.345 361.619V349.471Z" fill="#D6C5CB"></path> <path d="M155.115 367.475L135.072 355.912V376.403L155.115 388.111V367.475Z" fill="#F97479"></path> <path d="M157.017 368.498V389.135L177.06 400.697V380.061L157.017 368.498Z" fill="#2C9AE5"></path> <path d="M170.916 347.277L24.6151 262.681L20.2261 265.608L166.088 349.912L170.916 347.277Z" fill="white"></path> <path d="M378.37 170.472L217 77.387C204.272 70.0689 188.618 70.0689 175.89 77.387L14.6667 170.472C7.05903 174.863 7.05903 185.986 14.6667 190.377L43.7805 207.209L178.523 129.491C189.642 123.051 203.248 123.051 214.367 129.491L349.11 207.355L378.224 190.524C385.978 185.986 385.978 174.863 378.37 170.472Z" fill="#F7CBDC"></path> <path d="M387.002 170.035L218.025 72.4126C204.711 64.6554 188.325 64.6554 175.012 72.4126L6.0349 170.035C-2.01163 174.719 -2.01163 186.281 6.0349 190.818L175.012 288.441C188.325 296.198 204.711 296.198 218.025 288.441L387.002 190.818C394.902 186.281 394.902 174.719 387.002 170.035ZM378.37 190.379L217.147 283.464C204.419 290.782 188.764 290.782 176.036 283.464L14.6666 190.379C7.05901 185.988 7.05901 174.865 14.6666 170.474L175.89 77.3888C188.618 70.0708 204.272 70.0708 217 77.3888L378.224 170.474C385.978 174.865 385.978 185.988 378.37 190.379Z" fill="white"></path> <path d="M6.0347 254.923L175.012 352.546C188.325 360.303 204.711 360.303 218.024 352.546L387.002 254.923C390.952 252.582 393 248.63 393 244.532V180.426C393 184.524 390.952 188.476 387.002 190.817L218.024 288.44C204.711 296.197 188.325 296.197 175.012 288.44L6.0347 190.817C4.4254 189.939 3.10869 188.622 2.23089 187.305L0.036377 182.036V244.532C0.036377 248.63 2.08459 252.728 6.0347 254.923Z" fill="url(#paint3_linear)"></path> <path d="M116.345 282.878L15.983 224.919L15.8367 236.774L116.345 295.026V282.878Z" fill="#D6C5CB"></path> <path d="M155.115 300.88L135.072 289.317V309.808L155.115 321.517V300.88Z" fill="#F97479"></path> <path d="M157.017 301.904V322.541L177.06 334.104V313.467L157.017 301.904Z" fill="#2C9AE5"></path> <path d="M170.916 280.682L24.6151 196.086L20.2261 199.013L166.088 283.317L170.916 280.682Z" fill="white"></path> <path d="M378.37 103.879L217 10.7942C204.272 3.47616 188.618 3.47616 175.89 10.7942L14.6667 103.879C7.05903 108.27 7.05903 119.394 14.6667 123.784L43.7805 140.616L178.523 62.8985C189.642 56.4587 203.248 56.4587 214.367 62.8985L349.11 140.616L378.224 123.784C385.978 119.394 385.978 108.27 378.37 103.879Z" fill="#F7CBDC"></path> <path d="M387.002 103.44L218.025 5.81783C204.711 -1.93928 188.325 -1.93928 175.012 5.81783L6.0349 103.44C-2.01163 108.124 -2.01163 119.686 6.0349 124.223L175.012 221.846C188.325 229.603 204.711 229.603 218.025 221.846L387.002 124.223C394.902 119.686 394.902 108.124 387.002 103.44ZM378.37 123.784L217.147 216.87C204.419 224.188 188.764 224.188 176.036 216.87L14.6666 123.784C7.05901 119.394 7.05901 108.27 14.6666 103.879L175.89 10.7941C188.618 3.47606 204.272 3.47606 217 10.7941L378.224 103.879C385.978 108.27 385.978 119.394 378.37 123.784Z" fill="white"></path> <path d="M6.0347 188.33L175.012 285.952C188.325 293.709 204.711 293.709 218.024 285.952L387.002 188.33C390.952 185.988 393 182.036 393 177.938V113.832C393 117.93 390.952 121.882 387.002 124.224L218.024 221.846C204.711 229.603 188.325 229.603 175.012 221.846L6.0347 124.224C4.4254 123.345 3.10869 122.028 2.23089 120.711L0.036377 115.442V178.084C0.036377 182.036 2.08459 186.134 6.0347 188.33Z" fill="url(#paint4_linear)"></path> <path d="M116.345 216.283L15.983 158.324L15.8367 170.179L116.345 228.431V216.283Z" fill="#D6C5CB"></path> <path d="M155.115 234.286L135.072 222.724V243.214L155.115 254.923V234.286Z" fill="#F97479"></path> <path d="M157.017 235.311V255.947L177.06 267.51V246.873L157.017 235.311Z" fill="#2C9AE5"></path> <path d="M170.916 214.089L24.6151 129.492L20.2261 132.419L166.088 216.723L170.916 214.089Z" fill="white"></path> <path d="M175.744 10.0622L13.3501 103.879C5.59618 108.27 5.59618 119.393 13.3501 123.931L175.744 217.748C188.618 225.212 204.272 225.212 217.147 217.748L379.541 123.931C387.295 119.54 387.295 108.416 379.541 103.879L217.147 10.0622C204.419 2.59777 188.618 2.59777 175.744 10.0622Z" fill="white"></path> <defs> <linearGradient id="paint0_linear" x1="0.0364579" y1="468.94" x2="392.951" y2="468.94" gradientUnits="userSpaceOnUse"> <stop offset="0.245" stop-color="#FEF0F2"></stop> <stop offset="0.3397" stop-color="#FEEBED"></stop> <stop offset="0.4566" stop-color="#FFDCE0"></stop> <stop offset="0.5" stop-color="#FFD4DA"></stop> <stop offset="0.52" stop-color="#FFD0D5"></stop> <stop offset="0.596" stop-color="#FFC6CA"></stop> <stop offset="0.7029" stop-color="#FFC1C3"></stop> <stop offset="1" stop-color="#FFBFC1"></stop> </linearGradient> <linearGradient id="paint1_linear" x1="0.0364579" y1="402.574" x2="392.951" y2="402.574" gradientUnits="userSpaceOnUse"> <stop offset="0.245" stop-color="#FEF0F2"></stop> <stop offset="0.3397" stop-color="#FEEBED"></stop> <stop offset="0.4566" stop-color="#FFDCE0"></stop> <stop offset="0.5" stop-color="#FFD4DA"></stop> <stop offset="0.52" stop-color="#FFD0D5"></stop> <stop offset="0.596" stop-color="#FFC6CA"></stop> <stop offset="0.7029" stop-color="#FFC1C3"></stop> <stop offset="1" stop-color="#FFBFC1"></stop> </linearGradient> <linearGradient id="paint2_linear" x1="0.0364579" y1="335.977" x2="392.951" y2="335.977" gradientUnits="userSpaceOnUse"> <stop offset="0.245" stop-color="#FEF0F2"></stop> <stop offset="0.3397" stop-color="#FEEBED"></stop> <stop offset="0.4566" stop-color="#FFDCE0"></stop> <stop offset="0.5" stop-color="#FFD4DA"></stop> <stop offset="0.52" stop-color="#FFD0D5"></stop> <stop offset="0.596" stop-color="#FFC6CA"></stop> <stop offset="0.7029" stop-color="#FFC1C3"></stop> <stop offset="1" stop-color="#FFBFC1"></stop> </linearGradient> <linearGradient id="paint3_linear" x1="0.0364579" y1="269.381" x2="392.951" y2="269.381" gradientUnits="userSpaceOnUse"> <stop offset="0.245" stop-color="#FEF0F2"></stop> <stop offset="0.3397" stop-color="#FEEBED"></stop> <stop offset="0.4566" stop-color="#FFDCE0"></stop> <stop offset="0.5" stop-color="#FFD4DA"></stop> <stop offset="0.52" stop-color="#FFD0D5"></stop> <stop offset="0.596" stop-color="#FFC6CA"></stop> <stop offset="0.7029" stop-color="#FFC1C3"></stop> <stop offset="1" stop-color="#FFBFC1"></stop> </linearGradient> <linearGradient id="paint4_linear" x1="0.0364579" y1="202.785" x2="392.951" y2="202.785" gradientUnits="userSpaceOnUse"> <stop offset="0.245" stop-color="#FEF0F2"></stop> <stop offset="0.3397" stop-color="#FEEBED"></stop> <stop offset="0.4566" stop-color="#FFDCE0"></stop> <stop offset="0.5" stop-color="#FFD4DA"></stop> <stop offset="0.52" stop-color="#FFD0D5"></stop> <stop offset="0.596" stop-color="#FFC6CA"></stop> <stop offset="0.7029" stop-color="#FFC1C3"></stop> <stop offset="1" stop-color="#FFBFC1"></stop> </linearGradient> </defs> </svg> 